<?xml version="1.0" encoding="UTF-8" standalone="no"?><svg xmlns="http://www.w3.org/2000/svg" xmlns:xlink="http://www.w3.org/1999/xlink" contentScriptType="application/ecmascript" contentStyleType="text/css" height="703px" preserveAspectRatio="none" style="width:1088px;height:703px;" version="1.1" viewBox="0 0 1088 703" width="1088px" zoomAndPan="magnify"><defs><filter height="300%" id="fj59pn4jmuo5e" width="300%" x="-1" y="-1"><feGaussianBlur result="blurOut" stdDeviation="2.0"/><feColorMatrix in="blurOut" result="blurOut2" type="matrix" values="0 0 0 0 0 0 0 0 0 0 0 0 0 0 0 0 0 0 .4 0"/><feOffset dx="4.0" dy="4.0" in="blurOut2" result="blurOut3"/><feBlend in="SourceGraphic" in2="blurOut3" mode="normal"/></filter></defs><g><!--cluster csse374.revengd.examples.fixtures--><polygon fill="#FFFFFF" filter="url(#fj59pn4jmuo5e)" points="22,342,278,342,285,365.6094,1066,365.6094,1066,691,22,691,22,342" style="stroke: #000000; stroke-width: 1.5;"/><line style="stroke: #000000; stroke-width: 1.5;" x1="22" x2="285" y1="365.6094" y2="365.6094"/><text fill="#000000" font-family="sans-serif" font-size="14" font-weight="bold" lengthAdjust="spacingAndGlyphs" textLength="250" x="26" y="358.5332">csse374.revengd.examples.fixtures</text><!--cluster java.lang--><polygon fill="#FFFFFF" filter="url(#fj59pn4jmuo5e)" points="546,24,615,24,622,47.6094,726,47.6094,726,318,546,318,546,24" style="stroke: #000000; stroke-width: 1.5;"/><line style="stroke: #000000; stroke-width: 1.5;" x1="546" x2="622" y1="47.6094" y2="47.6094"/><text fill="#000000" font-family="sans-serif" font-size="14" font-weight="bold" lengthAdjust="spacingAndGlyphs" textLength="63" x="550" y="40.5332">java.lang</text><!--class csse374.revengd.examples.fixtures.CalculatorApp--><rect fill="#FEFECE" filter="url(#fj59pn4jmuo5e)" height="117.1797" id="csse374.revengd.examples.fixtures.CalculatorApp" style="stroke: #A80036; stroke-width: 1.5;" width="303" x="746.5" y="468"/><ellipse cx="855.25" cy="484" fill="#ADD1B2" rx="11" ry="11" style="stroke: #A80036; stroke-width: 1.0;"/><path d="M858.0156,479.875 Q858.1719,479.6563 858.3594,479.5469 Q858.5469,479.4375 858.7656,479.4375 Q859.1406,479.4375 859.375,479.6953 Q859.6094,479.9531 859.6094,480.5625 L859.6094,482.0156 Q859.6094,482.625 859.375,482.8906 Q859.1406,483.1563 858.7656,483.1563 Q858.4219,483.1563 858.2188,482.9531 Q858.0156,482.7656 857.9063,482.25 Q857.8594,481.8906 857.6719,481.7031 Q857.3438,481.3281 856.7344,481.1094 Q856.125,480.8906 855.5,480.8906 Q854.7344,480.8906 854.1016,481.2188 Q853.4688,481.5469 852.9766,482.2969 Q852.4844,483.0469 852.4844,484.0781 L852.4844,485.1719 Q852.4844,486.4063 853.375,487.2266 Q854.2656,488.0469 855.8594,488.0469 Q856.7969,488.0469 857.4531,487.7969 Q857.8438,487.6406 858.2656,487.2031 Q858.5313,486.9375 858.6797,486.8594 Q858.8281,486.7813 859.0313,486.7813 Q859.3594,486.7813 859.6172,487.0391 Q859.875,487.2969 859.875,487.6406 Q859.875,487.9844 859.5313,488.3906 Q859.0313,488.9688 858.2344,489.2969 Q857.1563,489.75 855.8594,489.75 Q854.3438,489.75 853.1406,489.125 Q852.1563,488.625 851.4688,487.5547 Q850.7813,486.4844 850.7813,485.2031 L850.7813,484.0469 Q850.7813,482.7188 851.3984,481.5703 Q852.0156,480.4219 853.1094,479.8047 Q854.2031,479.1875 855.4375,479.1875 Q856.1719,479.1875 856.8203,479.3516 Q857.4688,479.5156 858.0156,479.875 Z "/><text fill="#000000" font-family="sans-serif" font-size="12" lengthAdjust="spacingAndGlyphs" textLength="77" x="875.75" y="488.9102">CalculatorApp</text><line style="stroke: #A80036; stroke-width: 1.5;" x1="747.5" x2="1048.5" y1="500" y2="500"/><rect fill="none" height="6" style="stroke: #C82930; stroke-width: 1.0;" width="6" x="754.5" y="509.418"/><text fill="#000000" font-family="sans-serif" font-size="11" lengthAdjust="spacingAndGlyphs" textLength="277" x="766.5" y="515.4189">csse374.revengd.examples.fixtures.ICalculator calculator</text><line style="stroke: #A80036; stroke-width: 1.5;" x1="747.5" x2="1048.5" y1="521.8359" y2="521.8359"/><ellipse cx="757.5" cy="534.2539" fill="#84BE84" rx="3" ry="3" style="stroke: #038048; stroke-width: 1.0;"/><text fill="#000000" font-family="sans-serif" font-size="11" lengthAdjust="spacingAndGlyphs" textLength="56" x="766.5" y="537.2549">void &lt;init&gt;()</text><ellipse cx="757.5" cy="548.0898" fill="#84BE84" rx="3" ry="3" style="stroke: #038048; stroke-width: 1.0;"/><text fill="#000000" font-family="sans-serif" font-size="11" lengthAdjust="spacingAndGlyphs" textLength="89" x="766.5" y="551.0908">void performAdd()</text><ellipse cx="757.5" cy="561.9258" fill="#84BE84" rx="3" ry="3" style="stroke: #038048; stroke-width: 1.0;"/><text fill="#000000" font-family="sans-serif" font-size="11" lengthAdjust="spacingAndGlyphs" textLength="104" x="766.5" y="564.9268">void performMultiply()</text><ellipse cx="757.5" cy="575.7617" fill="#84BE84" rx="3" ry="3" style="stroke: #038048; stroke-width: 1.0;"/><text fill="#000000" font-family="sans-serif" font-size="11" lengthAdjust="spacingAndGlyphs" text-decoration="underline" textLength="53" x="766.5" y="578.7627">void main()</text><line style="stroke: #000000; stroke-width: 1.0;" x1="766.5" x2="819.5" y1="580.7627" y2="580.7627"/><!--class csse374.revengd.examples.fixtures.UnrelatedClass--><rect fill="#FEFECE" filter="url(#fj59pn4jmuo5e)" height="297.0469" id="csse374.revengd.examples.fixtures.UnrelatedClass" style="stroke: #A80036; stroke-width: 1.5;" width="673" x="38.5" y="378"/><ellipse cx="327.25" cy="394" fill="#ADD1B2" rx="11" ry="11" style="stroke: #A80036; stroke-width: 1.0;"/><path d="M330.0156,389.875 Q330.1719,389.6563 330.3594,389.5469 Q330.5469,389.4375 330.7656,389.4375 Q331.1406,389.4375 331.375,389.6953 Q331.6094,389.9531 331.6094,390.5625 L331.6094,392.0156 Q331.6094,392.625 331.375,392.8906 Q331.1406,393.1563 330.7656,393.1563 Q330.4219,393.1563 330.2188,392.9531 Q330.0156,392.7656 329.9063,392.25 Q329.8594,391.8906 329.6719,391.7031 Q329.3438,391.3281 328.7344,391.1094 Q328.125,390.8906 327.5,390.8906 Q326.7344,390.8906 326.1016,391.2188 Q325.4688,391.5469 324.9766,392.2969 Q324.4844,393.0469 324.4844,394.0781 L324.4844,395.1719 Q324.4844,396.4063 325.375,397.2266 Q326.2656,398.0469 327.8594,398.0469 Q328.7969,398.0469 329.4531,397.7969 Q329.8438,397.6406 330.2656,397.2031 Q330.5313,396.9375 330.6797,396.8594 Q330.8281,396.7813 331.0313,396.7813 Q331.3594,396.7813 331.6172,397.0391 Q331.875,397.2969 331.875,397.6406 Q331.875,397.9844 331.5313,398.3906 Q331.0313,398.9688 330.2344,399.2969 Q329.1563,399.75 327.8594,399.75 Q326.3438,399.75 325.1406,399.125 Q324.1563,398.625 323.4688,397.5547 Q322.7813,396.4844 322.7813,395.2031 L322.7813,394.0469 Q322.7813,392.7188 323.3984,391.5703 Q324.0156,390.4219 325.1094,389.8047 Q326.2031,389.1875 327.4375,389.1875 Q328.1719,389.1875 328.8203,389.3516 Q329.4688,389.5156 330.0156,389.875 Z "/><text fill="#000000" font-family="sans-serif" font-size="12" lengthAdjust="spacingAndGlyphs" textLength="87" x="347.75" y="398.9102">UnrelatedClass</text><line style="stroke: #A80036; stroke-width: 1.5;" x1="39.5" x2="710.5" y1="410" y2="410"/><ellipse cx="49.5" cy="422.418" fill="none" rx="3" ry="3" style="stroke: #038048; stroke-width: 1.0;"/><text fill="#000000" font-family="sans-serif" font-size="11" lengthAdjust="spacingAndGlyphs" textLength="198" x="58.5" y="425.4189">java.util.List&lt;java.lang.String&gt; genericList</text><ellipse cx="49.5" cy="436.2539" fill="none" rx="3" ry="3" style="stroke: #038048; stroke-width: 1.0;"/><text fill="#000000" font-family="sans-serif" font-size="11" lengthAdjust="spacingAndGlyphs" textLength="326" x="58.5" y="439.2549">java.util.List&lt;java.util.List&lt;java.util.List&lt;java.lang.String&gt;&gt;&gt; weirdList</text><ellipse cx="49.5" cy="450.0898" fill="none" rx="3" ry="3" style="stroke: #038048; stroke-width: 1.0;"/><text fill="#000000" font-family="sans-serif" font-size="11" lengthAdjust="spacingAndGlyphs" textLength="286" x="58.5" y="453.0908">java.util.Map&lt;java.lang.String,java.lang.Integer&gt; randomMap</text><ellipse cx="49.5" cy="463.9258" fill="none" rx="3" ry="3" style="stroke: #038048; stroke-width: 1.0;"/><text fill="#000000" font-family="sans-serif" font-size="11" lengthAdjust="spacingAndGlyphs" textLength="647" x="58.5" y="466.9268">java.util.Map&lt;java.lang.String,java.util.Map&lt;java.lang.Integer,java.util.List&lt;java.util.Map&lt;java.lang.String,java.lang.Double&gt;&gt;&gt;&gt; weirdMap</text><ellipse cx="49.5" cy="477.7617" fill="none" rx="3" ry="3" style="stroke: #038048; stroke-width: 1.0;"/><text fill="#000000" font-family="sans-serif" font-size="11" lengthAdjust="spacingAndGlyphs" textLength="192" x="58.5" y="480.7627">java.util.List&lt;java.lang.String&gt;[] listArray</text><ellipse cx="49.5" cy="491.5977" fill="none" rx="3" ry="3" style="stroke: #038048; stroke-width: 1.0;"/><text fill="#000000" font-family="sans-serif" font-size="11" lengthAdjust="spacingAndGlyphs" textLength="284" x="58.5" y="494.5986">java.util.Map&lt;java.lang.String,java.lang.Integer&gt;[] singleMap</text><ellipse cx="49.5" cy="505.4336" fill="none" rx="3" ry="3" style="stroke: #038048; stroke-width: 1.0;"/><text fill="#000000" font-family="sans-serif" font-size="11" lengthAdjust="spacingAndGlyphs" textLength="231" x="58.5" y="508.4346">java.util.List&lt;java.lang.String&gt;[][] listDoubleArray</text><ellipse cx="49.5" cy="519.2695" fill="none" rx="3" ry="3" style="stroke: #038048; stroke-width: 1.0;"/><text fill="#000000" font-family="sans-serif" font-size="11" lengthAdjust="spacingAndGlyphs" textLength="59" x="58.5" y="522.2705">int[] intArray</text><ellipse cx="49.5" cy="533.1055" fill="none" rx="3" ry="3" style="stroke: #038048; stroke-width: 1.0;"/><text fill="#000000" font-family="sans-serif" font-size="11" lengthAdjust="spacingAndGlyphs" textLength="364" x="58.5" y="536.1064">java.util.Map&lt;java.lang.String,java.util.List&lt;java.lang.String&gt;[]&gt; mapListArray</text><ellipse cx="49.5" cy="546.9414" fill="none" rx="3" ry="3" style="stroke: #038048; stroke-width: 1.0;"/><text fill="#000000" font-family="sans-serif" font-size="11" lengthAdjust="spacingAndGlyphs" textLength="33" x="58.5" y="549.9424">int hiInt</text><ellipse cx="49.5" cy="560.7773" fill="none" rx="3" ry="3" style="stroke: #038048; stroke-width: 1.0;"/><text fill="#000000" font-family="sans-serif" font-size="11" lengthAdjust="spacingAndGlyphs" textLength="119" x="58.5" y="563.7783">java.lang.String myString</text><ellipse cx="49.5" cy="574.6133" fill="none" rx="3" ry="3" style="stroke: #038048; stroke-width: 1.0;"/><text fill="#000000" font-family="sans-serif" font-size="11" lengthAdjust="spacingAndGlyphs" textLength="248" x="58.5" y="577.6143">csse374.revengd.examples.fixtures.CalculatorA ca</text><line style="stroke: #A80036; stroke-width: 1.5;" x1="39.5" x2="710.5" y1="584.0313" y2="584.0313"/><ellipse cx="49.5" cy="596.4492" fill="#84BE84" rx="3" ry="3" style="stroke: #038048; stroke-width: 1.0;"/><text fill="#000000" font-family="sans-serif" font-size="11" lengthAdjust="spacingAndGlyphs" textLength="56" x="58.5" y="599.4502">void &lt;init&gt;()</text><ellipse cx="49.5" cy="610.2852" fill="#84BE84" rx="3" ry="3" style="stroke: #038048; stroke-width: 1.0;"/><text fill="#000000" font-family="sans-serif" font-size="11" lengthAdjust="spacingAndGlyphs" textLength="121" x="58.5" y="613.2861">will work checkObject1()</text><ellipse cx="49.5" cy="624.1211" fill="#84BE84" rx="3" ry="3" style="stroke: #038048; stroke-width: 1.0;"/><text fill="#000000" font-family="sans-serif" font-size="11" lengthAdjust="spacingAndGlyphs" textLength="121" x="58.5" y="627.1221">will work checkObject2()</text><ellipse cx="49.5" cy="637.957" fill="#84BE84" rx="3" ry="3" style="stroke: #038048; stroke-width: 1.0;"/><text fill="#000000" font-family="sans-serif" font-size="11" lengthAdjust="spacingAndGlyphs" textLength="90" x="58.5" y="640.958">will work getMap()</text><ellipse cx="49.5" cy="651.793" fill="#84BE84" rx="3" ry="3" style="stroke: #038048; stroke-width: 1.0;"/><text fill="#000000" font-family="sans-serif" font-size="11" lengthAdjust="spacingAndGlyphs" textLength="124" x="58.5" y="654.7939">void sayConditionalHello()</text><ellipse cx="49.5" cy="665.6289" fill="#84BE84" rx="3" ry="3" style="stroke: #038048; stroke-width: 1.0;"/><text fill="#000000" font-family="sans-serif" font-size="11" lengthAdjust="spacingAndGlyphs" textLength="48" x="58.5" y="668.6299">void doIt()</text><!--class java.lang.Object--><rect fill="#FEFECE" filter="url(#fj59pn4jmuo5e)" height="241.7031" id="java.lang.Object" style="stroke: #A80036; stroke-width: 1.5;" width="148" x="562" y="60"/><ellipse cx="614.25" cy="76" fill="#ADD1B2" rx="11" ry="11" style="stroke: #A80036; stroke-width: 1.0;"/><path d="M617.0156,71.875 Q617.1719,71.6563 617.3594,71.5469 Q617.5469,71.4375 617.7656,71.4375 Q618.1406,71.4375 618.375,71.6953 Q618.6094,71.9531 618.6094,72.5625 L618.6094,74.0156 Q618.6094,74.625 618.375,74.8906 Q618.1406,75.1563 617.7656,75.1563 Q617.4219,75.1563 617.2188,74.9531 Q617.0156,74.7656 616.9063,74.25 Q616.8594,73.8906 616.6719,73.7031 Q616.3438,73.3281 615.7344,73.1094 Q615.125,72.8906 614.5,72.8906 Q613.7344,72.8906 613.1016,73.2188 Q612.4688,73.5469 611.9766,74.2969 Q611.4844,75.0469 611.4844,76.0781 L611.4844,77.1719 Q611.4844,78.4063 612.375,79.2266 Q613.2656,80.0469 614.8594,80.0469 Q615.7969,80.0469 616.4531,79.7969 Q616.8438,79.6406 617.2656,79.2031 Q617.5313,78.9375 617.6797,78.8594 Q617.8281,78.7813 618.0313,78.7813 Q618.3594,78.7813 618.6172,79.0391 Q618.875,79.2969 618.875,79.6406 Q618.875,79.9844 618.5313,80.3906 Q618.0313,80.9688 617.2344,81.2969 Q616.1563,81.75 614.8594,81.75 Q613.3438,81.75 612.1406,81.125 Q611.1563,80.625 610.4688,79.5547 Q609.7813,78.4844 609.7813,77.2031 L609.7813,76.0469 Q609.7813,74.7188 610.3984,73.5703 Q611.0156,72.4219 612.1094,71.8047 Q613.2031,71.1875 614.4375,71.1875 Q615.1719,71.1875 615.8203,71.3516 Q616.4688,71.5156 617.0156,71.875 Z "/><text fill="#000000" font-family="sans-serif" font-size="12" lengthAdjust="spacingAndGlyphs" textLength="35" x="634.75" y="80.9102">Object</text><line style="stroke: #A80036; stroke-width: 1.5;" x1="563" x2="709" y1="92" y2="92"/><line style="stroke: #A80036; stroke-width: 1.5;" x1="563" x2="709" y1="100" y2="100"/><ellipse cx="573" cy="112.418" fill="#84BE84" rx="3" ry="3" style="stroke: #038048; stroke-width: 1.0;"/><text fill="#000000" font-family="sans-serif" font-size="11" lengthAdjust="spacingAndGlyphs" textLength="56" x="582" y="115.4189">void &lt;init&gt;()</text><rect fill="#F24D5C" height="6" style="stroke: #C82930; stroke-width: 1.0;" width="6" x="570" y="123.2539"/><text fill="#000000" font-family="sans-serif" font-size="11" lengthAdjust="spacingAndGlyphs" text-decoration="underline" textLength="104" x="582" y="129.2549">void registerNatives()</text><line style="stroke: #000000; stroke-width: 1.0;" x1="582" x2="686" y1="131.2549" y2="131.2549"/><ellipse cx="573" cy="140.0898" fill="#84BE84" rx="3" ry="3" style="stroke: #038048; stroke-width: 1.0;"/><text fill="#000000" font-family="sans-serif" font-size="11" lengthAdjust="spacingAndGlyphs" textLength="120" x="582" y="143.0908">final will work getClass()</text><ellipse cx="573" cy="153.9258" fill="#84BE84" rx="3" ry="3" style="stroke: #038048; stroke-width: 1.0;"/><text fill="#000000" font-family="sans-serif" font-size="11" lengthAdjust="spacingAndGlyphs" textLength="71" x="582" y="156.9268">int hashCode()</text><ellipse cx="573" cy="167.7617" fill="#84BE84" rx="3" ry="3" style="stroke: #038048; stroke-width: 1.0;"/><text fill="#000000" font-family="sans-serif" font-size="11" lengthAdjust="spacingAndGlyphs" textLength="81" x="582" y="170.7627">boolean equals()</text><polygon fill="#FFFF44" points="573,176.5977,577,180.5977,573,184.5977,569,180.5977" style="stroke: #B38D22; stroke-width: 1.0;"/><text fill="#000000" font-family="sans-serif" font-size="11" lengthAdjust="spacingAndGlyphs" textLength="114" x="582" y="184.5986">java.lang.Object clone()</text><ellipse cx="573" cy="195.4336" fill="#84BE84" rx="3" ry="3" style="stroke: #038048; stroke-width: 1.0;"/><text fill="#000000" font-family="sans-serif" font-size="11" lengthAdjust="spacingAndGlyphs" textLength="122" x="582" y="198.4346">java.lang.String toString()</text><ellipse cx="573" cy="209.2695" fill="#84BE84" rx="3" ry="3" style="stroke: #038048; stroke-width: 1.0;"/><text fill="#000000" font-family="sans-serif" font-size="11" lengthAdjust="spacingAndGlyphs" textLength="81" x="582" y="212.2705">final void notify()</text><ellipse cx="573" cy="223.1055" fill="#84BE84" rx="3" ry="3" style="stroke: #038048; stroke-width: 1.0;"/><text fill="#000000" font-family="sans-serif" font-size="11" lengthAdjust="spacingAndGlyphs" textLength="93" x="582" y="226.1064">final void notifyAll()</text><ellipse cx="573" cy="236.9414" fill="#84BE84" rx="3" ry="3" style="stroke: #038048; stroke-width: 1.0;"/><text fill="#000000" font-family="sans-serif" font-size="11" lengthAdjust="spacingAndGlyphs" textLength="75" x="582" y="239.9424">final void wait()</text><ellipse cx="573" cy="250.7773" fill="#84BE84" rx="3" ry="3" style="stroke: #038048; stroke-width: 1.0;"/><text fill="#000000" font-family="sans-serif" font-size="11" lengthAdjust="spacingAndGlyphs" textLength="75" x="582" y="253.7783">final void wait()</text><ellipse cx="573" cy="264.6133" fill="#84BE84" rx="3" ry="3" style="stroke: #038048; stroke-width: 1.0;"/><text fill="#000000" font-family="sans-serif" font-size="11" lengthAdjust="spacingAndGlyphs" textLength="75" x="582" y="267.6143">final void wait()</text><polygon fill="#FFFF44" points="573,273.4492,577,277.4492,573,281.4492,569,277.4492" style="stroke: #B38D22; stroke-width: 1.0;"/><text fill="#000000" font-family="sans-serif" font-size="11" lengthAdjust="spacingAndGlyphs" textLength="65" x="582" y="281.4502">void finalize()</text><ellipse cx="573" cy="292.2852" fill="#84BE84" rx="3" ry="3" style="stroke: #038048; stroke-width: 1.0;"/><text fill="#000000" font-family="sans-serif" font-size="11" lengthAdjust="spacingAndGlyphs" text-decoration="underline" textLength="64" x="582" y="295.2861">void &lt;clinit&gt;()</text><line style="stroke: #000000; stroke-width: 1.0;" x1="582" x2="646" y1="297.2861" y2="297.2861"/><!--link java.lang.Object to csse374.revengd.examples.fixtures.CalculatorApp--><path d="M722.248,295.077 C766.368,352.921 818.185,420.856 854.07,467.905 " fill="none" id="java.lang.Object-csse374.revengd.examples.fixtures.CalculatorApp" style="stroke: #A80036; stroke-width: 1.0;"/><polygon fill="none" points="716.592,299.203,710.028,279.056,727.723,290.713,716.592,299.203" style="stroke: #A80036; stroke-width: 1.0;"/><!--link java.lang.Object to csse374.revengd.examples.fixtures.UnrelatedClass--><path d="M549.697,295.582 C529.733,321.857 508.204,350.192 487.309,377.691 " fill="none" id="java.lang.Object-csse374.revengd.examples.fixtures.UnrelatedClass" style="stroke: #A80036; stroke-width: 1.0;"/><polygon fill="none" points="544.232,291.204,561.906,279.514,555.38,299.674,544.232,291.204" style="stroke: #A80036; stroke-width: 1.0;"/></g></svg>