<?xml version="1.0" encoding="UTF-8" standalone="no"?><svg xmlns="http://www.w3.org/2000/svg" xmlns:xlink="http://www.w3.org/1999/xlink" contentScriptType="application/ecmascript" contentStyleType="text/css" height="1882px" preserveAspectRatio="none" style="width:657px;height:1882px;" version="1.1" viewBox="0 0 657 1882" width="657px" zoomAndPan="magnify"><defs><filter height="300%" id="fb2dsvn0p1q9b" width="300%" x="-1" y="-1"><feGaussianBlur result="blurOut" stdDeviation="2.0"/><feColorMatrix in="blurOut" result="blurOut2" type="matrix" values="0 0 0 0 0 0 0 0 0 0 0 0 0 0 0 0 0 0 .4 0"/><feOffset dx="4.0" dy="4.0" in="blurOut2" result="blurOut3"/><feBlend in="SourceGraphic" in2="blurOut3" mode="normal"/></filter></defs><g><!--cluster problem.blueberrymuffinclient--><polygon fill="#FFFFFF" filter="url(#fb2dsvn0p1q9b)" points="22,466.5,241,466.5,248,490.1094,251,490.1094,251,677.5,22,677.5,22,466.5" style="stroke: #000000; stroke-width: 1.5;"/><line style="stroke: #000000; stroke-width: 1.5;" x1="22" x2="248" y1="490.1094" y2="490.1094"/><text fill="#000000" font-family="sans-serif" font-size="14" font-weight="bold" lengthAdjust="spacingAndGlyphs" textLength="213" x="26" y="483.0332">problem.blueberrymuffinclient</text><!--cluster java.awt--><polygon fill="#FFFFFF" filter="url(#fb2dsvn0p1q9b)" points="275,24,338,24,345,47.6094,635,47.6094,635,1120,275,1120,275,24" style="stroke: #000000; stroke-width: 1.5;"/><line style="stroke: #000000; stroke-width: 1.5;" x1="275" x2="345" y1="47.6094" y2="47.6094"/><text fill="#000000" font-family="sans-serif" font-size="14" font-weight="bold" lengthAdjust="spacingAndGlyphs" textLength="57" x="279" y="40.5332">java.awt</text><!--cluster javax.swing--><polygon fill="#FFFFFF" filter="url(#fb2dsvn0p1q9b)" points="275,1189,363,1189,370,1212.6094,635,1212.6094,635,1870,275,1870,275,1189" style="stroke: #000000; stroke-width: 1.5;"/><line style="stroke: #000000; stroke-width: 1.5;" x1="275" x2="370" y1="1212.6094" y2="1212.6094"/><text fill="#000000" font-family="sans-serif" font-size="14" font-weight="bold" lengthAdjust="spacingAndGlyphs" textLength="82" x="279" y="1205.5332">javax.swing</text><!--class problem.blueberrymuffinclient.FIXME--><rect fill="#FEFECE" filter="url(#fb2dsvn0p1q9b)" height="158.6875" id="problem.blueberrymuffinclient.FIXME" style="stroke: #A80036; stroke-width: 1.5;" width="172" x="50" y="502.5"/><ellipse cx="114.75" cy="518.5" fill="#ADD1B2" rx="11" ry="11" style="stroke: #A80036; stroke-width: 1.0;"/><path d="M117.5156,514.375 Q117.6719,514.1563 117.8594,514.0469 Q118.0469,513.9375 118.2656,513.9375 Q118.6406,513.9375 118.875,514.1953 Q119.1094,514.4531 119.1094,515.0625 L119.1094,516.5156 Q119.1094,517.125 118.875,517.3906 Q118.6406,517.6563 118.2656,517.6563 Q117.9219,517.6563 117.7188,517.4531 Q117.5156,517.2656 117.4063,516.75 Q117.3594,516.3906 117.1719,516.2031 Q116.8438,515.8281 116.2344,515.6094 Q115.625,515.3906 115,515.3906 Q114.2344,515.3906 113.6016,515.7188 Q112.9688,516.0469 112.4766,516.7969 Q111.9844,517.5469 111.9844,518.5781 L111.9844,519.6719 Q111.9844,520.9063 112.875,521.7266 Q113.7656,522.5469 115.3594,522.5469 Q116.2969,522.5469 116.9531,522.2969 Q117.3438,522.1406 117.7656,521.7031 Q118.0313,521.4375 118.1797,521.3594 Q118.3281,521.2813 118.5313,521.2813 Q118.8594,521.2813 119.1172,521.5391 Q119.375,521.7969 119.375,522.1406 Q119.375,522.4844 119.0313,522.8906 Q118.5313,523.4688 117.7344,523.7969 Q116.6563,524.25 115.3594,524.25 Q113.8438,524.25 112.6406,523.625 Q111.6563,523.125 110.9688,522.0547 Q110.2813,520.9844 110.2813,519.7031 L110.2813,518.5469 Q110.2813,517.2188 110.8984,516.0703 Q111.5156,514.9219 112.6094,514.3047 Q113.7031,513.6875 114.9375,513.6875 Q115.6719,513.6875 116.3203,513.8516 Q116.9688,514.0156 117.5156,514.375 Z "/><text fill="#000000" font-family="sans-serif" font-size="12" lengthAdjust="spacingAndGlyphs" textLength="34" x="135.25" y="523.4102">FIXME</text><line style="stroke: #A80036; stroke-width: 1.5;" x1="51" x2="221" y1="534.5" y2="534.5"/><line style="stroke: #A80036; stroke-width: 1.5;" x1="51" x2="221" y1="542.5" y2="542.5"/><ellipse cx="61" cy="554.918" fill="#84BE84" rx="3" ry="3" style="stroke: #038048; stroke-width: 1.0;"/><text fill="#000000" font-family="sans-serif" font-size="11" lengthAdjust="spacingAndGlyphs" textLength="59" x="70" y="557.9189">void  &lt;init&gt;()</text><ellipse cx="61" cy="568.7539" fill="#84BE84" rx="3" ry="3" style="stroke: #038048; stroke-width: 1.0;"/><text fill="#000000" font-family="sans-serif" font-size="11" lengthAdjust="spacingAndGlyphs" text-decoration="underline" textLength="136" x="70" y="571.7549">void  main(java.lang.String[])</text><line style="stroke: #000000; stroke-width: 1.0;" x1="70" x2="206" y1="573.7549" y2="573.7549"/><ellipse cx="61" cy="582.5898" fill="#84BE84" rx="3" ry="3" style="stroke: #038048; stroke-width: 1.0;"/><text fill="#000000" font-family="sans-serif" font-size="11" lengthAdjust="spacingAndGlyphs" text-decoration="underline" textLength="146" x="70" y="585.5908">void  launchPrintingThread(int)</text><line style="stroke: #000000; stroke-width: 1.0;" x1="70" x2="216" y1="587.5908" y2="587.5908"/><rect fill="#F24D5C" height="6" style="stroke: #C82930; stroke-width: 1.0;" width="6" x="58" y="593.4258"/><text fill="#000000" font-family="sans-serif" font-size="11" lengthAdjust="spacingAndGlyphs" text-decoration="underline" textLength="80" x="70" y="599.4268">void  lambda$0()</text><line style="stroke: #000000; stroke-width: 1.0;" x1="70" x2="150" y1="601.4268" y2="601.4268"/><rect fill="#F24D5C" height="6" style="stroke: #C82930; stroke-width: 1.0;" width="6" x="58" y="607.2617"/><text fill="#000000" font-family="sans-serif" font-size="11" lengthAdjust="spacingAndGlyphs" text-decoration="underline" textLength="80" x="70" y="613.2627">void  lambda$1()</text><line style="stroke: #000000; stroke-width: 1.0;" x1="70" x2="150" y1="615.2627" y2="615.2627"/><rect fill="#F24D5C" height="6" style="stroke: #C82930; stroke-width: 1.0;" width="6" x="58" y="621.0977"/><text fill="#000000" font-family="sans-serif" font-size="11" lengthAdjust="spacingAndGlyphs" text-decoration="underline" textLength="80" x="70" y="627.0986">void  lambda$2()</text><line style="stroke: #000000; stroke-width: 1.0;" x1="70" x2="150" y1="629.0986" y2="629.0986"/><rect fill="#F24D5C" height="6" style="stroke: #C82930; stroke-width: 1.0;" width="6" x="58" y="634.9336"/><text fill="#000000" font-family="sans-serif" font-size="11" lengthAdjust="spacingAndGlyphs" text-decoration="underline" textLength="80" x="70" y="640.9346">void  lambda$3()</text><line style="stroke: #000000; stroke-width: 1.0;" x1="70" x2="150" y1="642.9346" y2="642.9346"/><rect fill="#F24D5C" height="6" style="stroke: #C82930; stroke-width: 1.0;" width="6" x="58" y="648.7695"/><text fill="#000000" font-family="sans-serif" font-size="11" lengthAdjust="spacingAndGlyphs" text-decoration="underline" textLength="80" x="70" y="654.7705">void  lambda$4()</text><line style="stroke: #000000; stroke-width: 1.0;" x1="70" x2="150" y1="656.7705" y2="656.7705"/><!--class java.awt.Frame--><rect fill="#FEFECE" filter="url(#fb2dsvn0p1q9b)" height="1044.1875" id="java.awt.Frame" style="stroke: #A80036; stroke-width: 1.5;" width="328" x="291" y="60"/><ellipse cx="432.75" cy="76" fill="#ADD1B2" rx="11" ry="11" style="stroke: #A80036; stroke-width: 1.0;"/><path d="M435.5156,71.875 Q435.6719,71.6563 435.8594,71.5469 Q436.0469,71.4375 436.2656,71.4375 Q436.6406,71.4375 436.875,71.6953 Q437.1094,71.9531 437.1094,72.5625 L437.1094,74.0156 Q437.1094,74.625 436.875,74.8906 Q436.6406,75.1563 436.2656,75.1563 Q435.9219,75.1563 435.7188,74.9531 Q435.5156,74.7656 435.4063,74.25 Q435.3594,73.8906 435.1719,73.7031 Q434.8438,73.3281 434.2344,73.1094 Q433.625,72.8906 433,72.8906 Q432.2344,72.8906 431.6016,73.2188 Q430.9688,73.5469 430.4766,74.2969 Q429.9844,75.0469 429.9844,76.0781 L429.9844,77.1719 Q429.9844,78.4063 430.875,79.2266 Q431.7656,80.0469 433.3594,80.0469 Q434.2969,80.0469 434.9531,79.7969 Q435.3438,79.6406 435.7656,79.2031 Q436.0313,78.9375 436.1797,78.8594 Q436.3281,78.7813 436.5313,78.7813 Q436.8594,78.7813 437.1172,79.0391 Q437.375,79.2969 437.375,79.6406 Q437.375,79.9844 437.0313,80.3906 Q436.5313,80.9688 435.7344,81.2969 Q434.6563,81.75 433.3594,81.75 Q431.8438,81.75 430.6406,81.125 Q429.6563,80.625 428.9688,79.5547 Q428.2813,78.4844 428.2813,77.2031 L428.2813,76.0469 Q428.2813,74.7188 428.8984,73.5703 Q429.5156,72.4219 430.6094,71.8047 Q431.7031,71.1875 432.9375,71.1875 Q433.6719,71.1875 434.3203,71.3516 Q434.9688,71.5156 435.5156,71.875 Z "/><text fill="#000000" font-family="sans-serif" font-size="12" lengthAdjust="spacingAndGlyphs" textLength="36" x="453.25" y="80.9102">Frame</text><line style="stroke: #A80036; stroke-width: 1.5;" x1="292" x2="618" y1="92" y2="92"/><ellipse cx="302" cy="104.418" fill="none" rx="3" ry="3" style="stroke: #038048; stroke-width: 1.0;"/><text fill="#000000" font-family="sans-serif" font-size="11" lengthAdjust="spacingAndGlyphs" text-decoration="underline" textLength="132" x="311" y="107.4189">final int DEFAULT_CURSOR</text><line style="stroke: #000000; stroke-width: 1.0;" x1="311" x2="443" y1="109.4189" y2="109.4189"/><ellipse cx="302" cy="118.2539" fill="none" rx="3" ry="3" style="stroke: #038048; stroke-width: 1.0;"/><text fill="#000000" font-family="sans-serif" font-size="11" lengthAdjust="spacingAndGlyphs" text-decoration="underline" textLength="146" x="311" y="121.2549">final int CROSSHAIR_CURSOR</text><line style="stroke: #000000; stroke-width: 1.0;" x1="311" x2="457" y1="123.2549" y2="123.2549"/><ellipse cx="302" cy="132.0898" fill="none" rx="3" ry="3" style="stroke: #038048; stroke-width: 1.0;"/><text fill="#000000" font-family="sans-serif" font-size="11" lengthAdjust="spacingAndGlyphs" text-decoration="underline" textLength="111" x="311" y="135.0908">final int TEXT_CURSOR</text><line style="stroke: #000000; stroke-width: 1.0;" x1="311" x2="422" y1="137.0908" y2="137.0908"/><ellipse cx="302" cy="145.9258" fill="none" rx="3" ry="3" style="stroke: #038048; stroke-width: 1.0;"/><text fill="#000000" font-family="sans-serif" font-size="11" lengthAdjust="spacingAndGlyphs" text-decoration="underline" textLength="112" x="311" y="148.9268">final int WAIT_CURSOR</text><line style="stroke: #000000; stroke-width: 1.0;" x1="311" x2="423" y1="150.9268" y2="150.9268"/><ellipse cx="302" cy="159.7617" fill="none" rx="3" ry="3" style="stroke: #038048; stroke-width: 1.0;"/><text fill="#000000" font-family="sans-serif" font-size="11" lengthAdjust="spacingAndGlyphs" text-decoration="underline" textLength="144" x="311" y="162.7627">final int SW_RESIZE_CURSOR</text><line style="stroke: #000000; stroke-width: 1.0;" x1="311" x2="455" y1="164.7627" y2="164.7627"/><ellipse cx="302" cy="173.5977" fill="none" rx="3" ry="3" style="stroke: #038048; stroke-width: 1.0;"/><text fill="#000000" font-family="sans-serif" font-size="11" lengthAdjust="spacingAndGlyphs" text-decoration="underline" textLength="140" x="311" y="176.5986">final int SE_RESIZE_CURSOR</text><line style="stroke: #000000; stroke-width: 1.0;" x1="311" x2="451" y1="178.5986" y2="178.5986"/><ellipse cx="302" cy="187.4336" fill="none" rx="3" ry="3" style="stroke: #038048; stroke-width: 1.0;"/><text fill="#000000" font-family="sans-serif" font-size="11" lengthAdjust="spacingAndGlyphs" text-decoration="underline" textLength="144" x="311" y="190.4346">final int NW_RESIZE_CURSOR</text><line style="stroke: #000000; stroke-width: 1.0;" x1="311" x2="455" y1="192.4346" y2="192.4346"/><ellipse cx="302" cy="201.2695" fill="none" rx="3" ry="3" style="stroke: #038048; stroke-width: 1.0;"/><text fill="#000000" font-family="sans-serif" font-size="11" lengthAdjust="spacingAndGlyphs" text-decoration="underline" textLength="140" x="311" y="204.2705">final int NE_RESIZE_CURSOR</text><line style="stroke: #000000; stroke-width: 1.0;" x1="311" x2="451" y1="206.2705" y2="206.2705"/><ellipse cx="302" cy="215.1055" fill="none" rx="3" ry="3" style="stroke: #038048; stroke-width: 1.0;"/><text fill="#000000" font-family="sans-serif" font-size="11" lengthAdjust="spacingAndGlyphs" text-decoration="underline" textLength="134" x="311" y="218.1064">final int N_RESIZE_CURSOR</text><line style="stroke: #000000; stroke-width: 1.0;" x1="311" x2="445" y1="220.1064" y2="220.1064"/><ellipse cx="302" cy="228.9414" fill="none" rx="3" ry="3" style="stroke: #038048; stroke-width: 1.0;"/><text fill="#000000" font-family="sans-serif" font-size="11" lengthAdjust="spacingAndGlyphs" text-decoration="underline" textLength="134" x="311" y="231.9424">final int S_RESIZE_CURSOR</text><line style="stroke: #000000; stroke-width: 1.0;" x1="311" x2="445" y1="233.9424" y2="233.9424"/><ellipse cx="302" cy="242.7773" fill="none" rx="3" ry="3" style="stroke: #038048; stroke-width: 1.0;"/><text fill="#000000" font-family="sans-serif" font-size="11" lengthAdjust="spacingAndGlyphs" text-decoration="underline" textLength="137" x="311" y="245.7783">final int W_RESIZE_CURSOR</text><line style="stroke: #000000; stroke-width: 1.0;" x1="311" x2="448" y1="247.7783" y2="247.7783"/><ellipse cx="302" cy="256.6133" fill="none" rx="3" ry="3" style="stroke: #038048; stroke-width: 1.0;"/><text fill="#000000" font-family="sans-serif" font-size="11" lengthAdjust="spacingAndGlyphs" text-decoration="underline" textLength="133" x="311" y="259.6143">final int E_RESIZE_CURSOR</text><line style="stroke: #000000; stroke-width: 1.0;" x1="311" x2="444" y1="261.6143" y2="261.6143"/><ellipse cx="302" cy="270.4492" fill="none" rx="3" ry="3" style="stroke: #038048; stroke-width: 1.0;"/><text fill="#000000" font-family="sans-serif" font-size="11" lengthAdjust="spacingAndGlyphs" text-decoration="underline" textLength="115" x="311" y="273.4502">final int HAND_CURSOR</text><line style="stroke: #000000; stroke-width: 1.0;" x1="311" x2="426" y1="275.4502" y2="275.4502"/><ellipse cx="302" cy="284.2852" fill="none" rx="3" ry="3" style="stroke: #038048; stroke-width: 1.0;"/><text fill="#000000" font-family="sans-serif" font-size="11" lengthAdjust="spacingAndGlyphs" text-decoration="underline" textLength="116" x="311" y="287.2861">final int MOVE_CURSOR</text><line style="stroke: #000000; stroke-width: 1.0;" x1="311" x2="427" y1="289.2861" y2="289.2861"/><ellipse cx="302" cy="298.1211" fill="none" rx="3" ry="3" style="stroke: #038048; stroke-width: 1.0;"/><text fill="#000000" font-family="sans-serif" font-size="11" lengthAdjust="spacingAndGlyphs" text-decoration="underline" textLength="81" x="311" y="301.1221">final int NORMAL</text><line style="stroke: #000000; stroke-width: 1.0;" x1="311" x2="392" y1="303.1221" y2="303.1221"/><ellipse cx="302" cy="311.957" fill="none" rx="3" ry="3" style="stroke: #038048; stroke-width: 1.0;"/><text fill="#000000" font-family="sans-serif" font-size="11" lengthAdjust="spacingAndGlyphs" text-decoration="underline" textLength="84" x="311" y="314.958">final int ICONIFIED</text><line style="stroke: #000000; stroke-width: 1.0;" x1="311" x2="395" y1="316.958" y2="316.958"/><ellipse cx="302" cy="325.793" fill="none" rx="3" ry="3" style="stroke: #038048; stroke-width: 1.0;"/><text fill="#000000" font-family="sans-serif" font-size="11" lengthAdjust="spacingAndGlyphs" text-decoration="underline" textLength="129" x="311" y="328.7939">final int MAXIMIZED_HORIZ</text><line style="stroke: #000000; stroke-width: 1.0;" x1="311" x2="440" y1="330.7939" y2="330.7939"/><ellipse cx="302" cy="339.6289" fill="none" rx="3" ry="3" style="stroke: #038048; stroke-width: 1.0;"/><text fill="#000000" font-family="sans-serif" font-size="11" lengthAdjust="spacingAndGlyphs" text-decoration="underline" textLength="125" x="311" y="342.6299">final int MAXIMIZED_VERT</text><line style="stroke: #000000; stroke-width: 1.0;" x1="311" x2="436" y1="344.6299" y2="344.6299"/><ellipse cx="302" cy="353.4648" fill="none" rx="3" ry="3" style="stroke: #038048; stroke-width: 1.0;"/><text fill="#000000" font-family="sans-serif" font-size="11" lengthAdjust="spacingAndGlyphs" text-decoration="underline" textLength="126" x="311" y="356.4658">final int MAXIMIZED_BOTH</text><line style="stroke: #000000; stroke-width: 1.0;" x1="311" x2="437" y1="358.4658" y2="358.4658"/><ellipse cx="302" cy="367.3008" fill="none" rx="3" ry="3" style="stroke: #038048; stroke-width: 1.0;"/><text fill="#000000" font-family="sans-serif" font-size="11" lengthAdjust="spacingAndGlyphs" textLength="183" x="311" y="370.3018">java.awt.Rectangle maximizedBounds</text><ellipse cx="302" cy="381.1367" fill="none" rx="3" ry="3" style="stroke: #038048; stroke-width: 1.0;"/><text fill="#000000" font-family="sans-serif" font-size="11" lengthAdjust="spacingAndGlyphs" textLength="93" x="311" y="384.1377">java.lang.String title</text><ellipse cx="302" cy="394.9727" fill="none" rx="3" ry="3" style="stroke: #038048; stroke-width: 1.0;"/><text fill="#000000" font-family="sans-serif" font-size="11" lengthAdjust="spacingAndGlyphs" textLength="134" x="311" y="397.9736">java.awt.MenuBar menuBar</text><ellipse cx="302" cy="408.8086" fill="none" rx="3" ry="3" style="stroke: #038048; stroke-width: 1.0;"/><text fill="#000000" font-family="sans-serif" font-size="11" lengthAdjust="spacingAndGlyphs" textLength="85" x="311" y="411.8096">boolean resizable</text><ellipse cx="302" cy="422.6445" fill="none" rx="3" ry="3" style="stroke: #038048; stroke-width: 1.0;"/><text fill="#000000" font-family="sans-serif" font-size="11" lengthAdjust="spacingAndGlyphs" textLength="102" x="311" y="425.6455">boolean undecorated</text><ellipse cx="302" cy="436.4805" fill="none" rx="3" ry="3" style="stroke: #038048; stroke-width: 1.0;"/><text fill="#000000" font-family="sans-serif" font-size="11" lengthAdjust="spacingAndGlyphs" textLength="116" x="311" y="439.4814">boolean mbManagement</text><rect fill="none" height="6" style="stroke: #C82930; stroke-width: 1.0;" width="6" x="299" y="447.3164"/><text fill="#000000" font-family="sans-serif" font-size="11" lengthAdjust="spacingAndGlyphs" textLength="38" x="311" y="453.3174">int state</text><ellipse cx="302" cy="464.1523" fill="none" rx="3" ry="3" style="stroke: #038048; stroke-width: 1.0;"/><text fill="#000000" font-family="sans-serif" font-size="11" lengthAdjust="spacingAndGlyphs" textLength="252" x="311" y="467.1533">java.util.Vector&lt;java.awt.Window&gt; ownedWindows</text><rect fill="none" height="6" style="stroke: #C82930; stroke-width: 1.0;" width="6" x="299" y="474.9883"/><text fill="#000000" font-family="sans-serif" font-size="11" lengthAdjust="spacingAndGlyphs" text-decoration="underline" textLength="124" x="311" y="480.9893">final java.lang.String base</text><line style="stroke: #000000; stroke-width: 1.0;" x1="311" x2="435" y1="482.9893" y2="482.9893"/><rect fill="none" height="6" style="stroke: #C82930; stroke-width: 1.0;" width="6" x="299" y="488.8242"/><text fill="#000000" font-family="sans-serif" font-size="11" lengthAdjust="spacingAndGlyphs" text-decoration="underline" textLength="78" x="311" y="494.8252">int nameCounter</text><line style="stroke: #000000; stroke-width: 1.0;" x1="311" x2="389" y1="496.8252" y2="496.8252"/><rect fill="none" height="6" style="stroke: #C82930; stroke-width: 1.0;" width="6" x="299" y="502.6602"/><text fill="#000000" font-family="sans-serif" font-size="11" lengthAdjust="spacingAndGlyphs" text-decoration="underline" textLength="126" x="311" y="508.6611">final long serialVersionUID</text><line style="stroke: #000000; stroke-width: 1.0;" x1="311" x2="437" y1="510.6611" y2="510.6611"/><rect fill="none" height="6" style="stroke: #C82930; stroke-width: 1.0;" width="6" x="299" y="516.4961"/><text fill="#000000" font-family="sans-serif" font-size="11" lengthAdjust="spacingAndGlyphs" textLength="149" x="311" y="522.4971">int frameSerializedDataVersion</text><line style="stroke: #A80036; stroke-width: 1.5;" x1="292" x2="618" y1="528.9141" y2="528.9141"/><ellipse cx="302" cy="541.332" fill="#84BE84" rx="3" ry="3" style="stroke: #038048; stroke-width: 1.0;"/><text fill="#000000" font-family="sans-serif" font-size="11" lengthAdjust="spacingAndGlyphs" textLength="59" x="311" y="544.333">void  &lt;init&gt;()</text><ellipse cx="302" cy="555.168" fill="#84BE84" rx="3" ry="3" style="stroke: #038048; stroke-width: 1.0;"/><text fill="#000000" font-family="sans-serif" font-size="11" lengthAdjust="spacingAndGlyphs" textLength="212" x="311" y="558.1689">void  &lt;init&gt;(java.awt.GraphicsConfiguration)</text><ellipse cx="302" cy="569.0039" fill="#84BE84" rx="3" ry="3" style="stroke: #038048; stroke-width: 1.0;"/><text fill="#000000" font-family="sans-serif" font-size="11" lengthAdjust="spacingAndGlyphs" textLength="133" x="311" y="572.0049">void  &lt;init&gt;(java.lang.String)</text><ellipse cx="302" cy="582.8398" fill="#84BE84" rx="3" ry="3" style="stroke: #038048; stroke-width: 1.0;"/><text fill="#000000" font-family="sans-serif" font-size="11" lengthAdjust="spacingAndGlyphs" textLength="292" x="311" y="585.8408">void  &lt;init&gt;(java.lang.String, java.awt.GraphicsConfiguration)</text><rect fill="#F24D5C" height="6" style="stroke: #C82930; stroke-width: 1.0;" width="6" x="299" y="593.6758"/><text fill="#000000" font-family="sans-serif" font-size="11" lengthAdjust="spacingAndGlyphs" textLength="280" x="311" y="599.6768">void  init(java.lang.String, java.awt.GraphicsConfiguration)</text><ellipse cx="302" cy="610.5117" fill="#84BE84" rx="3" ry="3" style="stroke: #038048; stroke-width: 1.0;"/><text fill="#000000" font-family="sans-serif" font-size="11" lengthAdjust="spacingAndGlyphs" textLength="215" x="311" y="613.5127">java.lang.String  constructComponentName()</text><ellipse cx="302" cy="624.3477" fill="#84BE84" rx="3" ry="3" style="stroke: #038048; stroke-width: 1.0;"/><text fill="#000000" font-family="sans-serif" font-size="11" lengthAdjust="spacingAndGlyphs" textLength="80" x="311" y="627.3486">void  addNotify()</text><ellipse cx="302" cy="638.1836" fill="#84BE84" rx="3" ry="3" style="stroke: #038048; stroke-width: 1.0;"/><text fill="#000000" font-family="sans-serif" font-size="11" lengthAdjust="spacingAndGlyphs" textLength="122" x="311" y="641.1846">java.lang.String  getTitle()</text><ellipse cx="302" cy="652.0195" fill="#84BE84" rx="3" ry="3" style="stroke: #038048; stroke-width: 1.0;"/><text fill="#000000" font-family="sans-serif" font-size="11" lengthAdjust="spacingAndGlyphs" textLength="142" x="311" y="655.0205">void  setTitle(java.lang.String)</text><ellipse cx="302" cy="665.8555" fill="#84BE84" rx="3" ry="3" style="stroke: #038048; stroke-width: 1.0;"/><text fill="#000000" font-family="sans-serif" font-size="11" lengthAdjust="spacingAndGlyphs" textLength="150" x="311" y="668.8564">java.awt.Image  getIconImage()</text><ellipse cx="302" cy="679.6914" fill="#84BE84" rx="3" ry="3" style="stroke: #038048; stroke-width: 1.0;"/><text fill="#000000" font-family="sans-serif" font-size="11" lengthAdjust="spacingAndGlyphs" textLength="170" x="311" y="682.6924">void  setIconImage(java.awt.Image)</text><ellipse cx="302" cy="693.5273" fill="#84BE84" rx="3" ry="3" style="stroke: #038048; stroke-width: 1.0;"/><text fill="#000000" font-family="sans-serif" font-size="11" lengthAdjust="spacingAndGlyphs" textLength="160" x="311" y="696.5283">java.awt.MenuBar  getMenuBar()</text><ellipse cx="302" cy="707.3633" fill="#84BE84" rx="3" ry="3" style="stroke: #038048; stroke-width: 1.0;"/><text fill="#000000" font-family="sans-serif" font-size="11" lengthAdjust="spacingAndGlyphs" textLength="180" x="311" y="710.3643">void  setMenuBar(java.awt.MenuBar)</text><ellipse cx="302" cy="721.1992" fill="#84BE84" rx="3" ry="3" style="stroke: #038048; stroke-width: 1.0;"/><text fill="#000000" font-family="sans-serif" font-size="11" lengthAdjust="spacingAndGlyphs" textLength="107" x="311" y="724.2002">boolean  isResizable()</text><ellipse cx="302" cy="735.0352" fill="#84BE84" rx="3" ry="3" style="stroke: #038048; stroke-width: 1.0;"/><text fill="#000000" font-family="sans-serif" font-size="11" lengthAdjust="spacingAndGlyphs" textLength="134" x="311" y="738.0361">void  setResizable(boolean)</text><ellipse cx="302" cy="748.8711" fill="#84BE84" rx="3" ry="3" style="stroke: #038048; stroke-width: 1.0;"/><text fill="#000000" font-family="sans-serif" font-size="11" lengthAdjust="spacingAndGlyphs" textLength="85" x="311" y="751.8721">void  setState(int)</text><ellipse cx="302" cy="762.707" fill="#84BE84" rx="3" ry="3" style="stroke: #038048; stroke-width: 1.0;"/><text fill="#000000" font-family="sans-serif" font-size="11" lengthAdjust="spacingAndGlyphs" textLength="130" x="311" y="765.708">void  setExtendedState(int)</text><rect fill="#F24D5C" height="6" style="stroke: #C82930; stroke-width: 1.0;" width="6" x="299" y="773.543"/><text fill="#000000" font-family="sans-serif" font-size="11" lengthAdjust="spacingAndGlyphs" textLength="176" x="311" y="779.5439">boolean  isFrameStateSupported(int)</text><ellipse cx="302" cy="790.3789" fill="#84BE84" rx="3" ry="3" style="stroke: #038048; stroke-width: 1.0;"/><text fill="#000000" font-family="sans-serif" font-size="11" lengthAdjust="spacingAndGlyphs" textLength="65" x="311" y="793.3799">int  getState()</text><ellipse cx="302" cy="804.2148" fill="#84BE84" rx="3" ry="3" style="stroke: #038048; stroke-width: 1.0;"/><text fill="#000000" font-family="sans-serif" font-size="11" lengthAdjust="spacingAndGlyphs" textLength="110" x="311" y="807.2158">int  getExtendedState()</text><ellipse cx="302" cy="818.0508" fill="#84BE84" rx="3" ry="3" style="stroke: #038048; stroke-width: 1.0;"/><text fill="#000000" font-family="sans-serif" font-size="11" lengthAdjust="spacingAndGlyphs" textLength="229" x="311" y="821.0518">void  setMaximizedBounds(java.awt.Rectangle)</text><ellipse cx="302" cy="831.8867" fill="#84BE84" rx="3" ry="3" style="stroke: #038048; stroke-width: 1.0;"/><text fill="#000000" font-family="sans-serif" font-size="11" lengthAdjust="spacingAndGlyphs" textLength="209" x="311" y="834.8877">java.awt.Rectangle  getMaximizedBounds()</text><ellipse cx="302" cy="845.7227" fill="#84BE84" rx="3" ry="3" style="stroke: #038048; stroke-width: 1.0;"/><text fill="#000000" font-family="sans-serif" font-size="11" lengthAdjust="spacingAndGlyphs" textLength="149" x="311" y="848.7236">void  setUndecorated(boolean)</text><ellipse cx="302" cy="859.5586" fill="#84BE84" rx="3" ry="3" style="stroke: #038048; stroke-width: 1.0;"/><text fill="#000000" font-family="sans-serif" font-size="11" lengthAdjust="spacingAndGlyphs" textLength="122" x="311" y="862.5596">boolean  isUndecorated()</text><ellipse cx="302" cy="873.3945" fill="#84BE84" rx="3" ry="3" style="stroke: #038048; stroke-width: 1.0;"/><text fill="#000000" font-family="sans-serif" font-size="11" lengthAdjust="spacingAndGlyphs" textLength="107" x="311" y="876.3955">void  setOpacity(float)</text><ellipse cx="302" cy="887.2305" fill="#84BE84" rx="3" ry="3" style="stroke: #038048; stroke-width: 1.0;"/><text fill="#000000" font-family="sans-serif" font-size="11" lengthAdjust="spacingAndGlyphs" textLength="156" x="311" y="890.2314">void  setShape(java.awt.Shape)</text><ellipse cx="302" cy="901.0664" fill="#84BE84" rx="3" ry="3" style="stroke: #038048; stroke-width: 1.0;"/><text fill="#000000" font-family="sans-serif" font-size="11" lengthAdjust="spacingAndGlyphs" textLength="177" x="311" y="904.0674">void  setBackground(java.awt.Color)</text><ellipse cx="302" cy="914.9023" fill="#84BE84" rx="3" ry="3" style="stroke: #038048; stroke-width: 1.0;"/><text fill="#000000" font-family="sans-serif" font-size="11" lengthAdjust="spacingAndGlyphs" textLength="195" x="311" y="917.9033">void  remove(java.awt.MenuComponent)</text><ellipse cx="302" cy="928.7383" fill="#84BE84" rx="3" ry="3" style="stroke: #038048; stroke-width: 1.0;"/><text fill="#000000" font-family="sans-serif" font-size="11" lengthAdjust="spacingAndGlyphs" textLength="98" x="311" y="931.7393">void  removeNotify()</text><ellipse cx="302" cy="942.5742" fill="#84BE84" rx="3" ry="3" style="stroke: #038048; stroke-width: 1.0;"/><text fill="#000000" font-family="sans-serif" font-size="11" lengthAdjust="spacingAndGlyphs" textLength="262" x="311" y="945.5752">void  postProcessKeyEvent(java.awt.event.KeyEvent)</text><polygon fill="#FFFF44" points="302,951.4102,306,955.4102,302,959.4102,298,955.4102" style="stroke: #B38D22; stroke-width: 1.0;"/><text fill="#000000" font-family="sans-serif" font-size="11" lengthAdjust="spacingAndGlyphs" textLength="146" x="311" y="959.4111">java.lang.String  paramString()</text><ellipse cx="302" cy="970.2461" fill="#84BE84" rx="3" ry="3" style="stroke: #038048; stroke-width: 1.0;"/><text fill="#000000" font-family="sans-serif" font-size="11" lengthAdjust="spacingAndGlyphs" textLength="93" x="311" y="973.2471">void  setCursor(int)</text><ellipse cx="302" cy="984.082" fill="#84BE84" rx="3" ry="3" style="stroke: #038048; stroke-width: 1.0;"/><text fill="#000000" font-family="sans-serif" font-size="11" lengthAdjust="spacingAndGlyphs" textLength="97" x="311" y="987.083">int  getCursorType()</text><ellipse cx="302" cy="997.918" fill="#84BE84" rx="3" ry="3" style="stroke: #038048; stroke-width: 1.0;"/><text fill="#000000" font-family="sans-serif" font-size="11" lengthAdjust="spacingAndGlyphs" text-decoration="underline" textLength="146" x="311" y="1000.9189">java.awt.Frame[]  getFrames()</text><line style="stroke: #000000; stroke-width: 1.0;" x1="311" x2="457" y1="1002.9189" y2="1002.9189"/><rect fill="#F24D5C" height="6" style="stroke: #C82930; stroke-width: 1.0;" width="6" x="299" y="1008.7539"/><text fill="#000000" font-family="sans-serif" font-size="11" lengthAdjust="spacingAndGlyphs" textLength="221" x="311" y="1014.7549">void  writeObject(java.io.ObjectOutputStream)</text><rect fill="#F24D5C" height="6" style="stroke: #C82930; stroke-width: 1.0;" width="6" x="299" y="1022.5898"/><text fill="#000000" font-family="sans-serif" font-size="11" lengthAdjust="spacingAndGlyphs" textLength="209" x="311" y="1028.5908">void  readObject(java.io.ObjectInputStream)</text><rect fill="#F24D5C" height="6" style="stroke: #C82930; stroke-width: 1.0;" width="6" x="299" y="1036.4258"/><text fill="#000000" font-family="sans-serif" font-size="11" lengthAdjust="spacingAndGlyphs" text-decoration="underline" textLength="62" x="311" y="1042.4268">void  initIDs()</text><line style="stroke: #000000; stroke-width: 1.0;" x1="311" x2="373" y1="1044.4268" y2="1044.4268"/><ellipse cx="302" cy="1053.2617" fill="#84BE84" rx="3" ry="3" style="stroke: #038048; stroke-width: 1.0;"/><text fill="#000000" font-family="sans-serif" font-size="11" lengthAdjust="spacingAndGlyphs" textLength="302" x="311" y="1056.2627">javax.accessibility.AccessibleContext  getAccessibleContext()</text><ellipse cx="302" cy="1067.0977" fill="#84BE84" rx="3" ry="3" style="stroke: #038048; stroke-width: 1.0;"/><text fill="#000000" font-family="sans-serif" font-size="11" lengthAdjust="spacingAndGlyphs" text-decoration="underline" textLength="177" x="311" y="1070.0986">int  access$002(java.awt.Frame, int)</text><line style="stroke: #000000; stroke-width: 1.0;" x1="311" x2="488" y1="1072.0986" y2="1072.0986"/><ellipse cx="302" cy="1080.9336" fill="#84BE84" rx="3" ry="3" style="stroke: #038048; stroke-width: 1.0;"/><text fill="#000000" font-family="sans-serif" font-size="11" lengthAdjust="spacingAndGlyphs" text-decoration="underline" textLength="160" x="311" y="1083.9346">int  access$000(java.awt.Frame)</text><line style="stroke: #000000; stroke-width: 1.0;" x1="311" x2="471" y1="1085.9346" y2="1085.9346"/><ellipse cx="302" cy="1094.7695" fill="#84BE84" rx="3" ry="3" style="stroke: #038048; stroke-width: 1.0;"/><text fill="#000000" font-family="sans-serif" font-size="11" lengthAdjust="spacingAndGlyphs" text-decoration="underline" textLength="67" x="311" y="1097.7705">void  &lt;clinit&gt;()</text><line style="stroke: #000000; stroke-width: 1.0;" x1="311" x2="378" y1="1099.7705" y2="1099.7705"/><!--class javax.swing.JFrame--><rect fill="#FEFECE" filter="url(#fb2dsvn0p1q9b)" height="629.1094" id="javax.swing.JFrame" style="stroke: #A80036; stroke-width: 1.5;" width="328" x="291" y="1225"/><ellipse cx="429.75" cy="1241" fill="#ADD1B2" rx="11" ry="11" style="stroke: #A80036; stroke-width: 1.0;"/><path d="M432.5156,1236.875 Q432.6719,1236.6563 432.8594,1236.5469 Q433.0469,1236.4375 433.2656,1236.4375 Q433.6406,1236.4375 433.875,1236.6953 Q434.1094,1236.9531 434.1094,1237.5625 L434.1094,1239.0156 Q434.1094,1239.625 433.875,1239.8906 Q433.6406,1240.1563 433.2656,1240.1563 Q432.9219,1240.1563 432.7188,1239.9531 Q432.5156,1239.7656 432.4063,1239.25 Q432.3594,1238.8906 432.1719,1238.7031 Q431.8438,1238.3281 431.2344,1238.1094 Q430.625,1237.8906 430,1237.8906 Q429.2344,1237.8906 428.6016,1238.2188 Q427.9688,1238.5469 427.4766,1239.2969 Q426.9844,1240.0469 426.9844,1241.0781 L426.9844,1242.1719 Q426.9844,1243.4063 427.875,1244.2266 Q428.7656,1245.0469 430.3594,1245.0469 Q431.2969,1245.0469 431.9531,1244.7969 Q432.3438,1244.6406 432.7656,1244.2031 Q433.0313,1243.9375 433.1797,1243.8594 Q433.3281,1243.7813 433.5313,1243.7813 Q433.8594,1243.7813 434.1172,1244.0391 Q434.375,1244.2969 434.375,1244.6406 Q434.375,1244.9844 434.0313,1245.3906 Q433.5313,1245.9688 432.7344,1246.2969 Q431.6563,1246.75 430.3594,1246.75 Q428.8438,1246.75 427.6406,1246.125 Q426.6563,1245.625 425.9688,1244.5547 Q425.2813,1243.4844 425.2813,1242.2031 L425.2813,1241.0469 Q425.2813,1239.7188 425.8984,1238.5703 Q426.5156,1237.4219 427.6094,1236.8047 Q428.7031,1236.1875 429.9375,1236.1875 Q430.6719,1236.1875 431.3203,1236.3516 Q431.9688,1236.5156 432.5156,1236.875 Z "/><text fill="#000000" font-family="sans-serif" font-size="12" lengthAdjust="spacingAndGlyphs" textLength="42" x="450.25" y="1245.9102">JFrame</text><line style="stroke: #A80036; stroke-width: 1.5;" x1="292" x2="618" y1="1257" y2="1257"/><ellipse cx="302" cy="1269.418" fill="none" rx="3" ry="3" style="stroke: #038048; stroke-width: 1.0;"/><text fill="#000000" font-family="sans-serif" font-size="11" lengthAdjust="spacingAndGlyphs" text-decoration="underline" textLength="119" x="311" y="1272.4189">final int EXIT_ON_CLOSE</text><line style="stroke: #000000; stroke-width: 1.0;" x1="311" x2="430" y1="1274.4189" y2="1274.4189"/><rect fill="none" height="6" style="stroke: #C82930; stroke-width: 1.0;" width="6" x="299" y="1280.2539"/><text fill="#000000" font-family="sans-serif" font-size="11" lengthAdjust="spacingAndGlyphs" text-decoration="underline" textLength="268" x="311" y="1286.2549">final java.lang.Object defaultLookAndFeelDecoratedKey</text><line style="stroke: #000000; stroke-width: 1.0;" x1="311" x2="579" y1="1288.2549" y2="1288.2549"/><rect fill="none" height="6" style="stroke: #C82930; stroke-width: 1.0;" width="6" x="299" y="1294.0898"/><text fill="#000000" font-family="sans-serif" font-size="11" lengthAdjust="spacingAndGlyphs" textLength="121" x="311" y="1300.0908">int defaultCloseOperation</text><rect fill="none" height="6" style="stroke: #C82930; stroke-width: 1.0;" width="6" x="299" y="1307.9258"/><text fill="#000000" font-family="sans-serif" font-size="11" lengthAdjust="spacingAndGlyphs" textLength="220" x="311" y="1313.9268">javax.swing.TransferHandler transferHandler</text><polygon fill="none" points="302,1319.7617,306,1323.7617,302,1327.7617,298,1323.7617" style="stroke: #B38D22; stroke-width: 1.0;"/><text fill="#000000" font-family="sans-serif" font-size="11" lengthAdjust="spacingAndGlyphs" textLength="159" x="311" y="1327.7627">javax.swing.JRootPane rootPane</text><polygon fill="none" points="302,1333.5977,306,1337.5977,302,1341.5977,298,1337.5977" style="stroke: #B38D22; stroke-width: 1.0;"/><text fill="#000000" font-family="sans-serif" font-size="11" lengthAdjust="spacingAndGlyphs" textLength="166" x="311" y="1341.5986">boolean rootPaneCheckingEnabled</text><polygon fill="none" points="302,1347.4336,306,1351.4336,302,1355.4336,298,1351.4336" style="stroke: #B38D22; stroke-width: 1.0;"/><text fill="#000000" font-family="sans-serif" font-size="11" lengthAdjust="spacingAndGlyphs" textLength="274" x="311" y="1355.4346">javax.accessibility.AccessibleContext accessibleContext</text><line style="stroke: #A80036; stroke-width: 1.5;" x1="292" x2="618" y1="1361.8516" y2="1361.8516"/><ellipse cx="302" cy="1374.2695" fill="#84BE84" rx="3" ry="3" style="stroke: #038048; stroke-width: 1.0;"/><text fill="#000000" font-family="sans-serif" font-size="11" lengthAdjust="spacingAndGlyphs" textLength="59" x="311" y="1377.2705">void  &lt;init&gt;()</text><ellipse cx="302" cy="1388.1055" fill="#84BE84" rx="3" ry="3" style="stroke: #038048; stroke-width: 1.0;"/><text fill="#000000" font-family="sans-serif" font-size="11" lengthAdjust="spacingAndGlyphs" textLength="212" x="311" y="1391.1064">void  &lt;init&gt;(java.awt.GraphicsConfiguration)</text><ellipse cx="302" cy="1401.9414" fill="#84BE84" rx="3" ry="3" style="stroke: #038048; stroke-width: 1.0;"/><text fill="#000000" font-family="sans-serif" font-size="11" lengthAdjust="spacingAndGlyphs" textLength="133" x="311" y="1404.9424">void  &lt;init&gt;(java.lang.String)</text><ellipse cx="302" cy="1415.7773" fill="#84BE84" rx="3" ry="3" style="stroke: #038048; stroke-width: 1.0;"/><text fill="#000000" font-family="sans-serif" font-size="11" lengthAdjust="spacingAndGlyphs" textLength="292" x="311" y="1418.7783">void  &lt;init&gt;(java.lang.String, java.awt.GraphicsConfiguration)</text><polygon fill="#FFFF44" points="302,1424.6133,306,1428.6133,302,1432.6133,298,1428.6133" style="stroke: #B38D22; stroke-width: 1.0;"/><text fill="#000000" font-family="sans-serif" font-size="11" lengthAdjust="spacingAndGlyphs" textLength="75" x="311" y="1432.6143">void  frameInit()</text><polygon fill="#FFFF44" points="302,1438.4492,306,1442.4492,302,1446.4492,298,1442.4492" style="stroke: #B38D22; stroke-width: 1.0;"/><text fill="#000000" font-family="sans-serif" font-size="11" lengthAdjust="spacingAndGlyphs" textLength="204" x="311" y="1446.4502">javax.swing.JRootPane  createRootPane()</text><polygon fill="#FFFF44" points="302,1452.2852,306,1456.2852,302,1460.2852,298,1456.2852" style="stroke: #B38D22; stroke-width: 1.0;"/><text fill="#000000" font-family="sans-serif" font-size="11" lengthAdjust="spacingAndGlyphs" textLength="283" x="311" y="1460.2861">void  processWindowEvent(java.awt.event.WindowEvent)</text><ellipse cx="302" cy="1471.1211" fill="#84BE84" rx="3" ry="3" style="stroke: #038048; stroke-width: 1.0;"/><text fill="#000000" font-family="sans-serif" font-size="11" lengthAdjust="spacingAndGlyphs" textLength="168" x="311" y="1474.1221">void  setDefaultCloseOperation(int)</text><ellipse cx="302" cy="1484.957" fill="#84BE84" rx="3" ry="3" style="stroke: #038048; stroke-width: 1.0;"/><text fill="#000000" font-family="sans-serif" font-size="11" lengthAdjust="spacingAndGlyphs" textLength="148" x="311" y="1487.958">int  getDefaultCloseOperation()</text><ellipse cx="302" cy="1498.793" fill="#84BE84" rx="3" ry="3" style="stroke: #038048; stroke-width: 1.0;"/><text fill="#000000" font-family="sans-serif" font-size="11" lengthAdjust="spacingAndGlyphs" textLength="269" x="311" y="1501.7939">void  setTransferHandler(javax.swing.TransferHandler)</text><ellipse cx="302" cy="1512.6289" fill="#84BE84" rx="3" ry="3" style="stroke: #038048; stroke-width: 1.0;"/><text fill="#000000" font-family="sans-serif" font-size="11" lengthAdjust="spacingAndGlyphs" textLength="249" x="311" y="1515.6299">javax.swing.TransferHandler  getTransferHandler()</text><ellipse cx="302" cy="1526.4648" fill="#84BE84" rx="3" ry="3" style="stroke: #038048; stroke-width: 1.0;"/><text fill="#000000" font-family="sans-serif" font-size="11" lengthAdjust="spacingAndGlyphs" textLength="156" x="311" y="1529.4658">void  update(java.awt.Graphics)</text><ellipse cx="302" cy="1540.3008" fill="#84BE84" rx="3" ry="3" style="stroke: #038048; stroke-width: 1.0;"/><text fill="#000000" font-family="sans-serif" font-size="11" lengthAdjust="spacingAndGlyphs" textLength="207" x="311" y="1543.3018">void  setJMenuBar(javax.swing.JMenuBar)</text><ellipse cx="302" cy="1554.1367" fill="#84BE84" rx="3" ry="3" style="stroke: #038048; stroke-width: 1.0;"/><text fill="#000000" font-family="sans-serif" font-size="11" lengthAdjust="spacingAndGlyphs" textLength="187" x="311" y="1557.1377">javax.swing.JMenuBar  getJMenuBar()</text><polygon fill="#FFFF44" points="302,1562.9727,306,1566.9727,302,1570.9727,298,1566.9727" style="stroke: #B38D22; stroke-width: 1.0;"/><text fill="#000000" font-family="sans-serif" font-size="11" lengthAdjust="spacingAndGlyphs" textLength="188" x="311" y="1570.9736">boolean  isRootPaneCheckingEnabled()</text><polygon fill="#FFFF44" points="302,1576.8086,306,1580.8086,302,1584.8086,298,1580.8086" style="stroke: #B38D22; stroke-width: 1.0;"/><text fill="#000000" font-family="sans-serif" font-size="11" lengthAdjust="spacingAndGlyphs" textLength="215" x="311" y="1584.8096">void  setRootPaneCheckingEnabled(boolean)</text><polygon fill="#FFFF44" points="302,1590.6445,306,1594.6445,302,1598.6445,298,1594.6445" style="stroke: #B38D22; stroke-width: 1.0;"/><text fill="#000000" font-family="sans-serif" font-size="11" lengthAdjust="spacingAndGlyphs" textLength="269" x="311" y="1598.6455">void  addImpl(java.awt.Component, java.lang.Object, int)</text><ellipse cx="302" cy="1609.4805" fill="#84BE84" rx="3" ry="3" style="stroke: #038048; stroke-width: 1.0;"/><text fill="#000000" font-family="sans-serif" font-size="11" lengthAdjust="spacingAndGlyphs" textLength="169" x="311" y="1612.4814">void  remove(java.awt.Component)</text><ellipse cx="302" cy="1623.3164" fill="#84BE84" rx="3" ry="3" style="stroke: #038048; stroke-width: 1.0;"/><text fill="#000000" font-family="sans-serif" font-size="11" lengthAdjust="spacingAndGlyphs" textLength="202" x="311" y="1626.3174">void  setLayout(java.awt.LayoutManager)</text><ellipse cx="302" cy="1637.1523" fill="#84BE84" rx="3" ry="3" style="stroke: #038048; stroke-width: 1.0;"/><text fill="#000000" font-family="sans-serif" font-size="11" lengthAdjust="spacingAndGlyphs" textLength="188" x="311" y="1640.1533">javax.swing.JRootPane  getRootPane()</text><polygon fill="#FFFF44" points="302,1645.9883,306,1649.9883,302,1653.9883,298,1649.9883" style="stroke: #B38D22; stroke-width: 1.0;"/><text fill="#000000" font-family="sans-serif" font-size="11" lengthAdjust="spacingAndGlyphs" textLength="208" x="311" y="1653.9893">void  setRootPane(javax.swing.JRootPane)</text><ellipse cx="302" cy="1664.8242" fill="#84BE84" rx="3" ry="3" style="stroke: #038048; stroke-width: 1.0;"/><text fill="#000000" font-family="sans-serif" font-size="11" lengthAdjust="spacingAndGlyphs" textLength="170" x="311" y="1667.8252">void  setIconImage(java.awt.Image)</text><ellipse cx="302" cy="1678.6602" fill="#84BE84" rx="3" ry="3" style="stroke: #038048; stroke-width: 1.0;"/><text fill="#000000" font-family="sans-serif" font-size="11" lengthAdjust="spacingAndGlyphs" textLength="181" x="311" y="1681.6611">java.awt.Container  getContentPane()</text><ellipse cx="302" cy="1692.4961" fill="#84BE84" rx="3" ry="3" style="stroke: #038048; stroke-width: 1.0;"/><text fill="#000000" font-family="sans-serif" font-size="11" lengthAdjust="spacingAndGlyphs" textLength="201" x="311" y="1695.4971">void  setContentPane(java.awt.Container)</text><ellipse cx="302" cy="1706.332" fill="#84BE84" rx="3" ry="3" style="stroke: #038048; stroke-width: 1.0;"/><text fill="#000000" font-family="sans-serif" font-size="11" lengthAdjust="spacingAndGlyphs" textLength="224" x="311" y="1709.333">javax.swing.JLayeredPane  getLayeredPane()</text><ellipse cx="302" cy="1720.168" fill="#84BE84" rx="3" ry="3" style="stroke: #038048; stroke-width: 1.0;"/><text fill="#000000" font-family="sans-serif" font-size="11" lengthAdjust="spacingAndGlyphs" textLength="244" x="311" y="1723.1689">void  setLayeredPane(javax.swing.JLayeredPane)</text><ellipse cx="302" cy="1734.0039" fill="#84BE84" rx="3" ry="3" style="stroke: #038048; stroke-width: 1.0;"/><text fill="#000000" font-family="sans-serif" font-size="11" lengthAdjust="spacingAndGlyphs" textLength="180" x="311" y="1737.0049">java.awt.Component  getGlassPane()</text><ellipse cx="302" cy="1747.8398" fill="#84BE84" rx="3" ry="3" style="stroke: #038048; stroke-width: 1.0;"/><text fill="#000000" font-family="sans-serif" font-size="11" lengthAdjust="spacingAndGlyphs" textLength="200" x="311" y="1750.8408">void  setGlassPane(java.awt.Component)</text><ellipse cx="302" cy="1761.6758" fill="#84BE84" rx="3" ry="3" style="stroke: #038048; stroke-width: 1.0;"/><text fill="#000000" font-family="sans-serif" font-size="11" lengthAdjust="spacingAndGlyphs" textLength="162" x="311" y="1764.6768">java.awt.Graphics  getGraphics()</text><ellipse cx="302" cy="1775.5117" fill="#84BE84" rx="3" ry="3" style="stroke: #038048; stroke-width: 1.0;"/><text fill="#000000" font-family="sans-serif" font-size="11" lengthAdjust="spacingAndGlyphs" textLength="155" x="311" y="1778.5127">void  repaint(long, int, int, int, int)</text><ellipse cx="302" cy="1789.3477" fill="#84BE84" rx="3" ry="3" style="stroke: #038048; stroke-width: 1.0;"/><text fill="#000000" font-family="sans-serif" font-size="11" lengthAdjust="spacingAndGlyphs" text-decoration="underline" textLength="234" x="311" y="1792.3486">void  setDefaultLookAndFeelDecorated(boolean)</text><line style="stroke: #000000; stroke-width: 1.0;" x1="311" x2="545" y1="1794.3486" y2="1794.3486"/><ellipse cx="302" cy="1803.1836" fill="#84BE84" rx="3" ry="3" style="stroke: #038048; stroke-width: 1.0;"/><text fill="#000000" font-family="sans-serif" font-size="11" lengthAdjust="spacingAndGlyphs" text-decoration="underline" textLength="207" x="311" y="1806.1846">boolean  isDefaultLookAndFeelDecorated()</text><line style="stroke: #000000; stroke-width: 1.0;" x1="311" x2="518" y1="1808.1846" y2="1808.1846"/><polygon fill="#FFFF44" points="302,1812.0195,306,1816.0195,302,1820.0195,298,1816.0195" style="stroke: #B38D22; stroke-width: 1.0;"/><text fill="#000000" font-family="sans-serif" font-size="11" lengthAdjust="spacingAndGlyphs" textLength="146" x="311" y="1820.0205">java.lang.String  paramString()</text><ellipse cx="302" cy="1830.8555" fill="#84BE84" rx="3" ry="3" style="stroke: #038048; stroke-width: 1.0;"/><text fill="#000000" font-family="sans-serif" font-size="11" lengthAdjust="spacingAndGlyphs" textLength="302" x="311" y="1833.8564">javax.accessibility.AccessibleContext  getAccessibleContext()</text><ellipse cx="302" cy="1844.6914" fill="#84BE84" rx="3" ry="3" style="stroke: #038048; stroke-width: 1.0;"/><text fill="#000000" font-family="sans-serif" font-size="11" lengthAdjust="spacingAndGlyphs" text-decoration="underline" textLength="67" x="311" y="1847.6924">void  &lt;clinit&gt;()</text><line style="stroke: #000000; stroke-width: 1.0;" x1="311" x2="378" y1="1849.6924" y2="1849.6924"/><!--link java.awt.Frame to javax.swing.JFrame--><path d="M455,1124.177 C455,1124.177 455,1224.75 455,1224.75 " fill="none" id="java.awt.Frame-javax.swing.JFrame" style="stroke: #A80036; stroke-width: 1.0;"/><polygon fill="none" points="448,1124.177,455,1104.177,462,1124.177,448,1124.177" style="stroke: #A80036; stroke-width: 1.0;"/></g></svg>