<?xml version="1.0" encoding="UTF-8" standalone="no"?><svg xmlns="http://www.w3.org/2000/svg" xmlns:xlink="http://www.w3.org/1999/xlink" contentScriptType="application/ecmascript" contentStyleType="text/css" height="641px" preserveAspectRatio="none" style="width:750px;height:641px;" version="1.1" viewBox="0 0 750 641" width="750px" zoomAndPan="magnify"><defs><filter height="300%" id="f8xunondwijws" width="300%" x="-1" y="-1"><feGaussianBlur result="blurOut" stdDeviation="2.0"/><feColorMatrix in="blurOut" result="blurOut2" type="matrix" values="0 0 0 0 0 0 0 0 0 0 0 0 0 0 0 0 0 0 .4 0"/><feOffset dx="4.0" dy="4.0" in="blurOut2" result="blurOut3"/><feBlend in="SourceGraphic" in2="blurOut3" mode="normal"/></filter></defs><g><!--cluster adapter--><polygon fill="#FFFFFF" filter="url(#f8xunondwijws)" points="22,24,82,24,89,47.6094,728,47.6094,728,629,22,629,22,24" style="stroke: #000000; stroke-width: 1.5;"/><line style="stroke: #000000; stroke-width: 1.5;" x1="22" x2="89" y1="47.6094" y2="47.6094"/><text fill="#000000" font-family="sans-serif" font-size="14" font-weight="bold" lengthAdjust="spacingAndGlyphs" textLength="54" x="26" y="40.5332">adapter</text><!--class adapter.ATarget--><rect fill="#FEFECE" filter="url(#f8xunondwijws)" height="103.3438" id="adapter.ATarget" style="stroke: #A80036; stroke-width: 1.5;" width="85" x="484.5" y="64.5"/><ellipse cx="504" cy="80.5" fill="#A9DCDF" rx="11" ry="11" style="stroke: #A80036; stroke-width: 1.0;"/><path d="M506.1875,82.2656 L502.0469,82.2656 L501.625,83.2969 L502.0469,83.2969 Q502.6563,83.2969 502.9219,83.5313 Q503.1875,83.7656 503.1875,84.1563 Q503.1875,84.5313 502.9219,84.7656 Q502.6563,85 502.0469,85 L499.75,85 Q499.1406,85 498.8828,84.7656 Q498.625,84.5313 498.625,84.1406 Q498.625,83.7656 498.8984,83.5234 Q499.1719,83.2813 499.7969,83.2969 L502.4688,76.6406 L501.3594,76.6406 Q500.75,76.6406 500.4844,76.4063 Q500.2188,76.1719 500.2188,75.7813 Q500.2188,75.4063 500.4844,75.1719 Q500.75,74.9375 501.3594,74.9375 L505.0313,74.9375 L508.4219,83.2969 Q509.0156,83.2969 509.2031,83.4375 Q509.5938,83.7031 509.5938,84.1563 Q509.5938,84.5313 509.3359,84.7656 Q509.0781,85 508.4688,85 L506.1719,85 Q505.5625,85 505.2969,84.7656 Q505.0313,84.5313 505.0313,84.1406 Q505.0313,83.7656 505.2969,83.5313 Q505.5625,83.2969 506.1719,83.2969 L506.5938,83.2969 L506.1875,82.2656 Z M505.4688,80.5625 L504.1094,77.1875 L502.7344,80.5625 L505.4688,80.5625 Z "/><text fill="#000000" font-family="sans-serif" font-size="12" font-style="italic" lengthAdjust="spacingAndGlyphs" textLength="43" x="519" y="85.4102">ATarget</text><line style="stroke: #A80036; stroke-width: 1.5;" x1="485.5" x2="568.5" y1="96.5" y2="96.5"/><line style="stroke: #A80036; stroke-width: 1.5;" x1="485.5" x2="568.5" y1="104.5" y2="104.5"/><ellipse cx="495.5" cy="116.918" fill="#84BE84" rx="3" ry="3" style="stroke: #038048; stroke-width: 1.0;"/><text fill="#000000" font-family="sans-serif" font-size="11" lengthAdjust="spacingAndGlyphs" textLength="59" x="504.5" y="119.9189">void  &lt;init&gt;()</text><ellipse cx="495.5" cy="130.7539" fill="#84BE84" rx="3" ry="3" style="stroke: #038048; stroke-width: 1.0;"/><text fill="#000000" font-family="sans-serif" font-size="11" font-style="italic" lengthAdjust="spacingAndGlyphs" textLength="49" x="504.5" y="133.7549">void  m1()</text><ellipse cx="495.5" cy="144.5898" fill="#84BE84" rx="3" ry="3" style="stroke: #038048; stroke-width: 1.0;"/><text fill="#000000" font-family="sans-serif" font-size="11" font-style="italic" lengthAdjust="spacingAndGlyphs" textLength="49" x="504.5" y="147.5908">void  m2()</text><ellipse cx="495.5" cy="158.4258" fill="#84BE84" rx="3" ry="3" style="stroke: #038048; stroke-width: 1.0;"/><text fill="#000000" font-family="sans-serif" font-size="11" lengthAdjust="spacingAndGlyphs" textLength="48" x="504.5" y="161.4268">void  m3()</text><!--class adapter.ITarget--><rect fill="#FF00FF" filter="url(#f8xunondwijws)" height="97.6953" id="adapter.ITarget" style="stroke: #A80036; stroke-width: 1.5;" width="77" x="372.5" y="67"/><ellipse cx="387.5" cy="87.0938" fill="#B4A7E5" rx="11" ry="11" style="stroke: #A80036; stroke-width: 1.0;"/><path d="M388.4531,83.7344 L388.4531,90.3906 L390.1719,90.3906 Q390.7813,90.3906 391.0469,90.625 Q391.3125,90.8594 391.3125,91.25 Q391.3125,91.625 391.0469,91.8594 Q390.7813,92.0938 390.1719,92.0938 L385.0313,92.0938 Q384.4219,92.0938 384.1563,91.8594 Q383.8906,91.625 383.8906,91.2344 Q383.8906,90.8594 384.1563,90.625 Q384.4219,90.3906 385.0313,90.3906 L386.75,90.3906 L386.75,83.7344 L385.0313,83.7344 Q384.4219,83.7344 384.1563,83.5 Q383.8906,83.2656 383.8906,82.875 Q383.8906,82.5 384.1563,82.2656 Q384.4219,82.0313 385.0313,82.0313 L390.1719,82.0313 Q390.7813,82.0313 391.0469,82.2656 Q391.3125,82.5 391.3125,82.875 Q391.3125,83.2656 391.0469,83.5 Q390.7813,83.7344 390.1719,83.7344 L388.4531,83.7344 Z "/><text fill="#000000" font-family="sans-serif" font-size="12" font-style="italic" lengthAdjust="spacingAndGlyphs" textLength="49" x="399.5" y="84.457">«Target»</text><text fill="#000000" font-family="sans-serif" font-size="12" font-style="italic" lengthAdjust="spacingAndGlyphs" textLength="39" x="404.5" y="99.5508">ITarget</text><line style="stroke: #A80036; stroke-width: 1.5;" x1="373.5" x2="448.5" y1="107.1875" y2="107.1875"/><line style="stroke: #A80036; stroke-width: 1.5;" x1="373.5" x2="448.5" y1="115.1875" y2="115.1875"/><ellipse cx="383.5" cy="127.6055" fill="#84BE84" rx="3" ry="3" style="stroke: #038048; stroke-width: 1.0;"/><text fill="#000000" font-family="sans-serif" font-size="11" font-style="italic" lengthAdjust="spacingAndGlyphs" textLength="49" x="392.5" y="130.6064">void  m1()</text><ellipse cx="383.5" cy="141.4414" fill="#84BE84" rx="3" ry="3" style="stroke: #038048; stroke-width: 1.0;"/><text fill="#000000" font-family="sans-serif" font-size="11" font-style="italic" lengthAdjust="spacingAndGlyphs" textLength="49" x="392.5" y="144.4424">void  m2()</text><ellipse cx="383.5" cy="155.2773" fill="#84BE84" rx="3" ry="3" style="stroke: #038048; stroke-width: 1.0;"/><text fill="#000000" font-family="sans-serif" font-size="11" font-style="italic" lengthAdjust="spacingAndGlyphs" textLength="49" x="392.5" y="158.2783">void  m3()</text><!--class adapter.Main--><rect fill="#FEFECE" filter="url(#f8xunondwijws)" height="75.6719" id="adapter.Main" style="stroke: #A80036; stroke-width: 1.5;" width="162" x="175" y="78"/><ellipse cx="238.75" cy="94" fill="#ADD1B2" rx="11" ry="11" style="stroke: #A80036; stroke-width: 1.0;"/><path d="M241.5156,89.875 Q241.6719,89.6563 241.8594,89.5469 Q242.0469,89.4375 242.2656,89.4375 Q242.6406,89.4375 242.875,89.6953 Q243.1094,89.9531 243.1094,90.5625 L243.1094,92.0156 Q243.1094,92.625 242.875,92.8906 Q242.6406,93.1563 242.2656,93.1563 Q241.9219,93.1563 241.7188,92.9531 Q241.5156,92.7656 241.4063,92.25 Q241.3594,91.8906 241.1719,91.7031 Q240.8438,91.3281 240.2344,91.1094 Q239.625,90.8906 239,90.8906 Q238.2344,90.8906 237.6016,91.2188 Q236.9688,91.5469 236.4766,92.2969 Q235.9844,93.0469 235.9844,94.0781 L235.9844,95.1719 Q235.9844,96.4063 236.875,97.2266 Q237.7656,98.0469 239.3594,98.0469 Q240.2969,98.0469 240.9531,97.7969 Q241.3438,97.6406 241.7656,97.2031 Q242.0313,96.9375 242.1797,96.8594 Q242.3281,96.7813 242.5313,96.7813 Q242.8594,96.7813 243.1172,97.0391 Q243.375,97.2969 243.375,97.6406 Q243.375,97.9844 243.0313,98.3906 Q242.5313,98.9688 241.7344,99.2969 Q240.6563,99.75 239.3594,99.75 Q237.8438,99.75 236.6406,99.125 Q235.6563,98.625 234.9688,97.5547 Q234.2813,96.4844 234.2813,95.2031 L234.2813,94.0469 Q234.2813,92.7188 234.8984,91.5703 Q235.5156,90.4219 236.6094,89.8047 Q237.7031,89.1875 238.9375,89.1875 Q239.6719,89.1875 240.3203,89.3516 Q240.9688,89.5156 241.5156,89.875 Z "/><text fill="#000000" font-family="sans-serif" font-size="12" lengthAdjust="spacingAndGlyphs" textLength="26" x="259.25" y="98.9102">Main</text><line style="stroke: #A80036; stroke-width: 1.5;" x1="176" x2="336" y1="110" y2="110"/><line style="stroke: #A80036; stroke-width: 1.5;" x1="176" x2="336" y1="118" y2="118"/><ellipse cx="186" cy="130.418" fill="#84BE84" rx="3" ry="3" style="stroke: #038048; stroke-width: 1.0;"/><text fill="#000000" font-family="sans-serif" font-size="11" lengthAdjust="spacingAndGlyphs" textLength="59" x="195" y="133.4189">void  &lt;init&gt;()</text><ellipse cx="186" cy="144.2539" fill="#84BE84" rx="3" ry="3" style="stroke: #038048; stroke-width: 1.0;"/><text fill="#000000" font-family="sans-serif" font-size="11" lengthAdjust="spacingAndGlyphs" text-decoration="underline" textLength="136" x="195" y="147.2549">void  main(java.lang.String[])</text><line style="stroke: #000000; stroke-width: 1.0;" x1="195" x2="331" y1="149.2549" y2="149.2549"/><!--class adapter.Adapter1--><rect fill="#FF00FF" filter="url(#f8xunondwijws)" height="125.3672" id="adapter.Adapter1" style="stroke: #A80036; stroke-width: 1.5;" width="173" x="136.5" y="312"/><ellipse cx="192.25" cy="332.0938" fill="#ADD1B2" rx="11" ry="11" style="stroke: #A80036; stroke-width: 1.0;"/><path d="M195.0156,327.9688 Q195.1719,327.75 195.3594,327.6406 Q195.5469,327.5313 195.7656,327.5313 Q196.1406,327.5313 196.375,327.7891 Q196.6094,328.0469 196.6094,328.6563 L196.6094,330.1094 Q196.6094,330.7188 196.375,330.9844 Q196.1406,331.25 195.7656,331.25 Q195.4219,331.25 195.2188,331.0469 Q195.0156,330.8594 194.9063,330.3438 Q194.8594,329.9844 194.6719,329.7969 Q194.3438,329.4219 193.7344,329.2031 Q193.125,328.9844 192.5,328.9844 Q191.7344,328.9844 191.1016,329.3125 Q190.4688,329.6406 189.9766,330.3906 Q189.4844,331.1406 189.4844,332.1719 L189.4844,333.2656 Q189.4844,334.5 190.375,335.3203 Q191.2656,336.1406 192.8594,336.1406 Q193.7969,336.1406 194.4531,335.8906 Q194.8438,335.7344 195.2656,335.2969 Q195.5313,335.0313 195.6797,334.9531 Q195.8281,334.875 196.0313,334.875 Q196.3594,334.875 196.6172,335.1328 Q196.875,335.3906 196.875,335.7344 Q196.875,336.0781 196.5313,336.4844 Q196.0313,337.0625 195.2344,337.3906 Q194.1563,337.8438 192.8594,337.8438 Q191.3438,337.8438 190.1406,337.2188 Q189.1563,336.7188 188.4688,335.6484 Q187.7813,334.5781 187.7813,333.2969 L187.7813,332.1406 Q187.7813,330.8125 188.3984,329.6641 Q189.0156,328.5156 190.1094,327.8984 Q191.2031,327.2813 192.4375,327.2813 Q193.1719,327.2813 193.8203,327.4453 Q194.4688,327.6094 195.0156,327.9688 Z "/><text fill="#000000" font-family="sans-serif" font-size="12" font-style="italic" lengthAdjust="spacingAndGlyphs" textLength="57" x="210.75" y="329.457">«Adapter»</text><text fill="#000000" font-family="sans-serif" font-size="12" lengthAdjust="spacingAndGlyphs" textLength="49" x="214.75" y="344.5508">Adapter1</text><line style="stroke: #A80036; stroke-width: 1.5;" x1="137.5" x2="308.5" y1="352.1875" y2="352.1875"/><polygon fill="none" points="147.5,360.6055,143.5,366.6055,151.5,366.6055" style="stroke: #1963A0; stroke-width: 1.0;"/><text fill="#000000" font-family="sans-serif" font-size="11" lengthAdjust="spacingAndGlyphs" textLength="97" x="156.5" y="367.6064">adapter.CAdaptee a</text><line style="stroke: #A80036; stroke-width: 1.5;" x1="137.5" x2="308.5" y1="374.0234" y2="374.0234"/><ellipse cx="147.5" cy="386.4414" fill="#84BE84" rx="3" ry="3" style="stroke: #038048; stroke-width: 1.0;"/><text fill="#000000" font-family="sans-serif" font-size="11" lengthAdjust="spacingAndGlyphs" textLength="147" x="156.5" y="389.4424">void  &lt;init&gt;(adapter.CAdaptee)</text><ellipse cx="147.5" cy="400.2773" fill="#84BE84" rx="3" ry="3" style="stroke: #038048; stroke-width: 1.0;"/><text fill="#000000" font-family="sans-serif" font-size="11" lengthAdjust="spacingAndGlyphs" textLength="48" x="156.5" y="403.2783">void  m1()</text><ellipse cx="147.5" cy="414.1133" fill="#84BE84" rx="3" ry="3" style="stroke: #038048; stroke-width: 1.0;"/><text fill="#000000" font-family="sans-serif" font-size="11" lengthAdjust="spacingAndGlyphs" textLength="48" x="156.5" y="417.1143">void  m2()</text><ellipse cx="147.5" cy="427.9492" fill="#84BE84" rx="3" ry="3" style="stroke: #038048; stroke-width: 1.0;"/><text fill="#000000" font-family="sans-serif" font-size="11" lengthAdjust="spacingAndGlyphs" textLength="48" x="156.5" y="430.9502">void  m3()</text><!--class adapter.CAdaptee--><rect fill="#FF00FF" filter="url(#f8xunondwijws)" height="97.6953" id="adapter.CAdaptee" style="stroke: #A80036; stroke-width: 1.5;" width="101" x="172.5" y="515"/><ellipse cx="193.35" cy="535.0938" fill="#ADD1B2" rx="11" ry="11" style="stroke: #A80036; stroke-width: 1.0;"/><path d="M196.1156,530.9688 Q196.2719,530.75 196.4594,530.6406 Q196.6469,530.5313 196.8656,530.5313 Q197.2406,530.5313 197.475,530.7891 Q197.7094,531.0469 197.7094,531.6563 L197.7094,533.1094 Q197.7094,533.7188 197.475,533.9844 Q197.2406,534.25 196.8656,534.25 Q196.5219,534.25 196.3188,534.0469 Q196.1156,533.8594 196.0063,533.3438 Q195.9594,532.9844 195.7719,532.7969 Q195.4438,532.4219 194.8344,532.2031 Q194.225,531.9844 193.6,531.9844 Q192.8344,531.9844 192.2016,532.3125 Q191.5688,532.6406 191.0766,533.3906 Q190.5844,534.1406 190.5844,535.1719 L190.5844,536.2656 Q190.5844,537.5 191.475,538.3203 Q192.3656,539.1406 193.9594,539.1406 Q194.8969,539.1406 195.5531,538.8906 Q195.9438,538.7344 196.3656,538.2969 Q196.6313,538.0313 196.7797,537.9531 Q196.9281,537.875 197.1313,537.875 Q197.4594,537.875 197.7172,538.1328 Q197.975,538.3906 197.975,538.7344 Q197.975,539.0781 197.6313,539.4844 Q197.1313,540.0625 196.3344,540.3906 Q195.2563,540.8438 193.9594,540.8438 Q192.4438,540.8438 191.2406,540.2188 Q190.2563,539.7188 189.5688,538.6484 Q188.8813,537.5781 188.8813,536.2969 L188.8813,535.1406 Q188.8813,533.8125 189.4984,532.6641 Q190.1156,531.5156 191.2094,530.8984 Q192.3031,530.2813 193.5375,530.2813 Q194.2719,530.2813 194.9203,530.4453 Q195.5688,530.6094 196.1156,530.9688 Z "/><text fill="#000000" font-family="sans-serif" font-size="12" font-style="italic" lengthAdjust="spacingAndGlyphs" textLength="60" x="206.65" y="532.457">«Adaptee»</text><text fill="#000000" font-family="sans-serif" font-size="12" lengthAdjust="spacingAndGlyphs" textLength="54" x="209.65" y="547.5508">CAdaptee</text><line style="stroke: #A80036; stroke-width: 1.5;" x1="173.5" x2="272.5" y1="555.1875" y2="555.1875"/><line style="stroke: #A80036; stroke-width: 1.5;" x1="173.5" x2="272.5" y1="563.1875" y2="563.1875"/><ellipse cx="183.5" cy="575.6055" fill="#84BE84" rx="3" ry="3" style="stroke: #038048; stroke-width: 1.0;"/><text fill="#000000" font-family="sans-serif" font-size="11" lengthAdjust="spacingAndGlyphs" textLength="59" x="192.5" y="578.6064">void  &lt;init&gt;()</text><ellipse cx="183.5" cy="589.4414" fill="#84BE84" rx="3" ry="3" style="stroke: #038048; stroke-width: 1.0;"/><text fill="#000000" font-family="sans-serif" font-size="11" lengthAdjust="spacingAndGlyphs" textLength="69" x="192.5" y="592.4424">void  method()</text><ellipse cx="183.5" cy="603.2773" fill="#84BE84" rx="3" ry="3" style="stroke: #038048; stroke-width: 1.0;"/><text fill="#000000" font-family="sans-serif" font-size="11" lengthAdjust="spacingAndGlyphs" textLength="75" x="192.5" y="606.2783">void  method2()</text><!--class adapter.CTarget--><rect fill="#7FFF00" filter="url(#f8xunondwijws)" height="111.5313" id="adapter.CTarget" style="stroke: #A80036; stroke-width: 1.5;" width="107" x="604.5" y="60"/><ellipse cx="619.5" cy="80.0938" fill="#ADD1B2" rx="11" ry="11" style="stroke: #A80036; stroke-width: 1.0;"/><path d="M622.2656,75.9688 Q622.4219,75.75 622.6094,75.6406 Q622.7969,75.5313 623.0156,75.5313 Q623.3906,75.5313 623.625,75.7891 Q623.8594,76.0469 623.8594,76.6563 L623.8594,78.1094 Q623.8594,78.7188 623.625,78.9844 Q623.3906,79.25 623.0156,79.25 Q622.6719,79.25 622.4688,79.0469 Q622.2656,78.8594 622.1563,78.3438 Q622.1094,77.9844 621.9219,77.7969 Q621.5938,77.4219 620.9844,77.2031 Q620.375,76.9844 619.75,76.9844 Q618.9844,76.9844 618.3516,77.3125 Q617.7188,77.6406 617.2266,78.3906 Q616.7344,79.1406 616.7344,80.1719 L616.7344,81.2656 Q616.7344,82.5 617.625,83.3203 Q618.5156,84.1406 620.1094,84.1406 Q621.0469,84.1406 621.7031,83.8906 Q622.0938,83.7344 622.5156,83.2969 Q622.7813,83.0313 622.9297,82.9531 Q623.0781,82.875 623.2813,82.875 Q623.6094,82.875 623.8672,83.1328 Q624.125,83.3906 624.125,83.7344 Q624.125,84.0781 623.7813,84.4844 Q623.2813,85.0625 622.4844,85.3906 Q621.4063,85.8438 620.1094,85.8438 Q618.5938,85.8438 617.3906,85.2188 Q616.4063,84.7188 615.7188,83.6484 Q615.0313,82.5781 615.0313,81.2969 L615.0313,80.1406 Q615.0313,78.8125 615.6484,77.6641 Q616.2656,76.5156 617.3594,75.8984 Q618.4531,75.2813 619.6875,75.2813 Q620.4219,75.2813 621.0703,75.4453 Q621.7188,75.6094 622.2656,75.9688 Z "/><text fill="#000000" font-family="sans-serif" font-size="12" font-style="italic" lengthAdjust="spacingAndGlyphs" textLength="79" x="631.5" y="77.457">«Component»</text><text fill="#000000" font-family="sans-serif" font-size="12" lengthAdjust="spacingAndGlyphs" textLength="44" x="649" y="92.5508">CTarget</text><line style="stroke: #A80036; stroke-width: 1.5;" x1="605.5" x2="710.5" y1="100.1875" y2="100.1875"/><line style="stroke: #A80036; stroke-width: 1.5;" x1="605.5" x2="710.5" y1="108.1875" y2="108.1875"/><ellipse cx="615.5" cy="120.6055" fill="#84BE84" rx="3" ry="3" style="stroke: #038048; stroke-width: 1.0;"/><text fill="#000000" font-family="sans-serif" font-size="11" lengthAdjust="spacingAndGlyphs" textLength="59" x="624.5" y="123.6064">void  &lt;init&gt;()</text><ellipse cx="615.5" cy="134.4414" fill="#84BE84" rx="3" ry="3" style="stroke: #038048; stroke-width: 1.0;"/><text fill="#000000" font-family="sans-serif" font-size="11" lengthAdjust="spacingAndGlyphs" textLength="48" x="624.5" y="137.4424">void  m1()</text><ellipse cx="615.5" cy="148.2773" fill="#84BE84" rx="3" ry="3" style="stroke: #038048; stroke-width: 1.0;"/><text fill="#000000" font-family="sans-serif" font-size="11" lengthAdjust="spacingAndGlyphs" textLength="48" x="624.5" y="151.2783">void  m2()</text><ellipse cx="615.5" cy="162.1133" fill="#84BE84" rx="3" ry="3" style="stroke: #038048; stroke-width: 1.0;"/><text fill="#000000" font-family="sans-serif" font-size="11" lengthAdjust="spacingAndGlyphs" textLength="48" x="624.5" y="165.1143">void  m3()</text><!--class adapter.BadAdapter1--><rect fill="#FEFECE" filter="url(#f8xunondwijws)" height="103.3438" id="adapter.BadAdapter1" style="stroke: #A80036; stroke-width: 1.5;" width="168" x="345" y="323"/><ellipse cx="389.25" cy="339" fill="#ADD1B2" rx="11" ry="11" style="stroke: #A80036; stroke-width: 1.0;"/><path d="M392.0156,334.875 Q392.1719,334.6563 392.3594,334.5469 Q392.5469,334.4375 392.7656,334.4375 Q393.1406,334.4375 393.375,334.6953 Q393.6094,334.9531 393.6094,335.5625 L393.6094,337.0156 Q393.6094,337.625 393.375,337.8906 Q393.1406,338.1563 392.7656,338.1563 Q392.4219,338.1563 392.2188,337.9531 Q392.0156,337.7656 391.9063,337.25 Q391.8594,336.8906 391.6719,336.7031 Q391.3438,336.3281 390.7344,336.1094 Q390.125,335.8906 389.5,335.8906 Q388.7344,335.8906 388.1016,336.2188 Q387.4688,336.5469 386.9766,337.2969 Q386.4844,338.0469 386.4844,339.0781 L386.4844,340.1719 Q386.4844,341.4063 387.375,342.2266 Q388.2656,343.0469 389.8594,343.0469 Q390.7969,343.0469 391.4531,342.7969 Q391.8438,342.6406 392.2656,342.2031 Q392.5313,341.9375 392.6797,341.8594 Q392.8281,341.7813 393.0313,341.7813 Q393.3594,341.7813 393.6172,342.0391 Q393.875,342.2969 393.875,342.6406 Q393.875,342.9844 393.5313,343.3906 Q393.0313,343.9688 392.2344,344.2969 Q391.1563,344.75 389.8594,344.75 Q388.3438,344.75 387.1406,344.125 Q386.1563,343.625 385.4688,342.5547 Q384.7813,341.4844 384.7813,340.2031 L384.7813,339.0469 Q384.7813,337.7188 385.3984,336.5703 Q386.0156,335.4219 387.1094,334.8047 Q388.2031,334.1875 389.4375,334.1875 Q390.1719,334.1875 390.8203,334.3516 Q391.4688,334.5156 392.0156,334.875 Z "/><text fill="#000000" font-family="sans-serif" font-size="12" lengthAdjust="spacingAndGlyphs" textLength="71" x="409.75" y="343.9102">BadAdapter1</text><line style="stroke: #A80036; stroke-width: 1.5;" x1="346" x2="512" y1="355" y2="355"/><polygon fill="none" points="356,363.418,352,369.418,360,369.418" style="stroke: #1963A0; stroke-width: 1.0;"/><text fill="#000000" font-family="sans-serif" font-size="11" lengthAdjust="spacingAndGlyphs" textLength="92" x="365" y="370.4189">adapter.IAdaptee a</text><line style="stroke: #A80036; stroke-width: 1.5;" x1="346" x2="512" y1="376.8359" y2="376.8359"/><ellipse cx="356" cy="389.2539" fill="#84BE84" rx="3" ry="3" style="stroke: #038048; stroke-width: 1.0;"/><text fill="#000000" font-family="sans-serif" font-size="11" lengthAdjust="spacingAndGlyphs" textLength="142" x="365" y="392.2549">void  &lt;init&gt;(adapter.IAdaptee)</text><ellipse cx="356" cy="403.0898" fill="#84BE84" rx="3" ry="3" style="stroke: #038048; stroke-width: 1.0;"/><text fill="#000000" font-family="sans-serif" font-size="11" lengthAdjust="spacingAndGlyphs" textLength="48" x="365" y="406.0908">void  m1()</text><ellipse cx="356" cy="416.9258" fill="#84BE84" rx="3" ry="3" style="stroke: #038048; stroke-width: 1.0;"/><text fill="#000000" font-family="sans-serif" font-size="11" lengthAdjust="spacingAndGlyphs" textLength="48" x="365" y="419.9268">void  m2()</text><!--class adapter.IAdaptee--><rect fill="#FEFECE" filter="url(#f8xunondwijws)" height="75.6719" id="adapter.IAdaptee" style="stroke: #A80036; stroke-width: 1.5;" width="102" x="378" y="526"/><ellipse cx="402" cy="542" fill="#B4A7E5" rx="11" ry="11" style="stroke: #A80036; stroke-width: 1.0;"/><path d="M402.9531,538.6406 L402.9531,545.2969 L404.6719,545.2969 Q405.2813,545.2969 405.5469,545.5313 Q405.8125,545.7656 405.8125,546.1563 Q405.8125,546.5313 405.5469,546.7656 Q405.2813,547 404.6719,547 L399.5313,547 Q398.9219,547 398.6563,546.7656 Q398.3906,546.5313 398.3906,546.1406 Q398.3906,545.7656 398.6563,545.5313 Q398.9219,545.2969 399.5313,545.2969 L401.25,545.2969 L401.25,538.6406 L399.5313,538.6406 Q398.9219,538.6406 398.6563,538.4063 Q398.3906,538.1719 398.3906,537.7813 Q398.3906,537.4063 398.6563,537.1719 Q398.9219,536.9375 399.5313,536.9375 L404.6719,536.9375 Q405.2813,536.9375 405.5469,537.1719 Q405.8125,537.4063 405.8125,537.7813 Q405.8125,538.1719 405.5469,538.4063 Q405.2813,538.6406 404.6719,538.6406 L402.9531,538.6406 Z "/><text fill="#000000" font-family="sans-serif" font-size="12" font-style="italic" lengthAdjust="spacingAndGlyphs" textLength="50" x="418" y="546.9102">IAdaptee</text><line style="stroke: #A80036; stroke-width: 1.5;" x1="379" x2="479" y1="558" y2="558"/><line style="stroke: #A80036; stroke-width: 1.5;" x1="379" x2="479" y1="566" y2="566"/><ellipse cx="389" cy="578.418" fill="#84BE84" rx="3" ry="3" style="stroke: #038048; stroke-width: 1.0;"/><text fill="#000000" font-family="sans-serif" font-size="11" font-style="italic" lengthAdjust="spacingAndGlyphs" textLength="70" x="398" y="581.4189">void  method()</text><ellipse cx="389" cy="592.2539" fill="#84BE84" rx="3" ry="3" style="stroke: #038048; stroke-width: 1.0;"/><text fill="#000000" font-family="sans-serif" font-size="11" font-style="italic" lengthAdjust="spacingAndGlyphs" textLength="76" x="398" y="595.2549">void  method2()</text><!--class adapter.BadAdapter2--><rect fill="#FEFECE" filter="url(#f8xunondwijws)" height="125.3672" id="adapter.BadAdapter2" style="stroke: #A80036; stroke-width: 1.5;" width="163" x="548.5" y="312"/><ellipse cx="582.4" cy="332.0938" fill="#ADD1B2" rx="11" ry="11" style="stroke: #A80036; stroke-width: 1.0;"/><path d="M585.1656,327.9688 Q585.3219,327.75 585.5094,327.6406 Q585.6969,327.5313 585.9156,327.5313 Q586.2906,327.5313 586.525,327.7891 Q586.7594,328.0469 586.7594,328.6563 L586.7594,330.1094 Q586.7594,330.7188 586.525,330.9844 Q586.2906,331.25 585.9156,331.25 Q585.5719,331.25 585.3688,331.0469 Q585.1656,330.8594 585.0563,330.3438 Q585.0094,329.9844 584.8219,329.7969 Q584.4938,329.4219 583.8844,329.2031 Q583.275,328.9844 582.65,328.9844 Q581.8844,328.9844 581.2516,329.3125 Q580.6188,329.6406 580.1266,330.3906 Q579.6344,331.1406 579.6344,332.1719 L579.6344,333.2656 Q579.6344,334.5 580.525,335.3203 Q581.4156,336.1406 583.0094,336.1406 Q583.9469,336.1406 584.6031,335.8906 Q584.9938,335.7344 585.4156,335.2969 Q585.6813,335.0313 585.8297,334.9531 Q585.9781,334.875 586.1813,334.875 Q586.5094,334.875 586.7672,335.1328 Q587.025,335.3906 587.025,335.7344 Q587.025,336.0781 586.6813,336.4844 Q586.1813,337.0625 585.3844,337.3906 Q584.3063,337.8438 583.0094,337.8438 Q581.4938,337.8438 580.2906,337.2188 Q579.3063,336.7188 578.6188,335.6484 Q577.9313,334.5781 577.9313,333.2969 L577.9313,332.1406 Q577.9313,330.8125 578.5484,329.6641 Q579.1656,328.5156 580.2594,327.8984 Q581.3531,327.2813 582.5875,327.2813 Q583.3219,327.2813 583.9703,327.4453 Q584.6188,327.6094 585.1656,327.9688 Z "/><text fill="#000000" font-family="sans-serif" font-size="12" font-style="italic" lengthAdjust="spacingAndGlyphs" textLength="93" x="598.6" y="329.457">«Bad Decorator»</text><text fill="#000000" font-family="sans-serif" font-size="12" lengthAdjust="spacingAndGlyphs" textLength="71" x="609.6" y="344.5508">BadAdapter2</text><line style="stroke: #A80036; stroke-width: 1.5;" x1="549.5" x2="710.5" y1="352.1875" y2="352.1875"/><polygon fill="none" points="559.5,360.6055,555.5,366.6055,563.5,366.6055" style="stroke: #1963A0; stroke-width: 1.0;"/><text fill="#000000" font-family="sans-serif" font-size="11" lengthAdjust="spacingAndGlyphs" textLength="84" x="568.5" y="367.6064">adapter.CTarget t</text><line style="stroke: #A80036; stroke-width: 1.5;" x1="549.5" x2="710.5" y1="374.0234" y2="374.0234"/><ellipse cx="559.5" cy="386.4414" fill="#84BE84" rx="3" ry="3" style="stroke: #038048; stroke-width: 1.0;"/><text fill="#000000" font-family="sans-serif" font-size="11" lengthAdjust="spacingAndGlyphs" textLength="137" x="568.5" y="389.4424">void  &lt;init&gt;(adapter.CTarget)</text><ellipse cx="559.5" cy="400.2773" fill="#84BE84" rx="3" ry="3" style="stroke: #038048; stroke-width: 1.0;"/><text fill="#000000" font-family="sans-serif" font-size="11" lengthAdjust="spacingAndGlyphs" textLength="48" x="568.5" y="403.2783">void  m1()</text><ellipse cx="559.5" cy="414.1133" fill="#84BE84" rx="3" ry="3" style="stroke: #038048; stroke-width: 1.0;"/><text fill="#000000" font-family="sans-serif" font-size="11" lengthAdjust="spacingAndGlyphs" textLength="48" x="568.5" y="417.1143">void  m2()</text><ellipse cx="559.5" cy="427.9492" fill="#84BE84" rx="3" ry="3" style="stroke: #038048; stroke-width: 1.0;"/><text fill="#FF0000" font-family="sans-serif" font-size="11" lengthAdjust="spacingAndGlyphs" textLength="48" x="568.5" y="430.9502">void  m3()</text><!--class adapter.AAdaptee--><rect fill="#FEFECE" filter="url(#f8xunondwijws)" height="89.5078" id="adapter.AAdaptee" style="stroke: #A80036; stroke-width: 1.5;" width="101" x="38.5" y="71"/><ellipse cx="60.25" cy="87" fill="#A9DCDF" rx="11" ry="11" style="stroke: #A80036; stroke-width: 1.0;"/><path d="M62.4375,88.7656 L58.2969,88.7656 L57.875,89.7969 L58.2969,89.7969 Q58.9063,89.7969 59.1719,90.0313 Q59.4375,90.2656 59.4375,90.6563 Q59.4375,91.0313 59.1719,91.2656 Q58.9063,91.5 58.2969,91.5 L56,91.5 Q55.3906,91.5 55.1328,91.2656 Q54.875,91.0313 54.875,90.6406 Q54.875,90.2656 55.1484,90.0234 Q55.4219,89.7813 56.0469,89.7969 L58.7188,83.1406 L57.6094,83.1406 Q57,83.1406 56.7344,82.9063 Q56.4688,82.6719 56.4688,82.2813 Q56.4688,81.9063 56.7344,81.6719 Q57,81.4375 57.6094,81.4375 L61.2813,81.4375 L64.6719,89.7969 Q65.2656,89.7969 65.4531,89.9375 Q65.8438,90.2031 65.8438,90.6563 Q65.8438,91.0313 65.5859,91.2656 Q65.3281,91.5 64.7188,91.5 L62.4219,91.5 Q61.8125,91.5 61.5469,91.2656 Q61.2813,91.0313 61.2813,90.6406 Q61.2813,90.2656 61.5469,90.0313 Q61.8125,89.7969 62.4219,89.7969 L62.8438,89.7969 L62.4375,88.7656 Z M61.7188,87.0625 L60.3594,83.6875 L58.9844,87.0625 L61.7188,87.0625 Z "/><text fill="#000000" font-family="sans-serif" font-size="12" font-style="italic" lengthAdjust="spacingAndGlyphs" textLength="54" x="75.75" y="91.9102">AAdaptee</text><line style="stroke: #A80036; stroke-width: 1.5;" x1="39.5" x2="138.5" y1="103" y2="103"/><line style="stroke: #A80036; stroke-width: 1.5;" x1="39.5" x2="138.5" y1="111" y2="111"/><ellipse cx="49.5" cy="123.418" fill="#84BE84" rx="3" ry="3" style="stroke: #038048; stroke-width: 1.0;"/><text fill="#000000" font-family="sans-serif" font-size="11" lengthAdjust="spacingAndGlyphs" textLength="59" x="58.5" y="126.4189">void  &lt;init&gt;()</text><ellipse cx="49.5" cy="137.2539" fill="#84BE84" rx="3" ry="3" style="stroke: #038048; stroke-width: 1.0;"/><text fill="#000000" font-family="sans-serif" font-size="11" font-style="italic" lengthAdjust="spacingAndGlyphs" textLength="70" x="58.5" y="140.2549">void  method()</text><ellipse cx="49.5" cy="151.0898" fill="#84BE84" rx="3" ry="3" style="stroke: #038048; stroke-width: 1.0;"/><text fill="#000000" font-family="sans-serif" font-size="11" lengthAdjust="spacingAndGlyphs" textLength="75" x="58.5" y="154.0908">void  method2()</text><!--link adapter.ITarget to adapter.Adapter1--><path d="M411,185.156 C411,185.156 411,318 411,318 C411,318 358.912,318 309.571,318 " fill="none" id="adapter.ITarget-adapter.Adapter1" style="stroke: #A80036; stroke-width: 1.0; stroke-dasharray: 7.0,7.0;"/><polygon fill="none" points="404,185.156,411,165.156,418,185.156,404,185.156" style="stroke: #A80036; stroke-width: 1.0;"/><!--link adapter.Adapter1 to adapter.CAdaptee--><path d="M223,437.075 C223,437.075 223,509.992 223,509.992 " fill="none" id="adapter.Adapter1-adapter.CAdaptee" style="stroke: #A80036; stroke-width: 1.0;"/><polygon fill="#A80036" points="223,514.992,227,505.992,223,509.992,219,505.992,223,514.992" style="stroke: #A80036; stroke-width: 1.0;"/><text fill="#000000" font-family="sans-serif" font-size="13" lengthAdjust="spacingAndGlyphs" textLength="53" x="224" y="481.4951">«adapts»</text><!--link adapter.ATarget to adapter.BadAdapter1--><path d="M498.75,187.69 C498.75,187.69 498.75,322.9 498.75,322.9 " fill="none" id="adapter.ATarget-adapter.BadAdapter1" style="stroke: #A80036; stroke-width: 1.0;"/><polygon fill="none" points="491.75,187.69,498.75,167.69,505.75,187.69,491.75,187.69" style="stroke: #A80036; stroke-width: 1.0;"/><!--link adapter.BadAdapter1 to adapter.IAdaptee--><path d="M429,426.282 C429,426.282 429,520.809 429,520.809 " fill="none" id="adapter.BadAdapter1-adapter.IAdaptee" style="stroke: #A80036; stroke-width: 1.0;"/><polygon fill="#A80036" points="429,525.809,433,516.809,429,520.809,425,516.809,429,525.809" style="stroke: #A80036; stroke-width: 1.0;"/><!--link adapter.CTarget to adapter.BadAdapter2--><path d="M675.833,192.091 C675.833,192.091 675.833,311.716 675.833,311.716 " fill="none" id="adapter.CTarget-adapter.BadAdapter2" style="stroke: #A80036; stroke-width: 1.0;"/><polygon fill="none" points="668.833,192.091,675.833,172.091,682.833,192.091,668.833,192.091" style="stroke: #A80036; stroke-width: 1.0;"/><!--link adapter.BadAdapter2 to adapter.CTarget--><path d="M640.167,311.924 C640.167,311.924 640.167,177.275 640.167,177.275 " fill="none" id="adapter.BadAdapter2-adapter.CTarget" style="stroke: #A80036; stroke-width: 1.0;"/><polygon fill="#A80036" points="640.167,172.275,636.167,181.275,640.167,177.275,644.167,181.275,640.167,172.275" style="stroke: #A80036; stroke-width: 1.0;"/><text fill="#000000" font-family="sans-serif" font-size="13" lengthAdjust="spacingAndGlyphs" textLength="71" x="640" y="247.4951">«decorates»</text></g></svg>