<?xml version="1.0" encoding="UTF-8" standalone="no"?><svg xmlns="http://www.w3.org/2000/svg" xmlns:xlink="http://www.w3.org/1999/xlink" contentScriptType="application/ecmascript" contentStyleType="text/css" height="851px" preserveAspectRatio="none" style="width:238px;height:851px;" version="1.1" viewBox="0 0 238 851" width="238px" zoomAndPan="magnify"><defs><filter height="300%" id="f13il06s5rafn1" width="300%" x="-1" y="-1"><feGaussianBlur result="blurOut" stdDeviation="2.0"/><feColorMatrix in="blurOut" result="blurOut2" type="matrix" values="0 0 0 0 0 0 0 0 0 0 0 0 0 0 0 0 0 0 .4 0"/><feOffset dx="4.0" dy="4.0" in="blurOut2" result="blurOut3"/><feBlend in="SourceGraphic" in2="blurOut3" mode="normal"/></filter></defs><g><!--cluster dip--><polygon fill="#FFFFFF" filter="url(#f13il06s5rafn1)" points="22,24,50,24,57,47.6094,216,47.6094,216,839,22,839,22,24" style="stroke: #000000; stroke-width: 1.5;"/><line style="stroke: #000000; stroke-width: 1.5;" x1="22" x2="57" y1="47.6094" y2="47.6094"/><text fill="#000000" font-family="sans-serif" font-size="14" font-weight="bold" lengthAdjust="spacingAndGlyphs" textLength="22" x="26" y="40.5332">dip</text><!--class dip.AbstractBoi--><rect fill="#FEFECE" filter="url(#f13il06s5rafn1)" height="103.3438" id="dip.AbstractBoi" style="stroke: #A80036; stroke-width: 1.5;" width="136" x="51" y="271"/><ellipse cx="84.45" cy="287" fill="#A9DCDF" rx="11" ry="11" style="stroke: #A80036; stroke-width: 1.0;"/><path d="M86.6375,288.7656 L82.4969,288.7656 L82.075,289.7969 L82.4969,289.7969 Q83.1063,289.7969 83.3719,290.0313 Q83.6375,290.2656 83.6375,290.6563 Q83.6375,291.0313 83.3719,291.2656 Q83.1063,291.5 82.4969,291.5 L80.2,291.5 Q79.5906,291.5 79.3328,291.2656 Q79.075,291.0313 79.075,290.6406 Q79.075,290.2656 79.3484,290.0234 Q79.6219,289.7813 80.2469,289.7969 L82.9188,283.1406 L81.8094,283.1406 Q81.2,283.1406 80.9344,282.9063 Q80.6688,282.6719 80.6688,282.2813 Q80.6688,281.9063 80.9344,281.6719 Q81.2,281.4375 81.8094,281.4375 L85.4813,281.4375 L88.8719,289.7969 Q89.4656,289.7969 89.6531,289.9375 Q90.0438,290.2031 90.0438,290.6563 Q90.0438,291.0313 89.7859,291.2656 Q89.5281,291.5 88.9188,291.5 L86.6219,291.5 Q86.0125,291.5 85.7469,291.2656 Q85.4813,291.0313 85.4813,290.6406 Q85.4813,290.2656 85.7469,290.0313 Q86.0125,289.7969 86.6219,289.7969 L87.0438,289.7969 L86.6375,288.7656 Z M85.9188,287.0625 L84.5594,283.6875 L83.1844,287.0625 L85.9188,287.0625 Z "/><text fill="#000000" font-family="sans-serif" font-size="12" font-style="italic" lengthAdjust="spacingAndGlyphs" textLength="63" x="102.55" y="291.9102">AbstractBoi</text><line style="stroke: #A80036; stroke-width: 1.5;" x1="52" x2="186" y1="303" y2="303"/><line style="stroke: #A80036; stroke-width: 1.5;" x1="52" x2="186" y1="311" y2="311"/><ellipse cx="62" cy="323.418" fill="#84BE84" rx="3" ry="3" style="stroke: #038048; stroke-width: 1.0;"/><text fill="#000000" font-family="sans-serif" font-size="11" lengthAdjust="spacingAndGlyphs" textLength="59" x="71" y="326.4189">void  &lt;init&gt;()</text><ellipse cx="62" cy="337.2539" fill="#84BE84" rx="3" ry="3" style="stroke: #038048; stroke-width: 1.0;"/><text fill="#000000" font-family="sans-serif" font-size="11" font-style="italic" lengthAdjust="spacingAndGlyphs" textLength="52" x="71" y="340.2549">void  doIt()</text><ellipse cx="62" cy="351.0898" fill="#84BE84" rx="3" ry="3" style="stroke: #038048; stroke-width: 1.0;"/><text fill="#000000" font-family="sans-serif" font-size="11" lengthAdjust="spacingAndGlyphs" textLength="93" x="71" y="354.0908">void  connorBade()</text><ellipse cx="62" cy="364.9258" fill="#84BE84" rx="3" ry="3" style="stroke: #038048; stroke-width: 1.0;"/><text fill="#000000" font-family="sans-serif" font-size="11" font-style="italic" lengthAdjust="spacingAndGlyphs" textLength="110" x="71" y="367.9268">void  notConnorBade()</text><!--class dip.InterfaceBoi--><rect fill="#FEFECE" filter="url(#f13il06s5rafn1)" height="89.5078" id="dip.InterfaceBoi" style="stroke: #A80036; stroke-width: 1.5;" width="136" x="51" y="60"/><ellipse cx="83.1" cy="76" fill="#B4A7E5" rx="11" ry="11" style="stroke: #A80036; stroke-width: 1.0;"/><path d="M84.0531,72.6406 L84.0531,79.2969 L85.7719,79.2969 Q86.3813,79.2969 86.6469,79.5313 Q86.9125,79.7656 86.9125,80.1563 Q86.9125,80.5313 86.6469,80.7656 Q86.3813,81 85.7719,81 L80.6313,81 Q80.0219,81 79.7563,80.7656 Q79.4906,80.5313 79.4906,80.1406 Q79.4906,79.7656 79.7563,79.5313 Q80.0219,79.2969 80.6313,79.2969 L82.35,79.2969 L82.35,72.6406 L80.6313,72.6406 Q80.0219,72.6406 79.7563,72.4063 Q79.4906,72.1719 79.4906,71.7813 Q79.4906,71.4063 79.7563,71.1719 Q80.0219,70.9375 80.6313,70.9375 L85.7719,70.9375 Q86.3813,70.9375 86.6469,71.1719 Q86.9125,71.4063 86.9125,71.7813 Q86.9125,72.1719 86.6469,72.4063 Q86.3813,72.6406 85.7719,72.6406 L84.0531,72.6406 Z "/><text fill="#000000" font-family="sans-serif" font-size="12" font-style="italic" lengthAdjust="spacingAndGlyphs" textLength="66" x="100.9" y="80.9102">InterfaceBoi</text><line style="stroke: #A80036; stroke-width: 1.5;" x1="52" x2="186" y1="92" y2="92"/><line style="stroke: #A80036; stroke-width: 1.5;" x1="52" x2="186" y1="100" y2="100"/><ellipse cx="62" cy="112.418" fill="#84BE84" rx="3" ry="3" style="stroke: #038048; stroke-width: 1.0;"/><text fill="#000000" font-family="sans-serif" font-size="11" font-style="italic" lengthAdjust="spacingAndGlyphs" textLength="52" x="71" y="115.4189">void  doIt()</text><ellipse cx="62" cy="126.2539" fill="#84BE84" rx="3" ry="3" style="stroke: #038048; stroke-width: 1.0;"/><text fill="#000000" font-family="sans-serif" font-size="11" font-style="italic" lengthAdjust="spacingAndGlyphs" textLength="93" x="71" y="129.2549">void  connorBade()</text><ellipse cx="62" cy="140.0898" fill="#84BE84" rx="3" ry="3" style="stroke: #038048; stroke-width: 1.0;"/><text fill="#000000" font-family="sans-serif" font-size="11" font-style="italic" lengthAdjust="spacingAndGlyphs" textLength="110" x="71" y="143.0908">void  notConnorBade()</text><!--class dip.ConcreteInheritanceBoi--><rect fill="#FEFECE" filter="url(#f13il06s5rafn1)" height="75.6719" id="dip.ConcreteInheritanceBoi" style="stroke: #A80036; stroke-width: 1.5;" width="161" x="38.5" y="747"/><ellipse cx="53.5" cy="763" fill="#ADD1B2" rx="11" ry="11" style="stroke: #A80036; stroke-width: 1.0;"/><path d="M56.2656,758.875 Q56.4219,758.6563 56.6094,758.5469 Q56.7969,758.4375 57.0156,758.4375 Q57.3906,758.4375 57.625,758.6953 Q57.8594,758.9531 57.8594,759.5625 L57.8594,761.0156 Q57.8594,761.625 57.625,761.8906 Q57.3906,762.1563 57.0156,762.1563 Q56.6719,762.1563 56.4688,761.9531 Q56.2656,761.7656 56.1563,761.25 Q56.1094,760.8906 55.9219,760.7031 Q55.5938,760.3281 54.9844,760.1094 Q54.375,759.8906 53.75,759.8906 Q52.9844,759.8906 52.3516,760.2188 Q51.7188,760.5469 51.2266,761.2969 Q50.7344,762.0469 50.7344,763.0781 L50.7344,764.1719 Q50.7344,765.4063 51.625,766.2266 Q52.5156,767.0469 54.1094,767.0469 Q55.0469,767.0469 55.7031,766.7969 Q56.0938,766.6406 56.5156,766.2031 Q56.7813,765.9375 56.9297,765.8594 Q57.0781,765.7813 57.2813,765.7813 Q57.6094,765.7813 57.8672,766.0391 Q58.125,766.2969 58.125,766.6406 Q58.125,766.9844 57.7813,767.3906 Q57.2813,767.9688 56.4844,768.2969 Q55.4063,768.75 54.1094,768.75 Q52.5938,768.75 51.3906,768.125 Q50.4063,767.625 49.7188,766.5547 Q49.0313,765.4844 49.0313,764.2031 L49.0313,763.0469 Q49.0313,761.7188 49.6484,760.5703 Q50.2656,759.4219 51.3594,758.8047 Q52.4531,758.1875 53.6875,758.1875 Q54.4219,758.1875 55.0703,758.3516 Q55.7188,758.5156 56.2656,758.875 Z "/><text fill="#000000" font-family="sans-serif" font-size="12" lengthAdjust="spacingAndGlyphs" textLength="129" x="67.5" y="767.9102">ConcreteInheritanceBoi</text><line style="stroke: #A80036; stroke-width: 1.5;" x1="39.5" x2="198.5" y1="779" y2="779"/><line style="stroke: #A80036; stroke-width: 1.5;" x1="39.5" x2="198.5" y1="787" y2="787"/><ellipse cx="49.5" cy="799.418" fill="#84BE84" rx="3" ry="3" style="stroke: #038048; stroke-width: 1.0;"/><text fill="#000000" font-family="sans-serif" font-size="11" lengthAdjust="spacingAndGlyphs" textLength="59" x="58.5" y="802.4189">void  &lt;init&gt;()</text><ellipse cx="49.5" cy="813.2539" fill="#84BE84" rx="3" ry="3" style="stroke: #038048; stroke-width: 1.0;"/><text fill="#000000" font-family="sans-serif" font-size="11" lengthAdjust="spacingAndGlyphs" textLength="93" x="58.5" y="816.2549">void  connorBade()</text><!--class dip.ConcreteBoi--><rect fill="#FEFECE" filter="url(#f13il06s5rafn1)" height="131.0156" id="dip.ConcreteBoi" style="stroke: #A80036; stroke-width: 1.5;" width="162" x="38" y="495"/><ellipse cx="80.9" cy="511" fill="#ADD1B2" rx="11" ry="11" style="stroke: #A80036; stroke-width: 1.0;"/><path d="M83.6656,506.875 Q83.8219,506.6563 84.0094,506.5469 Q84.1969,506.4375 84.4156,506.4375 Q84.7906,506.4375 85.025,506.6953 Q85.2594,506.9531 85.2594,507.5625 L85.2594,509.0156 Q85.2594,509.625 85.025,509.8906 Q84.7906,510.1563 84.4156,510.1563 Q84.0719,510.1563 83.8688,509.9531 Q83.6656,509.7656 83.5563,509.25 Q83.5094,508.8906 83.3219,508.7031 Q82.9938,508.3281 82.3844,508.1094 Q81.775,507.8906 81.15,507.8906 Q80.3844,507.8906 79.7516,508.2188 Q79.1188,508.5469 78.6266,509.2969 Q78.1344,510.0469 78.1344,511.0781 L78.1344,512.1719 Q78.1344,513.4063 79.025,514.2266 Q79.9156,515.0469 81.5094,515.0469 Q82.4469,515.0469 83.1031,514.7969 Q83.4938,514.6406 83.9156,514.2031 Q84.1813,513.9375 84.3297,513.8594 Q84.4781,513.7813 84.6813,513.7813 Q85.0094,513.7813 85.2672,514.0391 Q85.525,514.2969 85.525,514.6406 Q85.525,514.9844 85.1813,515.3906 Q84.6813,515.9688 83.8844,516.2969 Q82.8063,516.75 81.5094,516.75 Q79.9938,516.75 78.7906,516.125 Q77.8063,515.625 77.1188,514.5547 Q76.4313,513.4844 76.4313,512.2031 L76.4313,511.0469 Q76.4313,509.7188 77.0484,508.5703 Q77.6656,507.4219 78.7594,506.8047 Q79.8531,506.1875 81.0875,506.1875 Q81.8219,506.1875 82.4703,506.3516 Q83.1188,506.5156 83.6656,506.875 Z "/><text fill="#000000" font-family="sans-serif" font-size="12" lengthAdjust="spacingAndGlyphs" textLength="68" x="101.1" y="515.9102">ConcreteBoi</text><line style="stroke: #A80036; stroke-width: 1.5;" x1="39" x2="199" y1="527" y2="527"/><polygon fill="none" points="49,535.418,45,541.418,53,541.418" style="stroke: #1963A0; stroke-width: 1.0;"/><text fill="#000000" font-family="sans-serif" font-size="11" lengthAdjust="spacingAndGlyphs" textLength="97" x="58" y="542.4189">dip.AbstractBoi aboi</text><line style="stroke: #A80036; stroke-width: 1.5;" x1="39" x2="199" y1="548.8359" y2="548.8359"/><ellipse cx="49" cy="561.2539" fill="#84BE84" rx="3" ry="3" style="stroke: #038048; stroke-width: 1.0;"/><text fill="#000000" font-family="sans-serif" font-size="11" lengthAdjust="spacingAndGlyphs" textLength="59" x="58" y="564.2549">void  &lt;init&gt;()</text><ellipse cx="49" cy="575.0898" fill="#84BE84" rx="3" ry="3" style="stroke: #038048; stroke-width: 1.0;"/><text fill="#000000" font-family="sans-serif" font-size="11" lengthAdjust="spacingAndGlyphs" textLength="51" x="58" y="578.0908">void  doIt()</text><ellipse cx="49" cy="588.9258" fill="#84BE84" rx="3" ry="3" style="stroke: #038048; stroke-width: 1.0;"/><text fill="#000000" font-family="sans-serif" font-size="11" lengthAdjust="spacingAndGlyphs" textLength="109" x="58" y="591.9268">void  notConnorBade()</text><ellipse cx="49" cy="602.7617" fill="#84BE84" rx="3" ry="3" style="stroke: #038048; stroke-width: 1.0;"/><text fill="#000000" font-family="sans-serif" font-size="11" lengthAdjust="spacingAndGlyphs" textLength="70" x="58" y="605.7627">void  hehehe()</text><ellipse cx="49" cy="616.5977" fill="#84BE84" rx="3" ry="3" style="stroke: #038048; stroke-width: 1.0;"/><text fill="#000000" font-family="sans-serif" font-size="11" lengthAdjust="spacingAndGlyphs" text-decoration="underline" textLength="136" x="58" y="619.5986">void  main(java.lang.String[])</text><line style="stroke: #000000; stroke-width: 1.0;" x1="58" x2="194" y1="621.5986" y2="621.5986"/><!--link dip.InterfaceBoi to dip.AbstractBoi--><path d="M119,170.066 C119,170.066 119,270.615 119,270.615 " fill="none" id="dip.InterfaceBoi-dip.AbstractBoi" style="stroke: #A80036; stroke-width: 1.0; stroke-dasharray: 7.0,7.0;"/><polygon fill="none" points="112,170.066,119,150.066,126,170.066,112,170.066" style="stroke: #A80036; stroke-width: 1.0;"/><!--link dip.ConcreteBoi to dip.ConcreteInheritanceBoi--><path d="M119,646.038 C119,646.038 119,746.765 119,746.765 " fill="none" id="dip.ConcreteBoi-dip.ConcreteInheritanceBoi" style="stroke: #A80036; stroke-width: 1.0;"/><polygon fill="none" points="112,646.038,119,626.038,126,646.038,112,646.038" style="stroke: #A80036; stroke-width: 1.0;"/><!--link dip.AbstractBoi to dip.ConcreteBoi--><path d="M141.667,394.142 C141.667,394.142 141.667,494.897 141.667,494.897 " fill="none" id="dip.AbstractBoi-dip.ConcreteBoi" style="stroke: #A80036; stroke-width: 1.0;"/><polygon fill="none" points="134.667,394.142,141.667,374.142,148.667,394.142,134.667,394.142" style="stroke: #A80036; stroke-width: 1.0;"/><!--link dip.ConcreteBoi to dip.AbstractBoi--><path d="M96.3333,494.835 C96.3333,494.835 96.3333,379.002 96.3333,379.002 " fill="none" id="dip.ConcreteBoi-dip.AbstractBoi" style="stroke: #A80036; stroke-width: 1.0;"/><polygon fill="#A80036" points="96.3333,374.002,92.3333,383.002,96.3333,379.002,100.3333,383.002,96.3333,374.002" style="stroke: #A80036; stroke-width: 1.0;"/></g></svg>