<?xml version="1.0" encoding="UTF-8" standalone="no"?><svg xmlns="http://www.w3.org/2000/svg" xmlns:xlink="http://www.w3.org/1999/xlink" contentScriptType="application/ecmascript" contentStyleType="text/css" height="1030px" preserveAspectRatio="none" style="width:1120px;height:1030px;" version="1.1" viewBox="0 0 1120 1030" width="1120px" zoomAndPan="magnify"><defs><filter height="300%" id="fbrtt9nljofd1" width="300%" x="-1" y="-1"><feGaussianBlur result="blurOut" stdDeviation="2.0"/><feColorMatrix in="blurOut" result="blurOut2" type="matrix" values="0 0 0 0 0 0 0 0 0 0 0 0 0 0 0 0 0 0 .4 0"/><feOffset dx="4.0" dy="4.0" in="blurOut2" result="blurOut3"/><feBlend in="SourceGraphic" in2="blurOut3" mode="normal"/></filter></defs><g><!--cluster csse374.revengd.examples.fixtures--><polygon fill="#FFFFFF" filter="url(#fbrtt9nljofd1)" points="22,342,278,342,285,365.6094,977,365.6094,977,1018,22,1018,22,342" style="stroke: #000000; stroke-width: 1.5;"/><line style="stroke: #000000; stroke-width: 1.5;" x1="22" x2="285" y1="365.6094" y2="365.6094"/><text fill="#000000" font-family="sans-serif" font-size="14" font-weight="bold" lengthAdjust="spacingAndGlyphs" textLength="250" x="26" y="358.5332">csse374.revengd.examples.fixtures</text><!--cluster java.lang--><polygon fill="#FFFFFF" filter="url(#fbrtt9nljofd1)" points="483,24,552,24,559,47.6094,703,47.6094,703,318,483,318,483,24" style="stroke: #000000; stroke-width: 1.5;"/><line style="stroke: #000000; stroke-width: 1.5;" x1="483" x2="559" y1="47.6094" y2="47.6094"/><text fill="#000000" font-family="sans-serif" font-size="14" font-weight="bold" lengthAdjust="spacingAndGlyphs" textLength="63" x="487" y="40.5332">java.lang</text><!--class csse374.revengd.examples.fixtures.CalculatorApp--><rect fill="#FEFECE" filter="url(#fbrtt9nljofd1)" height="117.1797" id="csse374.revengd.examples.fixtures.CalculatorApp" style="stroke: #A80036; stroke-width: 1.5;" width="312" x="68" y="378"/><ellipse cx="181.25" cy="394" fill="#ADD1B2" rx="11" ry="11" style="stroke: #A80036; stroke-width: 1.0;"/><path d="M184.0156,389.875 Q184.1719,389.6563 184.3594,389.5469 Q184.5469,389.4375 184.7656,389.4375 Q185.1406,389.4375 185.375,389.6953 Q185.6094,389.9531 185.6094,390.5625 L185.6094,392.0156 Q185.6094,392.625 185.375,392.8906 Q185.1406,393.1563 184.7656,393.1563 Q184.4219,393.1563 184.2188,392.9531 Q184.0156,392.7656 183.9063,392.25 Q183.8594,391.8906 183.6719,391.7031 Q183.3438,391.3281 182.7344,391.1094 Q182.125,390.8906 181.5,390.8906 Q180.7344,390.8906 180.1016,391.2188 Q179.4688,391.5469 178.9766,392.2969 Q178.4844,393.0469 178.4844,394.0781 L178.4844,395.1719 Q178.4844,396.4063 179.375,397.2266 Q180.2656,398.0469 181.8594,398.0469 Q182.7969,398.0469 183.4531,397.7969 Q183.8438,397.6406 184.2656,397.2031 Q184.5313,396.9375 184.6797,396.8594 Q184.8281,396.7813 185.0313,396.7813 Q185.3594,396.7813 185.6172,397.0391 Q185.875,397.2969 185.875,397.6406 Q185.875,397.9844 185.5313,398.3906 Q185.0313,398.9688 184.2344,399.2969 Q183.1563,399.75 181.8594,399.75 Q180.3438,399.75 179.1406,399.125 Q178.1563,398.625 177.4688,397.5547 Q176.7813,396.4844 176.7813,395.2031 L176.7813,394.0469 Q176.7813,392.7188 177.3984,391.5703 Q178.0156,390.4219 179.1094,389.8047 Q180.2031,389.1875 181.4375,389.1875 Q182.1719,389.1875 182.8203,389.3516 Q183.4688,389.5156 184.0156,389.875 Z "/><text fill="#000000" font-family="sans-serif" font-size="12" lengthAdjust="spacingAndGlyphs" textLength="77" x="201.75" y="398.9102">CalculatorApp</text><line style="stroke: #A80036; stroke-width: 1.5;" x1="69" x2="379" y1="410" y2="410"/><rect fill="none" height="6" style="stroke: #C82930; stroke-width: 1.0;" width="6" x="76" y="419.418"/><text fill="#000000" font-family="sans-serif" font-size="11" lengthAdjust="spacingAndGlyphs" textLength="277" x="88" y="425.4189">csse374.revengd.examples.fixtures.ICalculator calculator</text><line style="stroke: #A80036; stroke-width: 1.5;" x1="69" x2="379" y1="431.8359" y2="431.8359"/><ellipse cx="79" cy="444.2539" fill="#84BE84" rx="3" ry="3" style="stroke: #038048; stroke-width: 1.0;"/><text fill="#000000" font-family="sans-serif" font-size="11" lengthAdjust="spacingAndGlyphs" textLength="286" x="88" y="447.2549">void  &lt;init&gt;(csse374.revengd.examples.fixtures.ICalculator)</text><ellipse cx="79" cy="458.0898" fill="#84BE84" rx="3" ry="3" style="stroke: #038048; stroke-width: 1.0;"/><text fill="#000000" font-family="sans-serif" font-size="11" lengthAdjust="spacingAndGlyphs" textLength="92" x="88" y="461.0908">void  performAdd()</text><ellipse cx="79" cy="471.9258" fill="#84BE84" rx="3" ry="3" style="stroke: #038048; stroke-width: 1.0;"/><text fill="#000000" font-family="sans-serif" font-size="11" lengthAdjust="spacingAndGlyphs" textLength="107" x="88" y="474.9268">void  performMultiply()</text><ellipse cx="79" cy="485.7617" fill="#84BE84" rx="3" ry="3" style="stroke: #038048; stroke-width: 1.0;"/><text fill="#000000" font-family="sans-serif" font-size="11" lengthAdjust="spacingAndGlyphs" text-decoration="underline" textLength="136" x="88" y="488.7627">void  main(java.lang.String[])</text><line style="stroke: #000000; stroke-width: 1.0;" x1="88" x2="224" y1="490.7627" y2="490.7627"/><!--class csse374.revengd.examples.fixtures.ICalculator--><rect fill="#FEFECE" filter="url(#fbrtt9nljofd1)" height="75.6719" id="csse374.revengd.examples.fixtures.ICalculator" style="stroke: #A80036; stroke-width: 1.5;" width="152" x="38" y="665.5"/><ellipse cx="80" cy="681.5" fill="#B4A7E5" rx="11" ry="11" style="stroke: #A80036; stroke-width: 1.0;"/><path d="M80.9531,678.1406 L80.9531,684.7969 L82.6719,684.7969 Q83.2813,684.7969 83.5469,685.0313 Q83.8125,685.2656 83.8125,685.6563 Q83.8125,686.0313 83.5469,686.2656 Q83.2813,686.5 82.6719,686.5 L77.5313,686.5 Q76.9219,686.5 76.6563,686.2656 Q76.3906,686.0313 76.3906,685.6406 Q76.3906,685.2656 76.6563,685.0313 Q76.9219,684.7969 77.5313,684.7969 L79.25,684.7969 L79.25,678.1406 L77.5313,678.1406 Q76.9219,678.1406 76.6563,677.9063 Q76.3906,677.6719 76.3906,677.2813 Q76.3906,676.9063 76.6563,676.6719 Q76.9219,676.4375 77.5313,676.4375 L82.6719,676.4375 Q83.2813,676.4375 83.5469,676.6719 Q83.8125,676.9063 83.8125,677.2813 Q83.8125,677.6719 83.5469,677.9063 Q83.2813,678.1406 82.6719,678.1406 L80.9531,678.1406 Z "/><text fill="#000000" font-family="sans-serif" font-size="12" font-style="italic" lengthAdjust="spacingAndGlyphs" textLength="60" x="100" y="686.4102">ICalculator</text><line style="stroke: #A80036; stroke-width: 1.5;" x1="39" x2="189" y1="697.5" y2="697.5"/><line style="stroke: #A80036; stroke-width: 1.5;" x1="39" x2="189" y1="705.5" y2="705.5"/><ellipse cx="49" cy="717.918" fill="#84BE84" rx="3" ry="3" style="stroke: #038048; stroke-width: 1.0;"/><text fill="#000000" font-family="sans-serif" font-size="11" font-style="italic" lengthAdjust="spacingAndGlyphs" textLength="106" x="58" y="720.9189">double  add(double[])</text><ellipse cx="49" cy="731.7539" fill="#84BE84" rx="3" ry="3" style="stroke: #038048; stroke-width: 1.0;"/><text fill="#000000" font-family="sans-serif" font-size="11" font-style="italic" lengthAdjust="spacingAndGlyphs" textLength="126" x="58" y="734.7549">double  multiply(double[])</text><!--class csse374.revengd.examples.fixtures.CalculatorB--><rect fill="#FEFECE" filter="url(#fbrtt9nljofd1)" height="89.5078" id="csse374.revengd.examples.fixtures.CalculatorB" style="stroke: #A80036; stroke-width: 1.5;" width="145" x="430.5" y="912"/><ellipse cx="467.55" cy="928" fill="#ADD1B2" rx="11" ry="11" style="stroke: #A80036; stroke-width: 1.0;"/><path d="M470.3156,923.875 Q470.4719,923.6563 470.6594,923.5469 Q470.8469,923.4375 471.0656,923.4375 Q471.4406,923.4375 471.675,923.6953 Q471.9094,923.9531 471.9094,924.5625 L471.9094,926.0156 Q471.9094,926.625 471.675,926.8906 Q471.4406,927.1563 471.0656,927.1563 Q470.7219,927.1563 470.5188,926.9531 Q470.3156,926.7656 470.2063,926.25 Q470.1594,925.8906 469.9719,925.7031 Q469.6438,925.3281 469.0344,925.1094 Q468.425,924.8906 467.8,924.8906 Q467.0344,924.8906 466.4016,925.2188 Q465.7688,925.5469 465.2766,926.2969 Q464.7844,927.0469 464.7844,928.0781 L464.7844,929.1719 Q464.7844,930.4063 465.675,931.2266 Q466.5656,932.0469 468.1594,932.0469 Q469.0969,932.0469 469.7531,931.7969 Q470.1438,931.6406 470.5656,931.2031 Q470.8313,930.9375 470.9797,930.8594 Q471.1281,930.7813 471.3313,930.7813 Q471.6594,930.7813 471.9172,931.0391 Q472.175,931.2969 472.175,931.6406 Q472.175,931.9844 471.8313,932.3906 Q471.3313,932.9688 470.5344,933.2969 Q469.4563,933.75 468.1594,933.75 Q466.6438,933.75 465.4406,933.125 Q464.4563,932.625 463.7688,931.5547 Q463.0813,930.4844 463.0813,929.2031 L463.0813,928.0469 Q463.0813,926.7188 463.6984,925.5703 Q464.3156,924.4219 465.4094,923.8047 Q466.5031,923.1875 467.7375,923.1875 Q468.4719,923.1875 469.1203,923.3516 Q469.7688,923.5156 470.3156,923.875 Z "/><text fill="#000000" font-family="sans-serif" font-size="12" lengthAdjust="spacingAndGlyphs" textLength="64" x="486.45" y="932.9102">CalculatorB</text><line style="stroke: #A80036; stroke-width: 1.5;" x1="431.5" x2="574.5" y1="944" y2="944"/><line style="stroke: #A80036; stroke-width: 1.5;" x1="431.5" x2="574.5" y1="952" y2="952"/><ellipse cx="441.5" cy="964.418" fill="#84BE84" rx="3" ry="3" style="stroke: #038048; stroke-width: 1.0;"/><text fill="#000000" font-family="sans-serif" font-size="11" lengthAdjust="spacingAndGlyphs" textLength="59" x="450.5" y="967.4189">void  &lt;init&gt;()</text><ellipse cx="441.5" cy="978.2539" fill="#84BE84" rx="3" ry="3" style="stroke: #038048; stroke-width: 1.0;"/><text fill="#000000" font-family="sans-serif" font-size="11" lengthAdjust="spacingAndGlyphs" textLength="102" x="450.5" y="981.2549">double  add(double[])</text><ellipse cx="441.5" cy="992.0898" fill="#84BE84" rx="3" ry="3" style="stroke: #038048; stroke-width: 1.0;"/><text fill="#000000" font-family="sans-serif" font-size="11" lengthAdjust="spacingAndGlyphs" textLength="119" x="450.5" y="995.0908">double  multiply(double[])</text><!--class csse374.revengd.examples.fixtures.UnrelatedClass--><rect fill="#FEFECE" filter="url(#fbrtt9nljofd1)" height="297.0469" id="csse374.revengd.examples.fixtures.UnrelatedClass" style="stroke: #A80036; stroke-width: 1.5;" width="735" x="225.5" y="555"/><ellipse cx="545.25" cy="571" fill="#ADD1B2" rx="11" ry="11" style="stroke: #A80036; stroke-width: 1.0;"/><path d="M548.0156,566.875 Q548.1719,566.6563 548.3594,566.5469 Q548.5469,566.4375 548.7656,566.4375 Q549.1406,566.4375 549.375,566.6953 Q549.6094,566.9531 549.6094,567.5625 L549.6094,569.0156 Q549.6094,569.625 549.375,569.8906 Q549.1406,570.1563 548.7656,570.1563 Q548.4219,570.1563 548.2188,569.9531 Q548.0156,569.7656 547.9063,569.25 Q547.8594,568.8906 547.6719,568.7031 Q547.3438,568.3281 546.7344,568.1094 Q546.125,567.8906 545.5,567.8906 Q544.7344,567.8906 544.1016,568.2188 Q543.4688,568.5469 542.9766,569.2969 Q542.4844,570.0469 542.4844,571.0781 L542.4844,572.1719 Q542.4844,573.4063 543.375,574.2266 Q544.2656,575.0469 545.8594,575.0469 Q546.7969,575.0469 547.4531,574.7969 Q547.8438,574.6406 548.2656,574.2031 Q548.5313,573.9375 548.6797,573.8594 Q548.8281,573.7813 549.0313,573.7813 Q549.3594,573.7813 549.6172,574.0391 Q549.875,574.2969 549.875,574.6406 Q549.875,574.9844 549.5313,575.3906 Q549.0313,575.9688 548.2344,576.2969 Q547.1563,576.75 545.8594,576.75 Q544.3438,576.75 543.1406,576.125 Q542.1563,575.625 541.4688,574.5547 Q540.7813,573.4844 540.7813,572.2031 L540.7813,571.0469 Q540.7813,569.7188 541.3984,568.5703 Q542.0156,567.4219 543.1094,566.8047 Q544.2031,566.1875 545.4375,566.1875 Q546.1719,566.1875 546.8203,566.3516 Q547.4688,566.5156 548.0156,566.875 Z "/><text fill="#000000" font-family="sans-serif" font-size="12" lengthAdjust="spacingAndGlyphs" textLength="87" x="565.75" y="575.9102">UnrelatedClass</text><line style="stroke: #A80036; stroke-width: 1.5;" x1="226.5" x2="959.5" y1="587" y2="587"/><ellipse cx="236.5" cy="599.418" fill="none" rx="3" ry="3" style="stroke: #038048; stroke-width: 1.0;"/><text fill="#000000" font-family="sans-serif" font-size="11" lengthAdjust="spacingAndGlyphs" textLength="198" x="245.5" y="602.4189">java.util.List&lt;java.lang.String&gt; genericList</text><ellipse cx="236.5" cy="613.2539" fill="none" rx="3" ry="3" style="stroke: #038048; stroke-width: 1.0;"/><text fill="#000000" font-family="sans-serif" font-size="11" lengthAdjust="spacingAndGlyphs" textLength="326" x="245.5" y="616.2549">java.util.List&lt;java.util.List&lt;java.util.List&lt;java.lang.String&gt;&gt;&gt; weirdList</text><ellipse cx="236.5" cy="627.0898" fill="none" rx="3" ry="3" style="stroke: #038048; stroke-width: 1.0;"/><text fill="#000000" font-family="sans-serif" font-size="11" lengthAdjust="spacingAndGlyphs" textLength="286" x="245.5" y="630.0908">java.util.Map&lt;java.lang.String,java.lang.Integer&gt; randomMap</text><ellipse cx="236.5" cy="640.9258" fill="none" rx="3" ry="3" style="stroke: #038048; stroke-width: 1.0;"/><text fill="#000000" font-family="sans-serif" font-size="11" lengthAdjust="spacingAndGlyphs" textLength="647" x="245.5" y="643.9268">java.util.Map&lt;java.lang.String,java.util.Map&lt;java.lang.Integer,java.util.List&lt;java.util.Map&lt;java.lang.String,java.lang.Double&gt;&gt;&gt;&gt; weirdMap</text><ellipse cx="236.5" cy="654.7617" fill="none" rx="3" ry="3" style="stroke: #038048; stroke-width: 1.0;"/><text fill="#000000" font-family="sans-serif" font-size="11" lengthAdjust="spacingAndGlyphs" textLength="192" x="245.5" y="657.7627">java.util.List&lt;java.lang.String&gt;[] listArray</text><ellipse cx="236.5" cy="668.5977" fill="none" rx="3" ry="3" style="stroke: #038048; stroke-width: 1.0;"/><text fill="#000000" font-family="sans-serif" font-size="11" lengthAdjust="spacingAndGlyphs" textLength="284" x="245.5" y="671.5986">java.util.Map&lt;java.lang.String,java.lang.Integer&gt;[] singleMap</text><ellipse cx="236.5" cy="682.4336" fill="none" rx="3" ry="3" style="stroke: #038048; stroke-width: 1.0;"/><text fill="#000000" font-family="sans-serif" font-size="11" lengthAdjust="spacingAndGlyphs" textLength="231" x="245.5" y="685.4346">java.util.List&lt;java.lang.String&gt;[][] listDoubleArray</text><ellipse cx="236.5" cy="696.2695" fill="none" rx="3" ry="3" style="stroke: #038048; stroke-width: 1.0;"/><text fill="#000000" font-family="sans-serif" font-size="11" lengthAdjust="spacingAndGlyphs" textLength="59" x="245.5" y="699.2705">int[] intArray</text><ellipse cx="236.5" cy="710.1055" fill="none" rx="3" ry="3" style="stroke: #038048; stroke-width: 1.0;"/><text fill="#000000" font-family="sans-serif" font-size="11" lengthAdjust="spacingAndGlyphs" textLength="364" x="245.5" y="713.1064">java.util.Map&lt;java.lang.String,java.util.List&lt;java.lang.String&gt;[]&gt; mapListArray</text><ellipse cx="236.5" cy="723.9414" fill="none" rx="3" ry="3" style="stroke: #038048; stroke-width: 1.0;"/><text fill="#000000" font-family="sans-serif" font-size="11" lengthAdjust="spacingAndGlyphs" textLength="33" x="245.5" y="726.9424">int hiInt</text><ellipse cx="236.5" cy="737.7773" fill="none" rx="3" ry="3" style="stroke: #038048; stroke-width: 1.0;"/><text fill="#000000" font-family="sans-serif" font-size="11" lengthAdjust="spacingAndGlyphs" textLength="119" x="245.5" y="740.7783">java.lang.String myString</text><ellipse cx="236.5" cy="751.6133" fill="none" rx="3" ry="3" style="stroke: #038048; stroke-width: 1.0;"/><text fill="#000000" font-family="sans-serif" font-size="11" lengthAdjust="spacingAndGlyphs" textLength="316" x="245.5" y="754.6143">java.util.List&lt;csse374.revengd.examples.fixtures.CalculatorA&gt; ca</text><line style="stroke: #A80036; stroke-width: 1.5;" x1="226.5" x2="959.5" y1="761.0313" y2="761.0313"/><ellipse cx="236.5" cy="773.4492" fill="#84BE84" rx="3" ry="3" style="stroke: #038048; stroke-width: 1.0;"/><text fill="#000000" font-family="sans-serif" font-size="11" lengthAdjust="spacingAndGlyphs" textLength="59" x="245.5" y="776.4502">void  &lt;init&gt;()</text><ellipse cx="236.5" cy="787.2852" fill="#84BE84" rx="3" ry="3" style="stroke: #038048; stroke-width: 1.0;"/><text fill="#000000" font-family="sans-serif" font-size="11" lengthAdjust="spacingAndGlyphs" textLength="446" x="245.5" y="790.2861">java.util.Map&lt;java.lang.String,java.lang.Integer&gt; checkObject1(java.util.List&lt;java.lang.String&gt;)</text><ellipse cx="236.5" cy="801.1211" fill="#84BE84" rx="3" ry="3" style="stroke: #038048; stroke-width: 1.0;"/><text fill="#000000" font-family="sans-serif" font-size="11" lengthAdjust="spacingAndGlyphs" textLength="629" x="245.5" y="804.1221">java.lang.String checkObject2(java.lang.String[], java.util.Map&lt;java.lang.Integer,java.util.List&lt;java.lang.String&gt;&gt;, java.lang.Double[][])</text><ellipse cx="236.5" cy="814.957" fill="#84BE84" rx="3" ry="3" style="stroke: #038048; stroke-width: 1.0;"/><text fill="#000000" font-family="sans-serif" font-size="11" lengthAdjust="spacingAndGlyphs" textLength="709" x="245.5" y="817.958">java.util.Map&lt;java.lang.String,java.lang.Integer&gt; getMap(java.util.List&lt;java.lang.String&gt;, java.util.Map&lt;java.lang.String,java.lang.Integer&gt;, int[], double)</text><ellipse cx="236.5" cy="828.793" fill="#84BE84" rx="3" ry="3" style="stroke: #038048; stroke-width: 1.0;"/><text fill="#000000" font-family="sans-serif" font-size="11" lengthAdjust="spacingAndGlyphs" textLength="404" x="245.5" y="831.7939">void  sayConditionalHello(boolean, csse374.revengd.examples.fixtures.CalculatorA)</text><ellipse cx="236.5" cy="842.6289" fill="#84BE84" rx="3" ry="3" style="stroke: #038048; stroke-width: 1.0;"/><text fill="#000000" font-family="sans-serif" font-size="11" lengthAdjust="spacingAndGlyphs" textLength="328" x="245.5" y="845.6299">java.util.List&lt;csse374.revengd.examples.fixtures.CalculatorB&gt; doIt()</text><!--class csse374.revengd.examples.fixtures.CalculatorA--><rect fill="#FEFECE" filter="url(#fbrtt9nljofd1)" height="89.5078" id="csse374.revengd.examples.fixtures.CalculatorA" style="stroke: #A80036; stroke-width: 1.5;" width="145" x="610.5" y="912"/><ellipse cx="648" cy="928" fill="#ADD1B2" rx="11" ry="11" style="stroke: #A80036; stroke-width: 1.0;"/><path d="M650.7656,923.875 Q650.9219,923.6563 651.1094,923.5469 Q651.2969,923.4375 651.5156,923.4375 Q651.8906,923.4375 652.125,923.6953 Q652.3594,923.9531 652.3594,924.5625 L652.3594,926.0156 Q652.3594,926.625 652.125,926.8906 Q651.8906,927.1563 651.5156,927.1563 Q651.1719,927.1563 650.9688,926.9531 Q650.7656,926.7656 650.6563,926.25 Q650.6094,925.8906 650.4219,925.7031 Q650.0938,925.3281 649.4844,925.1094 Q648.875,924.8906 648.25,924.8906 Q647.4844,924.8906 646.8516,925.2188 Q646.2188,925.5469 645.7266,926.2969 Q645.2344,927.0469 645.2344,928.0781 L645.2344,929.1719 Q645.2344,930.4063 646.125,931.2266 Q647.0156,932.0469 648.6094,932.0469 Q649.5469,932.0469 650.2031,931.7969 Q650.5938,931.6406 651.0156,931.2031 Q651.2813,930.9375 651.4297,930.8594 Q651.5781,930.7813 651.7813,930.7813 Q652.1094,930.7813 652.3672,931.0391 Q652.625,931.2969 652.625,931.6406 Q652.625,931.9844 652.2813,932.3906 Q651.7813,932.9688 650.9844,933.2969 Q649.9063,933.75 648.6094,933.75 Q647.0938,933.75 645.8906,933.125 Q644.9063,932.625 644.2188,931.5547 Q643.5313,930.4844 643.5313,929.2031 L643.5313,928.0469 Q643.5313,926.7188 644.1484,925.5703 Q644.7656,924.4219 645.8594,923.8047 Q646.9531,923.1875 648.1875,923.1875 Q648.9219,923.1875 649.5703,923.3516 Q650.2188,923.5156 650.7656,923.875 Z "/><text fill="#000000" font-family="sans-serif" font-size="12" lengthAdjust="spacingAndGlyphs" textLength="63" x="667" y="932.9102">CalculatorA</text><line style="stroke: #A80036; stroke-width: 1.5;" x1="611.5" x2="754.5" y1="944" y2="944"/><line style="stroke: #A80036; stroke-width: 1.5;" x1="611.5" x2="754.5" y1="952" y2="952"/><ellipse cx="621.5" cy="964.418" fill="#84BE84" rx="3" ry="3" style="stroke: #038048; stroke-width: 1.0;"/><text fill="#000000" font-family="sans-serif" font-size="11" lengthAdjust="spacingAndGlyphs" textLength="59" x="630.5" y="967.4189">void  &lt;init&gt;()</text><ellipse cx="621.5" cy="978.2539" fill="#84BE84" rx="3" ry="3" style="stroke: #038048; stroke-width: 1.0;"/><text fill="#000000" font-family="sans-serif" font-size="11" lengthAdjust="spacingAndGlyphs" textLength="102" x="630.5" y="981.2549">double  add(double[])</text><ellipse cx="621.5" cy="992.0898" fill="#84BE84" rx="3" ry="3" style="stroke: #038048; stroke-width: 1.0;"/><text fill="#000000" font-family="sans-serif" font-size="11" lengthAdjust="spacingAndGlyphs" textLength="119" x="630.5" y="995.0908">double  multiply(double[])</text><!--class java.lang.Object--><rect fill="#FEFECE" filter="url(#fbrtt9nljofd1)" height="241.7031" id="java.lang.Object" style="stroke: #A80036; stroke-width: 1.5;" width="187" x="499.5" y="60"/><ellipse cx="571.25" cy="76" fill="#ADD1B2" rx="11" ry="11" style="stroke: #A80036; stroke-width: 1.0;"/><path d="M574.0156,71.875 Q574.1719,71.6563 574.3594,71.5469 Q574.5469,71.4375 574.7656,71.4375 Q575.1406,71.4375 575.375,71.6953 Q575.6094,71.9531 575.6094,72.5625 L575.6094,74.0156 Q575.6094,74.625 575.375,74.8906 Q575.1406,75.1563 574.7656,75.1563 Q574.4219,75.1563 574.2188,74.9531 Q574.0156,74.7656 573.9063,74.25 Q573.8594,73.8906 573.6719,73.7031 Q573.3438,73.3281 572.7344,73.1094 Q572.125,72.8906 571.5,72.8906 Q570.7344,72.8906 570.1016,73.2188 Q569.4688,73.5469 568.9766,74.2969 Q568.4844,75.0469 568.4844,76.0781 L568.4844,77.1719 Q568.4844,78.4063 569.375,79.2266 Q570.2656,80.0469 571.8594,80.0469 Q572.7969,80.0469 573.4531,79.7969 Q573.8438,79.6406 574.2656,79.2031 Q574.5313,78.9375 574.6797,78.8594 Q574.8281,78.7813 575.0313,78.7813 Q575.3594,78.7813 575.6172,79.0391 Q575.875,79.2969 575.875,79.6406 Q575.875,79.9844 575.5313,80.3906 Q575.0313,80.9688 574.2344,81.2969 Q573.1563,81.75 571.8594,81.75 Q570.3438,81.75 569.1406,81.125 Q568.1563,80.625 567.4688,79.5547 Q566.7813,78.4844 566.7813,77.2031 L566.7813,76.0469 Q566.7813,74.7188 567.3984,73.5703 Q568.0156,72.4219 569.1094,71.8047 Q570.2031,71.1875 571.4375,71.1875 Q572.1719,71.1875 572.8203,71.3516 Q573.4688,71.5156 574.0156,71.875 Z "/><text fill="#000000" font-family="sans-serif" font-size="12" lengthAdjust="spacingAndGlyphs" textLength="35" x="591.75" y="80.9102">Object</text><line style="stroke: #A80036; stroke-width: 1.5;" x1="500.5" x2="685.5" y1="92" y2="92"/><line style="stroke: #A80036; stroke-width: 1.5;" x1="500.5" x2="685.5" y1="100" y2="100"/><ellipse cx="510.5" cy="112.418" fill="#84BE84" rx="3" ry="3" style="stroke: #038048; stroke-width: 1.0;"/><text fill="#000000" font-family="sans-serif" font-size="11" lengthAdjust="spacingAndGlyphs" textLength="59" x="519.5" y="115.4189">void  &lt;init&gt;()</text><rect fill="#F24D5C" height="6" style="stroke: #C82930; stroke-width: 1.0;" width="6" x="507.5" y="123.2539"/><text fill="#000000" font-family="sans-serif" font-size="11" lengthAdjust="spacingAndGlyphs" text-decoration="underline" textLength="107" x="519.5" y="129.2549">void  registerNatives()</text><line style="stroke: #000000; stroke-width: 1.0;" x1="519.5" x2="626.5" y1="131.2549" y2="131.2549"/><ellipse cx="510.5" cy="140.0898" fill="#84BE84" rx="3" ry="3" style="stroke: #038048; stroke-width: 1.0;"/><text fill="#000000" font-family="sans-serif" font-size="11" lengthAdjust="spacingAndGlyphs" textLength="152" x="519.5" y="143.0908">final java.lang.Class  getClass()</text><ellipse cx="510.5" cy="153.9258" fill="#84BE84" rx="3" ry="3" style="stroke: #038048; stroke-width: 1.0;"/><text fill="#000000" font-family="sans-serif" font-size="11" lengthAdjust="spacingAndGlyphs" textLength="74" x="519.5" y="156.9268">int  hashCode()</text><ellipse cx="510.5" cy="167.7617" fill="#84BE84" rx="3" ry="3" style="stroke: #038048; stroke-width: 1.0;"/><text fill="#000000" font-family="sans-serif" font-size="11" lengthAdjust="spacingAndGlyphs" textLength="161" x="519.5" y="170.7627">boolean  equals(java.lang.Object)</text><polygon fill="#FFFF44" points="510.5,176.5977,514.5,180.5977,510.5,184.5977,506.5,180.5977" style="stroke: #B38D22; stroke-width: 1.0;"/><text fill="#000000" font-family="sans-serif" font-size="11" lengthAdjust="spacingAndGlyphs" textLength="117" x="519.5" y="184.5986">java.lang.Object  clone()</text><ellipse cx="510.5" cy="195.4336" fill="#84BE84" rx="3" ry="3" style="stroke: #038048; stroke-width: 1.0;"/><text fill="#000000" font-family="sans-serif" font-size="11" lengthAdjust="spacingAndGlyphs" textLength="125" x="519.5" y="198.4346">java.lang.String  toString()</text><ellipse cx="510.5" cy="209.2695" fill="#84BE84" rx="3" ry="3" style="stroke: #038048; stroke-width: 1.0;"/><text fill="#000000" font-family="sans-serif" font-size="11" lengthAdjust="spacingAndGlyphs" textLength="84" x="519.5" y="212.2705">final void  notify()</text><ellipse cx="510.5" cy="223.1055" fill="#84BE84" rx="3" ry="3" style="stroke: #038048; stroke-width: 1.0;"/><text fill="#000000" font-family="sans-serif" font-size="11" lengthAdjust="spacingAndGlyphs" textLength="96" x="519.5" y="226.1064">final void  notifyAll()</text><ellipse cx="510.5" cy="236.9414" fill="#84BE84" rx="3" ry="3" style="stroke: #038048; stroke-width: 1.0;"/><text fill="#000000" font-family="sans-serif" font-size="11" lengthAdjust="spacingAndGlyphs" textLength="98" x="519.5" y="239.9424">final void  wait(long)</text><ellipse cx="510.5" cy="250.7773" fill="#84BE84" rx="3" ry="3" style="stroke: #038048; stroke-width: 1.0;"/><text fill="#000000" font-family="sans-serif" font-size="11" lengthAdjust="spacingAndGlyphs" textLength="115" x="519.5" y="253.7783">final void  wait(long, int)</text><ellipse cx="510.5" cy="264.6133" fill="#84BE84" rx="3" ry="3" style="stroke: #038048; stroke-width: 1.0;"/><text fill="#000000" font-family="sans-serif" font-size="11" lengthAdjust="spacingAndGlyphs" textLength="78" x="519.5" y="267.6143">final void  wait()</text><polygon fill="#FFFF44" points="510.5,273.4492,514.5,277.4492,510.5,281.4492,506.5,277.4492" style="stroke: #B38D22; stroke-width: 1.0;"/><text fill="#000000" font-family="sans-serif" font-size="11" lengthAdjust="spacingAndGlyphs" textLength="68" x="519.5" y="281.4502">void  finalize()</text><ellipse cx="510.5" cy="292.2852" fill="#84BE84" rx="3" ry="3" style="stroke: #038048; stroke-width: 1.0;"/><text fill="#000000" font-family="sans-serif" font-size="11" lengthAdjust="spacingAndGlyphs" text-decoration="underline" textLength="67" x="519.5" y="295.2861">void  &lt;clinit&gt;()</text><line style="stroke: #000000; stroke-width: 1.0;" x1="519.5" x2="586.5" y1="297.2861" y2="297.2861"/><!--link java.lang.Object to csse374.revengd.examples.fixtures.CalculatorApp--><path d="M482.759,257.735 C426.649,296.281 359.541,342.384 307.729,377.979 " fill="none" id="java.lang.Object-csse374.revengd.examples.fixtures.CalculatorApp" style="stroke: #A80036; stroke-width: 1.0;"/><polygon fill="none" points="478.96,251.852,499.409,246.296,486.888,263.391,478.96,251.852" style="stroke: #A80036; stroke-width: 1.0;"/><!--link csse374.revengd.examples.fixtures.CalculatorApp to csse374.revengd.examples.fixtures.ICalculator--><path d="M200.132,495.001 C179.464,544.791 150.052,615.648 131.502,660.335 " fill="none" id="csse374.revengd.examples.fixtures.CalculatorApp-csse374.revengd.examples.fixtures.ICalculator" style="stroke: #A80036; stroke-width: 1.0;"/><polygon fill="#A80036" points="129.519,665.114,136.6638,658.3352,131.4359,660.496,129.275,655.2682,129.519,665.114" style="stroke: #A80036; stroke-width: 1.0;"/><!--link java.lang.Object to csse374.revengd.examples.fixtures.CalculatorB--><path d="M703.462,251.31 C796.349,316.73 922.592,424.171 978,555 C1029.48,676.548 1063.85,751.733 978,852 C921.684,917.772 675.601,886.026 593,912 C587.276,913.8 581.46,915.914 575.681,918.224 " fill="none" id="java.lang.Object-csse374.revengd.examples.fixtures.CalculatorB" style="stroke: #A80036; stroke-width: 1.0;"/><polygon fill="none" points="699.279,256.928,686.823,239.786,707.25,245.418,699.279,256.928" style="stroke: #A80036; stroke-width: 1.0;"/><!--link csse374.revengd.examples.fixtures.ICalculator to csse374.revengd.examples.fixtures.CalculatorB--><path d="M138.038,759.861 C153.931,790.746 177.477,827.76 208,852 C273.277,903.841 366.334,930.904 430.388,944.2656 " fill="none" id="csse374.revengd.examples.fixtures.ICalculator-csse374.revengd.examples.fixtures.CalculatorB" style="stroke: #A80036; stroke-width: 1.0; stroke-dasharray: 7.0,7.0;"/><polygon fill="none" points="131.605,762.638,129.138,741.593,144.191,756.507,131.605,762.638" style="stroke: #A80036; stroke-width: 1.0;"/><!--link java.lang.Object to csse374.revengd.examples.fixtures.ICalculator--><path d="M533.656,320.215 C501.214,381.385 455.576,449.599 397,495 C327.343,548.991 277.871,501.286 208,555 C170.565,583.779 143.925,632.018 128.778,665.457 " fill="none" id="java.lang.Object-csse374.revengd.examples.fixtures.ICalculator" style="stroke: #A80036; stroke-width: 1.0;"/><polygon fill="none" points="527.488,316.902,542.877,302.335,539.931,323.319,527.488,316.902" style="stroke: #A80036; stroke-width: 1.0;"/><!--link java.lang.Object to csse374.revengd.examples.fixtures.UnrelatedClass--><path d="M593,322.386 C593,394.271 593,481.769 593,554.687 " fill="none" id="java.lang.Object-csse374.revengd.examples.fixtures.UnrelatedClass" style="stroke: #A80036; stroke-width: 1.0;"/><polygon fill="none" points="586,322.067,593,302.067,600,322.067,586,322.067" style="stroke: #A80036; stroke-width: 1.0;"/><!--link csse374.revengd.examples.fixtures.UnrelatedClass to csse374.revengd.examples.fixtures.CalculatorA--><path d="M645.874,852.253 C652.913,871.924 659.687,890.853 665.477,907.034 " fill="none" id="csse374.revengd.examples.fixtures.UnrelatedClass-csse374.revengd.examples.fixtures.CalculatorA" style="stroke: #A80036; stroke-width: 1.0;"/><polygon fill="#A80036" points="667.242,911.965,667.9761,902.1435,665.5575,907.2573,660.4438,904.8387,667.242,911.965" style="stroke: #A80036; stroke-width: 1.0;"/><text fill="#000000" font-family="sans-serif" font-size="13" lengthAdjust="spacingAndGlyphs" textLength="5" x="659.3321" y="901.0749">*</text><!--link csse374.revengd.examples.fixtures.UnrelatedClass to csse374.revengd.examples.fixtures.CalculatorB--><path d="M540.126,852.253 C533.087,871.924 526.313,890.853 520.523,907.034 " fill="none" id="csse374.revengd.examples.fixtures.UnrelatedClass-csse374.revengd.examples.fixtures.CalculatorB" style="stroke: #A80036; stroke-width: 1.0; stroke-dasharray: 7.0,7.0;"/><polygon fill="#A80036" points="518.758,911.965,525.5562,904.8387,520.4425,907.2573,518.0239,902.1435,518.758,911.965" style="stroke: #A80036; stroke-width: 1.0;"/><text fill="#000000" font-family="sans-serif" font-size="13" lengthAdjust="spacingAndGlyphs" textLength="5" x="515.871" y="901.0749">*</text><!--link java.lang.Object to csse374.revengd.examples.fixtures.CalculatorA--><path d="M705.574,218.504 C769.151,243.391 846.871,281.443 903,334 C985.693,411.431 1000.79,445.545 1030,555 C1064.04,682.537 1108.81,746.108 1030,852 C997.192,896.082 847.485,928.442 755.76,944.543 " fill="none" id="java.lang.Object-csse374.revengd.examples.fixtures.CalculatorA" style="stroke: #A80036; stroke-width: 1.0;"/><polygon fill="none" points="702.977,225.006,686.766,211.36,707.949,211.918,702.977,225.006" style="stroke: #A80036; stroke-width: 1.0;"/><!--link csse374.revengd.examples.fixtures.ICalculator to csse374.revengd.examples.fixtures.CalculatorA--><path d="M135.517,760.056 C150.854,792.093 174.693,830.226 208,852 C352.95,946.7607 427.798,860.052 593,912 C598.724,913.8 604.54,915.914 610.319,918.224 " fill="none" id="csse374.revengd.examples.fixtures.ICalculator-csse374.revengd.examples.fixtures.CalculatorA" style="stroke: #A80036; stroke-width: 1.0; stroke-dasharray: 7.0,7.0;"/><polygon fill="none" points="129.031,762.698,127.261,741.583,141.813,756.986,129.031,762.698" style="stroke: #A80036; stroke-width: 1.0;"/></g></svg>