<?xml version="1.0" encoding="UTF-8" standalone="no"?><svg xmlns="http://www.w3.org/2000/svg" xmlns:xlink="http://www.w3.org/1999/xlink" contentScriptType="application/ecmascript" contentStyleType="text/css" height="967px" preserveAspectRatio="none" style="width:573px;height:967px;" version="1.1" viewBox="0 0 573 967" width="573px" zoomAndPan="magnify"><defs><filter height="300%" id="fscvqxq4ag4re" width="300%" x="-1" y="-1"><feGaussianBlur result="blurOut" stdDeviation="2.0"/><feColorMatrix in="blurOut" result="blurOut2" type="matrix" values="0 0 0 0 0 0 0 0 0 0 0 0 0 0 0 0 0 0 .4 0"/><feOffset dx="4.0" dy="4.0" in="blurOut2" result="blurOut3"/><feBlend in="SourceGraphic" in2="blurOut3" mode="normal"/></filter></defs><g><!--cluster decorator--><polygon fill="#FFFFFF" filter="url(#fscvqxq4ag4re)" points="22,24,97,24,104,47.6094,551,47.6094,551,955,22,955,22,24" style="stroke: #000000; stroke-width: 1.5;"/><line style="stroke: #000000; stroke-width: 1.5;" x1="22" x2="104" y1="47.6094" y2="47.6094"/><text fill="#000000" font-family="sans-serif" font-size="14" font-weight="bold" lengthAdjust="spacingAndGlyphs" textLength="69" x="26" y="40.5332">decorator</text><!--class decorator.AbstractBoi--><rect fill="#7FFF00" filter="url(#fscvqxq4ag4re)" height="125.3672" id="decorator.AbstractBoi" style="stroke: #A80036; stroke-width: 1.5;" width="136" x="75" y="286"/><ellipse cx="103.05" cy="306.0938" fill="#A9DCDF" rx="11" ry="11" style="stroke: #A80036; stroke-width: 1.0;"/><path d="M105.2375,307.8594 L101.0969,307.8594 L100.675,308.8906 L101.0969,308.8906 Q101.7063,308.8906 101.9719,309.125 Q102.2375,309.3594 102.2375,309.75 Q102.2375,310.125 101.9719,310.3594 Q101.7063,310.5938 101.0969,310.5938 L98.8,310.5938 Q98.1906,310.5938 97.9328,310.3594 Q97.675,310.125 97.675,309.7344 Q97.675,309.3594 97.9484,309.1172 Q98.2219,308.875 98.8469,308.8906 L101.5188,302.2344 L100.4094,302.2344 Q99.8,302.2344 99.5344,302 Q99.2688,301.7656 99.2688,301.375 Q99.2688,301 99.5344,300.7656 Q99.8,300.5313 100.4094,300.5313 L104.0813,300.5313 L107.4719,308.8906 Q108.0656,308.8906 108.2531,309.0313 Q108.6438,309.2969 108.6438,309.75 Q108.6438,310.125 108.3859,310.3594 Q108.1281,310.5938 107.5188,310.5938 L105.2219,310.5938 Q104.6125,310.5938 104.3469,310.3594 Q104.0813,310.125 104.0813,309.7344 Q104.0813,309.3594 104.3469,309.125 Q104.6125,308.8906 105.2219,308.8906 L105.6438,308.8906 L105.2375,307.8594 Z M104.5188,306.1563 L103.1594,302.7813 L101.7844,306.1563 L104.5188,306.1563 Z "/><text fill="#000000" font-family="sans-serif" font-size="12" font-style="italic" lengthAdjust="spacingAndGlyphs" textLength="79" x="117.95" y="303.457">«Component»</text><text fill="#000000" font-family="sans-serif" font-size="12" font-style="italic" lengthAdjust="spacingAndGlyphs" textLength="63" x="125.95" y="318.5508">AbstractBoi</text><line style="stroke: #A80036; stroke-width: 1.5;" x1="76" x2="210" y1="326.1875" y2="326.1875"/><line style="stroke: #A80036; stroke-width: 1.5;" x1="76" x2="210" y1="334.1875" y2="334.1875"/><ellipse cx="86" cy="346.6055" fill="#84BE84" rx="3" ry="3" style="stroke: #038048; stroke-width: 1.0;"/><text fill="#000000" font-family="sans-serif" font-size="11" lengthAdjust="spacingAndGlyphs" textLength="59" x="95" y="349.6064">void  &lt;init&gt;()</text><ellipse cx="86" cy="360.4414" fill="#84BE84" rx="3" ry="3" style="stroke: #038048; stroke-width: 1.0;"/><text fill="#000000" font-family="sans-serif" font-size="11" font-style="italic" lengthAdjust="spacingAndGlyphs" textLength="52" x="95" y="363.4424">void  doIt()</text><ellipse cx="86" cy="374.2773" fill="#84BE84" rx="3" ry="3" style="stroke: #038048; stroke-width: 1.0;"/><text fill="#000000" font-family="sans-serif" font-size="11" lengthAdjust="spacingAndGlyphs" textLength="93" x="95" y="377.2783">void  connorBade()</text><ellipse cx="86" cy="388.1133" fill="#84BE84" rx="3" ry="3" style="stroke: #038048; stroke-width: 1.0;"/><text fill="#000000" font-family="sans-serif" font-size="11" font-style="italic" lengthAdjust="spacingAndGlyphs" textLength="110" x="95" y="391.1143">void  notConnorBade()</text><ellipse cx="86" cy="401.9492" fill="#84BE84" rx="3" ry="3" style="stroke: #038048; stroke-width: 1.0;"/><text fill="#000000" font-family="sans-serif" font-size="11" lengthAdjust="spacingAndGlyphs" textLength="65" x="95" y="404.9502">int  returnInt()</text><!--class decorator.InterfaceBoi--><rect fill="#FEFECE" filter="url(#fscvqxq4ag4re)" height="89.5078" id="decorator.InterfaceBoi" style="stroke: #A80036; stroke-width: 1.5;" width="136" x="43" y="66.5"/><ellipse cx="75.1" cy="82.5" fill="#B4A7E5" rx="11" ry="11" style="stroke: #A80036; stroke-width: 1.0;"/><path d="M76.0531,79.1406 L76.0531,85.7969 L77.7719,85.7969 Q78.3813,85.7969 78.6469,86.0313 Q78.9125,86.2656 78.9125,86.6563 Q78.9125,87.0313 78.6469,87.2656 Q78.3813,87.5 77.7719,87.5 L72.6313,87.5 Q72.0219,87.5 71.7563,87.2656 Q71.4906,87.0313 71.4906,86.6406 Q71.4906,86.2656 71.7563,86.0313 Q72.0219,85.7969 72.6313,85.7969 L74.35,85.7969 L74.35,79.1406 L72.6313,79.1406 Q72.0219,79.1406 71.7563,78.9063 Q71.4906,78.6719 71.4906,78.2813 Q71.4906,77.9063 71.7563,77.6719 Q72.0219,77.4375 72.6313,77.4375 L77.7719,77.4375 Q78.3813,77.4375 78.6469,77.6719 Q78.9125,77.9063 78.9125,78.2813 Q78.9125,78.6719 78.6469,78.9063 Q78.3813,79.1406 77.7719,79.1406 L76.0531,79.1406 Z "/><text fill="#000000" font-family="sans-serif" font-size="12" font-style="italic" lengthAdjust="spacingAndGlyphs" textLength="66" x="92.9" y="87.4102">InterfaceBoi</text><line style="stroke: #A80036; stroke-width: 1.5;" x1="44" x2="178" y1="98.5" y2="98.5"/><line style="stroke: #A80036; stroke-width: 1.5;" x1="44" x2="178" y1="106.5" y2="106.5"/><ellipse cx="54" cy="118.918" fill="#84BE84" rx="3" ry="3" style="stroke: #038048; stroke-width: 1.0;"/><text fill="#000000" font-family="sans-serif" font-size="11" font-style="italic" lengthAdjust="spacingAndGlyphs" textLength="52" x="63" y="121.9189">void  doIt()</text><ellipse cx="54" cy="132.7539" fill="#84BE84" rx="3" ry="3" style="stroke: #038048; stroke-width: 1.0;"/><text fill="#000000" font-family="sans-serif" font-size="11" font-style="italic" lengthAdjust="spacingAndGlyphs" textLength="93" x="63" y="135.7549">void  connorBade()</text><ellipse cx="54" cy="146.5898" fill="#84BE84" rx="3" ry="3" style="stroke: #038048; stroke-width: 1.0;"/><text fill="#000000" font-family="sans-serif" font-size="11" font-style="italic" lengthAdjust="spacingAndGlyphs" textLength="110" x="63" y="149.5908">void  notConnorBade()</text><!--class decorator.AbstractSubBoi--><rect fill="#FEFECE" filter="url(#fscvqxq4ag4re)" height="103.3438" id="decorator.AbstractSubBoi" style="stroke: #A80036; stroke-width: 1.5;" width="197" x="214.5" y="60"/><ellipse cx="265.75" cy="76" fill="#A9DCDF" rx="11" ry="11" style="stroke: #A80036; stroke-width: 1.0;"/><path d="M267.9375,77.7656 L263.7969,77.7656 L263.375,78.7969 L263.7969,78.7969 Q264.4063,78.7969 264.6719,79.0313 Q264.9375,79.2656 264.9375,79.6563 Q264.9375,80.0313 264.6719,80.2656 Q264.4063,80.5 263.7969,80.5 L261.5,80.5 Q260.8906,80.5 260.6328,80.2656 Q260.375,80.0313 260.375,79.6406 Q260.375,79.2656 260.6484,79.0234 Q260.9219,78.7813 261.5469,78.7969 L264.2188,72.1406 L263.1094,72.1406 Q262.5,72.1406 262.2344,71.9063 Q261.9688,71.6719 261.9688,71.2813 Q261.9688,70.9063 262.2344,70.6719 Q262.5,70.4375 263.1094,70.4375 L266.7813,70.4375 L270.1719,78.7969 Q270.7656,78.7969 270.9531,78.9375 Q271.3438,79.2031 271.3438,79.6563 Q271.3438,80.0313 271.0859,80.2656 Q270.8281,80.5 270.2188,80.5 L267.9219,80.5 Q267.3125,80.5 267.0469,80.2656 Q266.7813,80.0313 266.7813,79.6406 Q266.7813,79.2656 267.0469,79.0313 Q267.3125,78.7969 267.9219,78.7969 L268.3438,78.7969 L267.9375,77.7656 Z M267.2188,76.0625 L265.8594,72.6875 L264.4844,76.0625 L267.2188,76.0625 Z "/><text fill="#000000" font-family="sans-serif" font-size="12" font-style="italic" lengthAdjust="spacingAndGlyphs" textLength="86" x="286.25" y="80.9102">AbstractSubBoi</text><line style="stroke: #A80036; stroke-width: 1.5;" x1="215.5" x2="410.5" y1="92" y2="92"/><polygon fill="none" points="225.5,99.418,229.5,103.418,225.5,107.418,221.5,103.418" style="stroke: #B38D22; stroke-width: 1.0;"/><text fill="#000000" font-family="sans-serif" font-size="11" lengthAdjust="spacingAndGlyphs" textLength="130" x="234.5" y="107.4189">decorator.AbstractBoi aboi</text><line style="stroke: #A80036; stroke-width: 1.5;" x1="215.5" x2="410.5" y1="113.8359" y2="113.8359"/><ellipse cx="225.5" cy="126.2539" fill="#84BE84" rx="3" ry="3" style="stroke: #038048; stroke-width: 1.0;"/><text fill="#000000" font-family="sans-serif" font-size="11" lengthAdjust="spacingAndGlyphs" textLength="59" x="234.5" y="129.2549">void  &lt;init&gt;()</text><ellipse cx="225.5" cy="140.0898" fill="#84BE84" rx="3" ry="3" style="stroke: #038048; stroke-width: 1.0;"/><text fill="#000000" font-family="sans-serif" font-size="11" font-style="italic" lengthAdjust="spacingAndGlyphs" textLength="93" x="234.5" y="143.0908">void  connorBade()</text><ellipse cx="225.5" cy="153.9258" fill="#84BE84" rx="3" ry="3" style="stroke: #038048; stroke-width: 1.0;"/><text fill="#000000" font-family="sans-serif" font-size="11" lengthAdjust="spacingAndGlyphs" textLength="171" x="234.5" y="156.9268">void  setBoi(decorator.AbstractBoi)</text><!--class decorator.ConcreteInheritanceBoi--><rect fill="#7FFF00" filter="url(#fscvqxq4ag4re)" height="83.8594" id="decorator.ConcreteInheritanceBoi" style="stroke: #A80036; stroke-width: 1.5;" width="192" x="50" y="855"/><ellipse cx="78.95" cy="875.0938" fill="#ADD1B2" rx="11" ry="11" style="stroke: #A80036; stroke-width: 1.0;"/><path d="M81.7156,870.9688 Q81.8719,870.75 82.0594,870.6406 Q82.2469,870.5313 82.4656,870.5313 Q82.8406,870.5313 83.075,870.7891 Q83.3094,871.0469 83.3094,871.6563 L83.3094,873.1094 Q83.3094,873.7188 83.075,873.9844 Q82.8406,874.25 82.4656,874.25 Q82.1219,874.25 81.9188,874.0469 Q81.7156,873.8594 81.6063,873.3438 Q81.5594,872.9844 81.3719,872.7969 Q81.0438,872.4219 80.4344,872.2031 Q79.825,871.9844 79.2,871.9844 Q78.4344,871.9844 77.8016,872.3125 Q77.1688,872.6406 76.6766,873.3906 Q76.1844,874.1406 76.1844,875.1719 L76.1844,876.2656 Q76.1844,877.5 77.075,878.3203 Q77.9656,879.1406 79.5594,879.1406 Q80.4969,879.1406 81.1531,878.8906 Q81.5438,878.7344 81.9656,878.2969 Q82.2313,878.0313 82.3797,877.9531 Q82.5281,877.875 82.7313,877.875 Q83.0594,877.875 83.3172,878.1328 Q83.575,878.3906 83.575,878.7344 Q83.575,879.0781 83.2313,879.4844 Q82.7313,880.0625 81.9344,880.3906 Q80.8563,880.8438 79.5594,880.8438 Q78.0438,880.8438 76.8406,880.2188 Q75.8563,879.7188 75.1688,878.6484 Q74.4813,877.5781 74.4813,876.2969 L74.4813,875.1406 Q74.4813,873.8125 75.0984,872.6641 Q75.7156,871.5156 76.8094,870.8984 Q77.9031,870.2813 79.1375,870.2813 Q79.8719,870.2813 80.5203,870.4453 Q81.1688,870.6094 81.7156,870.9688 Z "/><text fill="#000000" font-family="sans-serif" font-size="12" font-style="italic" lengthAdjust="spacingAndGlyphs" textLength="68" x="126.55" y="872.457">«Decorator»</text><text fill="#000000" font-family="sans-serif" font-size="12" lengthAdjust="spacingAndGlyphs" textLength="129" x="96.05" y="887.5508">ConcreteInheritanceBoi</text><line style="stroke: #A80036; stroke-width: 1.5;" x1="51" x2="241" y1="895.1875" y2="895.1875"/><line style="stroke: #A80036; stroke-width: 1.5;" x1="51" x2="241" y1="903.1875" y2="903.1875"/><ellipse cx="61" cy="915.6055" fill="#84BE84" rx="3" ry="3" style="stroke: #038048; stroke-width: 1.0;"/><text fill="#000000" font-family="sans-serif" font-size="11" lengthAdjust="spacingAndGlyphs" textLength="166" x="70" y="918.6064">void  &lt;init&gt;(decorator.AbstractBoi)</text><ellipse cx="61" cy="929.4414" fill="#84BE84" rx="3" ry="3" style="stroke: #038048; stroke-width: 1.0;"/><text fill="#000000" font-family="sans-serif" font-size="11" lengthAdjust="spacingAndGlyphs" textLength="93" x="70" y="932.4424">void  connorBade()</text><!--class decorator.ConcreteBoi--><rect fill="#FEFECE" filter="url(#fscvqxq4ag4re)" height="180.7109" id="decorator.ConcreteBoi" style="stroke: #A80036; stroke-width: 1.5;" width="211" x="75.5" y="551"/><ellipse cx="132.25" cy="571.0938" fill="#ADD1B2" rx="11" ry="11" style="stroke: #A80036; stroke-width: 1.0;"/><path d="M135.0156,566.9688 Q135.1719,566.75 135.3594,566.6406 Q135.5469,566.5313 135.7656,566.5313 Q136.1406,566.5313 136.375,566.7891 Q136.6094,567.0469 136.6094,567.6563 L136.6094,569.1094 Q136.6094,569.7188 136.375,569.9844 Q136.1406,570.25 135.7656,570.25 Q135.4219,570.25 135.2188,570.0469 Q135.0156,569.8594 134.9063,569.3438 Q134.8594,568.9844 134.6719,568.7969 Q134.3438,568.4219 133.7344,568.2031 Q133.125,567.9844 132.5,567.9844 Q131.7344,567.9844 131.1016,568.3125 Q130.4688,568.6406 129.9766,569.3906 Q129.4844,570.1406 129.4844,571.1719 L129.4844,572.2656 Q129.4844,573.5 130.375,574.3203 Q131.2656,575.1406 132.8594,575.1406 Q133.7969,575.1406 134.4531,574.8906 Q134.8438,574.7344 135.2656,574.2969 Q135.5313,574.0313 135.6797,573.9531 Q135.8281,573.875 136.0313,573.875 Q136.3594,573.875 136.6172,574.1328 Q136.875,574.3906 136.875,574.7344 Q136.875,575.0781 136.5313,575.4844 Q136.0313,576.0625 135.2344,576.3906 Q134.1563,576.8438 132.8594,576.8438 Q131.3438,576.8438 130.1406,576.2188 Q129.1563,575.7188 128.4688,574.6484 Q127.7813,573.5781 127.7813,572.2969 L127.7813,571.1406 Q127.7813,569.8125 128.3984,568.6641 Q129.0156,567.5156 130.1094,566.8984 Q131.2031,566.2813 132.4375,566.2813 Q133.1719,566.2813 133.8203,566.4453 Q134.4688,566.6094 135.0156,566.9688 Z "/><text fill="#000000" font-family="sans-serif" font-size="12" font-style="italic" lengthAdjust="spacingAndGlyphs" textLength="93" x="150.75" y="568.457">«Bad Decorator»</text><text fill="#000000" font-family="sans-serif" font-size="12" lengthAdjust="spacingAndGlyphs" textLength="68" x="163.25" y="583.5508">ConcreteBoi</text><line style="stroke: #A80036; stroke-width: 1.5;" x1="76.5" x2="285.5" y1="591.1875" y2="591.1875"/><polygon fill="none" points="86.5,599.6055,82.5,605.6055,90.5,605.6055" style="stroke: #1963A0; stroke-width: 1.0;"/><text fill="#000000" font-family="sans-serif" font-size="11" lengthAdjust="spacingAndGlyphs" textLength="130" x="95.5" y="606.6064">decorator.AbstractBoi aboi</text><line style="stroke: #A80036; stroke-width: 1.5;" x1="76.5" x2="285.5" y1="613.0234" y2="613.0234"/><ellipse cx="86.5" cy="625.4414" fill="#84BE84" rx="3" ry="3" style="stroke: #038048; stroke-width: 1.0;"/><text fill="#FF0000" font-family="sans-serif" font-size="11" lengthAdjust="spacingAndGlyphs" textLength="59" x="95.5" y="628.4424">void  &lt;init&gt;()</text><ellipse cx="86.5" cy="639.2773" fill="#84BE84" rx="3" ry="3" style="stroke: #038048; stroke-width: 1.0;"/><text fill="#000000" font-family="sans-serif" font-size="11" lengthAdjust="spacingAndGlyphs" textLength="51" x="95.5" y="642.2783">void  doIt()</text><ellipse cx="86.5" cy="653.1133" fill="#84BE84" rx="3" ry="3" style="stroke: #038048; stroke-width: 1.0;"/><text fill="#000000" font-family="sans-serif" font-size="11" lengthAdjust="spacingAndGlyphs" textLength="109" x="95.5" y="656.1143">void  notConnorBade()</text><ellipse cx="86.5" cy="666.9492" fill="#84BE84" rx="3" ry="3" style="stroke: #038048; stroke-width: 1.0;"/><text fill="#000000" font-family="sans-serif" font-size="11" lengthAdjust="spacingAndGlyphs" textLength="185" x="95.5" y="669.9502">void  setMyBoi(decorator.AbstractBoi)</text><ellipse cx="86.5" cy="680.7852" fill="#84BE84" rx="3" ry="3" style="stroke: #038048; stroke-width: 1.0;"/><text fill="#000000" font-family="sans-serif" font-size="11" lengthAdjust="spacingAndGlyphs" textLength="65" x="95.5" y="683.7861">int  returnInt()</text><ellipse cx="86.5" cy="694.6211" fill="#84BE84" rx="3" ry="3" style="stroke: #038048; stroke-width: 1.0;"/><text fill="#000000" font-family="sans-serif" font-size="11" lengthAdjust="spacingAndGlyphs" textLength="70" x="95.5" y="697.6221">void  hehehe()</text><ellipse cx="86.5" cy="708.457" fill="#84BE84" rx="3" ry="3" style="stroke: #038048; stroke-width: 1.0;"/><text fill="#000000" font-family="sans-serif" font-size="11" lengthAdjust="spacingAndGlyphs" text-decoration="underline" textLength="136" x="95.5" y="711.458">void  main(java.lang.String[])</text><line style="stroke: #000000; stroke-width: 1.0;" x1="95.5" x2="231.5" y1="713.458" y2="713.458"/><ellipse cx="86.5" cy="722.293" fill="#84BE84" rx="3" ry="3" style="stroke: #038048; stroke-width: 1.0;"/><text fill="#FF0000" font-family="sans-serif" font-size="11" lengthAdjust="spacingAndGlyphs" textLength="93" x="95.5" y="725.2939">void  connorBade()</text><!--class decorator.DecoratorBoi--><rect fill="#FEFECE" filter="url(#fscvqxq4ag4re)" height="125.3672" id="decorator.DecoratorBoi" style="stroke: #A80036; stroke-width: 1.5;" width="213" x="321.5" y="579"/><ellipse cx="379.25" cy="599.0938" fill="#ADD1B2" rx="11" ry="11" style="stroke: #A80036; stroke-width: 1.0;"/><path d="M382.0156,594.9688 Q382.1719,594.75 382.3594,594.6406 Q382.5469,594.5313 382.7656,594.5313 Q383.1406,594.5313 383.375,594.7891 Q383.6094,595.0469 383.6094,595.6563 L383.6094,597.1094 Q383.6094,597.7188 383.375,597.9844 Q383.1406,598.25 382.7656,598.25 Q382.4219,598.25 382.2188,598.0469 Q382.0156,597.8594 381.9063,597.3438 Q381.8594,596.9844 381.6719,596.7969 Q381.3438,596.4219 380.7344,596.2031 Q380.125,595.9844 379.5,595.9844 Q378.7344,595.9844 378.1016,596.3125 Q377.4688,596.6406 376.9766,597.3906 Q376.4844,598.1406 376.4844,599.1719 L376.4844,600.2656 Q376.4844,601.5 377.375,602.3203 Q378.2656,603.1406 379.8594,603.1406 Q380.7969,603.1406 381.4531,602.8906 Q381.8438,602.7344 382.2656,602.2969 Q382.5313,602.0313 382.6797,601.9531 Q382.8281,601.875 383.0313,601.875 Q383.3594,601.875 383.6172,602.1328 Q383.875,602.3906 383.875,602.7344 Q383.875,603.0781 383.5313,603.4844 Q383.0313,604.0625 382.2344,604.3906 Q381.1563,604.8438 379.8594,604.8438 Q378.3438,604.8438 377.1406,604.2188 Q376.1563,603.7188 375.4688,602.6484 Q374.7813,601.5781 374.7813,600.2969 L374.7813,599.1406 Q374.7813,597.8125 375.3984,596.6641 Q376.0156,595.5156 377.1094,594.8984 Q378.2031,594.2813 379.4375,594.2813 Q380.1719,594.2813 380.8203,594.4453 Q381.4688,594.6094 382.0156,594.9688 Z "/><text fill="#000000" font-family="sans-serif" font-size="12" font-style="italic" lengthAdjust="spacingAndGlyphs" textLength="93" x="397.75" y="596.457">«Bad Decorator»</text><text fill="#000000" font-family="sans-serif" font-size="12" lengthAdjust="spacingAndGlyphs" textLength="72" x="408.25" y="611.5508">DecoratorBoi</text><line style="stroke: #A80036; stroke-width: 1.5;" x1="322.5" x2="533.5" y1="619.1875" y2="619.1875"/><rect fill="none" height="6" style="stroke: #C82930; stroke-width: 1.0;" width="6" x="329.5" y="628.6055"/><text fill="#000000" font-family="sans-serif" font-size="11" lengthAdjust="spacingAndGlyphs" textLength="180" x="341.5" y="634.6064">decorator.ConcreteSubBoi decorated</text><line style="stroke: #A80036; stroke-width: 1.5;" x1="322.5" x2="533.5" y1="641.0234" y2="641.0234"/><ellipse cx="332.5" cy="653.4414" fill="#84BE84" rx="3" ry="3" style="stroke: #038048; stroke-width: 1.0;"/><text fill="#000000" font-family="sans-serif" font-size="11" lengthAdjust="spacingAndGlyphs" textLength="187" x="341.5" y="656.4424">void  &lt;init&gt;(decorator.ConcreteSubBoi)</text><ellipse cx="332.5" cy="667.2773" fill="#84BE84" rx="3" ry="3" style="stroke: #038048; stroke-width: 1.0;"/><text fill="#000000" font-family="sans-serif" font-size="11" lengthAdjust="spacingAndGlyphs" textLength="109" x="341.5" y="670.2783">void  notConnorBade()</text><ellipse cx="332.5" cy="681.1133" fill="#84BE84" rx="3" ry="3" style="stroke: #038048; stroke-width: 1.0;"/><text fill="#FF0000" font-family="sans-serif" font-size="11" lengthAdjust="spacingAndGlyphs" textLength="51" x="341.5" y="684.1143">void  doIt()</text><ellipse cx="332.5" cy="694.9492" fill="#84BE84" rx="3" ry="3" style="stroke: #038048; stroke-width: 1.0;"/><text fill="#FF0000" font-family="sans-serif" font-size="11" lengthAdjust="spacingAndGlyphs" textLength="93" x="341.5" y="697.9502">void  connorBade()</text><!--class decorator.ConcreteSubBoi--><rect fill="#7FFF00" filter="url(#fscvqxq4ag4re)" height="111.5313" id="decorator.ConcreteSubBoi" style="stroke: #A80036; stroke-width: 1.5;" width="135" x="256.5" y="292.5"/><ellipse cx="277.35" cy="312.5938" fill="#ADD1B2" rx="11" ry="11" style="stroke: #A80036; stroke-width: 1.0;"/><path d="M280.1156,308.4688 Q280.2719,308.25 280.4594,308.1406 Q280.6469,308.0313 280.8656,308.0313 Q281.2406,308.0313 281.475,308.2891 Q281.7094,308.5469 281.7094,309.1563 L281.7094,310.6094 Q281.7094,311.2188 281.475,311.4844 Q281.2406,311.75 280.8656,311.75 Q280.5219,311.75 280.3188,311.5469 Q280.1156,311.3594 280.0063,310.8438 Q279.9594,310.4844 279.7719,310.2969 Q279.4438,309.9219 278.8344,309.7031 Q278.225,309.4844 277.6,309.4844 Q276.8344,309.4844 276.2016,309.8125 Q275.5688,310.1406 275.0766,310.8906 Q274.5844,311.6406 274.5844,312.6719 L274.5844,313.7656 Q274.5844,315 275.475,315.8203 Q276.3656,316.6406 277.9594,316.6406 Q278.8969,316.6406 279.5531,316.3906 Q279.9438,316.2344 280.3656,315.7969 Q280.6313,315.5313 280.7797,315.4531 Q280.9281,315.375 281.1313,315.375 Q281.4594,315.375 281.7172,315.6328 Q281.975,315.8906 281.975,316.2344 Q281.975,316.5781 281.6313,316.9844 Q281.1313,317.5625 280.3344,317.8906 Q279.2563,318.3438 277.9594,318.3438 Q276.4438,318.3438 275.2406,317.7188 Q274.2563,317.2188 273.5688,316.1484 Q272.8813,315.0781 272.8813,313.7969 L272.8813,312.6406 Q272.8813,311.3125 273.4984,310.1641 Q274.1156,309.0156 275.2094,308.3984 Q276.3031,307.7813 277.5375,307.7813 Q278.2719,307.7813 278.9203,307.9453 Q279.5688,308.1094 280.1156,308.4688 Z "/><text fill="#000000" font-family="sans-serif" font-size="12" font-style="italic" lengthAdjust="spacingAndGlyphs" textLength="79" x="298.15" y="309.957">«Component»</text><text fill="#000000" font-family="sans-serif" font-size="12" lengthAdjust="spacingAndGlyphs" textLength="90" x="292.65" y="325.0508">ConcreteSubBoi</text><line style="stroke: #A80036; stroke-width: 1.5;" x1="257.5" x2="390.5" y1="332.6875" y2="332.6875"/><line style="stroke: #A80036; stroke-width: 1.5;" x1="257.5" x2="390.5" y1="340.6875" y2="340.6875"/><ellipse cx="267.5" cy="353.1055" fill="#84BE84" rx="3" ry="3" style="stroke: #038048; stroke-width: 1.0;"/><text fill="#000000" font-family="sans-serif" font-size="11" lengthAdjust="spacingAndGlyphs" textLength="59" x="276.5" y="356.1064">void  &lt;init&gt;()</text><ellipse cx="267.5" cy="366.9414" fill="#84BE84" rx="3" ry="3" style="stroke: #038048; stroke-width: 1.0;"/><text fill="#000000" font-family="sans-serif" font-size="11" lengthAdjust="spacingAndGlyphs" textLength="51" x="276.5" y="369.9424">void  doIt()</text><ellipse cx="267.5" cy="380.7773" fill="#84BE84" rx="3" ry="3" style="stroke: #038048; stroke-width: 1.0;"/><text fill="#000000" font-family="sans-serif" font-size="11" lengthAdjust="spacingAndGlyphs" textLength="109" x="276.5" y="383.7783">void  notConnorBade()</text><ellipse cx="267.5" cy="394.6133" fill="#84BE84" rx="3" ry="3" style="stroke: #038048; stroke-width: 1.0;"/><text fill="#000000" font-family="sans-serif" font-size="11" lengthAdjust="spacingAndGlyphs" textLength="93" x="276.5" y="397.6143">void  connorBade()</text><!--link decorator.InterfaceBoi to decorator.AbstractBoi--><path d="M127,176.636 C127,176.636 127,285.63 127,285.63 " fill="none" id="decorator.InterfaceBoi-decorator.AbstractBoi" style="stroke: #A80036; stroke-width: 1.0; stroke-dasharray: 7.0,7.0;"/><polygon fill="none" points="120,176.636,127,156.636,134,176.636,120,176.636" style="stroke: #A80036; stroke-width: 1.0;"/><!--link decorator.AbstractBoi to decorator.AbstractSubBoi--><path d="M189.667,265.685 C189.667,265.685 189.667,97 189.667,97 C189.667,97 199.833,97 214.329,97 " fill="none" id="decorator.AbstractBoi-decorator.AbstractSubBoi" style="stroke: #A80036; stroke-width: 1.0;"/><polygon fill="none" points="196.667,265.685,189.667,285.685,182.667,265.685,196.667,265.685" style="stroke: #A80036; stroke-width: 1.0;"/><!--link decorator.AbstractSubBoi to decorator.AbstractBoi--><path d="M214.148,127 C205.725,127 200.333,127 200.333,127 C200.333,127 200.333,280.915 200.333,280.915 " fill="none" id="decorator.AbstractSubBoi-decorator.AbstractBoi" style="stroke: #A80036; stroke-width: 1.0;"/><polygon fill="#A80036" points="200.333,285.915,204.333,276.915,200.333,280.915,196.333,276.915,200.333,285.915" style="stroke: #A80036; stroke-width: 1.0;"/><!--link decorator.ConcreteBoi to decorator.ConcreteInheritanceBoi--><path d="M158.75,752.299 C158.75,752.299 158.75,854.762 158.75,854.762 " fill="none" id="decorator.ConcreteBoi-decorator.ConcreteInheritanceBoi" style="stroke: #A80036; stroke-width: 1.0;"/><polygon fill="none" points="151.75,752.299,158.75,732.299,165.75,752.299,151.75,752.299" style="stroke: #A80036; stroke-width: 1.0;"/><!--link decorator.ConcreteInheritanceBoi to decorator.AbstractBoi--><path d="M62.5,854.909 C62.5,726.588 62.5,349 62.5,349 C62.5,349 69.7262,349 69.7262,349 " fill="none" id="decorator.ConcreteInheritanceBoi-decorator.AbstractBoi" style="stroke: #A80036; stroke-width: 1.0; stroke-dasharray: 7.0,7.0;"/><polygon fill="#A80036" points="74.7262,349,65.7262,345,69.7262,349,65.7262,353,74.7262,349" style="stroke: #A80036; stroke-width: 1.0;"/><!--link decorator.AbstractBoi to decorator.ConcreteBoi--><path d="M165.833,431.356 C165.833,431.356 165.833,550.946 165.833,550.946 " fill="none" id="decorator.AbstractBoi-decorator.ConcreteBoi" style="stroke: #A80036; stroke-width: 1.0;"/><polygon fill="none" points="158.833,431.356,165.833,411.356,172.833,431.356,158.833,431.356" style="stroke: #A80036; stroke-width: 1.0;"/><!--link decorator.ConcreteBoi to decorator.AbstractBoi--><path d="M120.667,550.8 C120.667,550.8 120.667,416.4 120.667,416.4 " fill="none" id="decorator.ConcreteBoi-decorator.AbstractBoi" style="stroke: #A80036; stroke-width: 1.0;"/><polygon fill="#A80036" points="120.667,411.4,116.667,420.4,120.667,416.4,124.667,420.4,120.667,411.4" style="stroke: #A80036; stroke-width: 1.0;"/><text fill="#000000" font-family="sans-serif" font-size="13" lengthAdjust="spacingAndGlyphs" textLength="71" x="182" y="486.4951">«decorates»</text><!--link decorator.ConcreteSubBoi to decorator.DecoratorBoi--><path d="M368.167,424.647 C368.167,424.647 368.167,578.945 368.167,578.945 " fill="none" id="decorator.ConcreteSubBoi-decorator.DecoratorBoi" style="stroke: #A80036; stroke-width: 1.0;"/><polygon fill="none" points="361.167,424.647,368.167,404.647,375.167,424.647,361.167,424.647" style="stroke: #A80036; stroke-width: 1.0;"/><!--link decorator.DecoratorBoi to decorator.ConcreteSubBoi--><path d="M344.833,578.644 C344.833,578.644 344.833,409.813 344.833,409.813 " fill="none" id="decorator.DecoratorBoi-decorator.ConcreteSubBoi" style="stroke: #A80036; stroke-width: 1.0;"/><polygon fill="#A80036" points="344.833,404.813,340.833,413.813,344.833,409.813,348.833,413.813,344.833,404.813" style="stroke: #A80036; stroke-width: 1.0;"/><text fill="#000000" font-family="sans-serif" font-size="13" lengthAdjust="spacingAndGlyphs" textLength="71" x="325" y="486.4951">«decorates»</text><!--link decorator.AbstractSubBoi to decorator.ConcreteSubBoi--><path d="M324,183.218 C324,183.218 324,292.339 324,292.339 " fill="none" id="decorator.AbstractSubBoi-decorator.ConcreteSubBoi" style="stroke: #A80036; stroke-width: 1.0;"/><polygon fill="none" points="317,183.218,324,163.218,331,183.218,317,183.218" style="stroke: #A80036; stroke-width: 1.0;"/></g></svg>