<?xml version="1.0" encoding="UTF-8" standalone="no"?><svg xmlns="http://www.w3.org/2000/svg" xmlns:xlink="http://www.w3.org/1999/xlink" contentScriptType="application/ecmascript" contentStyleType="text/css" height="882px" preserveAspectRatio="none" style="width:487px;height:882px;" version="1.1" viewBox="0 0 487 882" width="487px" zoomAndPan="magnify"><defs><filter height="300%" id="f8uie3d19jtoz" width="300%" x="-1" y="-1"><feGaussianBlur result="blurOut" stdDeviation="2.0"/><feColorMatrix in="blurOut" result="blurOut2" type="matrix" values="0 0 0 0 0 0 0 0 0 0 0 0 0 0 0 0 0 0 .4 0"/><feOffset dx="4.0" dy="4.0" in="blurOut2" result="blurOut3"/><feBlend in="SourceGraphic" in2="blurOut3" mode="normal"/></filter></defs><g><!--cluster decorator--><polygon fill="#FFFFFF" filter="url(#f8uie3d19jtoz)" points="22,24,97,24,104,47.6094,465,47.6094,465,870,22,870,22,24" style="stroke: #000000; stroke-width: 1.5;"/><line style="stroke: #000000; stroke-width: 1.5;" x1="22" x2="104" y1="47.6094" y2="47.6094"/><text fill="#000000" font-family="sans-serif" font-size="14" font-weight="bold" lengthAdjust="spacingAndGlyphs" textLength="69" x="26" y="40.5332">decorator</text><!--class decorator.AbstractBoi--><rect fill="#7FFF00" filter="url(#f8uie3d19jtoz)" height="111.5313" id="decorator.AbstractBoi" style="stroke: #A80036; stroke-width: 1.5;" width="136" x="51" y="293"/><ellipse cx="79.05" cy="313.0938" fill="#A9DCDF" rx="11" ry="11" style="stroke: #A80036; stroke-width: 1.0;"/><path d="M81.2375,314.8594 L77.0969,314.8594 L76.675,315.8906 L77.0969,315.8906 Q77.7063,315.8906 77.9719,316.125 Q78.2375,316.3594 78.2375,316.75 Q78.2375,317.125 77.9719,317.3594 Q77.7063,317.5938 77.0969,317.5938 L74.8,317.5938 Q74.1906,317.5938 73.9328,317.3594 Q73.675,317.125 73.675,316.7344 Q73.675,316.3594 73.9484,316.1172 Q74.2219,315.875 74.8469,315.8906 L77.5188,309.2344 L76.4094,309.2344 Q75.8,309.2344 75.5344,309 Q75.2688,308.7656 75.2688,308.375 Q75.2688,308 75.5344,307.7656 Q75.8,307.5313 76.4094,307.5313 L80.0813,307.5313 L83.4719,315.8906 Q84.0656,315.8906 84.2531,316.0313 Q84.6438,316.2969 84.6438,316.75 Q84.6438,317.125 84.3859,317.3594 Q84.1281,317.5938 83.5188,317.5938 L81.2219,317.5938 Q80.6125,317.5938 80.3469,317.3594 Q80.0813,317.125 80.0813,316.7344 Q80.0813,316.3594 80.3469,316.125 Q80.6125,315.8906 81.2219,315.8906 L81.6438,315.8906 L81.2375,314.8594 Z M80.5188,313.1563 L79.1594,309.7813 L77.7844,313.1563 L80.5188,313.1563 Z "/><text fill="#000000" font-family="sans-serif" font-size="12" font-style="italic" lengthAdjust="spacingAndGlyphs" textLength="79" x="93.95" y="310.457">«Component»</text><text fill="#000000" font-family="sans-serif" font-size="12" font-style="italic" lengthAdjust="spacingAndGlyphs" textLength="63" x="101.95" y="325.5508">AbstractBoi</text><line style="stroke: #A80036; stroke-width: 1.5;" x1="52" x2="186" y1="333.1875" y2="333.1875"/><line style="stroke: #A80036; stroke-width: 1.5;" x1="52" x2="186" y1="341.1875" y2="341.1875"/><ellipse cx="62" cy="353.6055" fill="#84BE84" rx="3" ry="3" style="stroke: #038048; stroke-width: 1.0;"/><text fill="#000000" font-family="sans-serif" font-size="11" lengthAdjust="spacingAndGlyphs" textLength="59" x="71" y="356.6064">void  &lt;init&gt;()</text><ellipse cx="62" cy="367.4414" fill="#84BE84" rx="3" ry="3" style="stroke: #038048; stroke-width: 1.0;"/><text fill="#000000" font-family="sans-serif" font-size="11" font-style="italic" lengthAdjust="spacingAndGlyphs" textLength="52" x="71" y="370.4424">void  doIt()</text><ellipse cx="62" cy="381.2773" fill="#84BE84" rx="3" ry="3" style="stroke: #038048; stroke-width: 1.0;"/><text fill="#000000" font-family="sans-serif" font-size="11" lengthAdjust="spacingAndGlyphs" textLength="93" x="71" y="384.2783">void  connorBade()</text><ellipse cx="62" cy="395.1133" fill="#84BE84" rx="3" ry="3" style="stroke: #038048; stroke-width: 1.0;"/><text fill="#000000" font-family="sans-serif" font-size="11" font-style="italic" lengthAdjust="spacingAndGlyphs" textLength="110" x="71" y="398.1143">void  notConnorBade()</text><!--class decorator.InterfaceBoi--><rect fill="#FEFECE" filter="url(#f8uie3d19jtoz)" height="89.5078" id="decorator.InterfaceBoi" style="stroke: #A80036; stroke-width: 1.5;" width="136" x="42" y="71"/><ellipse cx="74.1" cy="87" fill="#B4A7E5" rx="11" ry="11" style="stroke: #A80036; stroke-width: 1.0;"/><path d="M75.0531,83.6406 L75.0531,90.2969 L76.7719,90.2969 Q77.3813,90.2969 77.6469,90.5313 Q77.9125,90.7656 77.9125,91.1563 Q77.9125,91.5313 77.6469,91.7656 Q77.3813,92 76.7719,92 L71.6313,92 Q71.0219,92 70.7563,91.7656 Q70.4906,91.5313 70.4906,91.1406 Q70.4906,90.7656 70.7563,90.5313 Q71.0219,90.2969 71.6313,90.2969 L73.35,90.2969 L73.35,83.6406 L71.6313,83.6406 Q71.0219,83.6406 70.7563,83.4063 Q70.4906,83.1719 70.4906,82.7813 Q70.4906,82.4063 70.7563,82.1719 Q71.0219,81.9375 71.6313,81.9375 L76.7719,81.9375 Q77.3813,81.9375 77.6469,82.1719 Q77.9125,82.4063 77.9125,82.7813 Q77.9125,83.1719 77.6469,83.4063 Q77.3813,83.6406 76.7719,83.6406 L75.0531,83.6406 Z "/><text fill="#000000" font-family="sans-serif" font-size="12" font-style="italic" lengthAdjust="spacingAndGlyphs" textLength="66" x="91.9" y="91.9102">InterfaceBoi</text><line style="stroke: #A80036; stroke-width: 1.5;" x1="43" x2="177" y1="103" y2="103"/><line style="stroke: #A80036; stroke-width: 1.5;" x1="43" x2="177" y1="111" y2="111"/><ellipse cx="53" cy="123.418" fill="#84BE84" rx="3" ry="3" style="stroke: #038048; stroke-width: 1.0;"/><text fill="#000000" font-family="sans-serif" font-size="11" font-style="italic" lengthAdjust="spacingAndGlyphs" textLength="52" x="62" y="126.4189">void  doIt()</text><ellipse cx="53" cy="137.2539" fill="#84BE84" rx="3" ry="3" style="stroke: #038048; stroke-width: 1.0;"/><text fill="#000000" font-family="sans-serif" font-size="11" font-style="italic" lengthAdjust="spacingAndGlyphs" textLength="93" x="62" y="140.2549">void  connorBade()</text><ellipse cx="53" cy="151.0898" fill="#84BE84" rx="3" ry="3" style="stroke: #038048; stroke-width: 1.0;"/><text fill="#000000" font-family="sans-serif" font-size="11" font-style="italic" lengthAdjust="spacingAndGlyphs" textLength="110" x="62" y="154.0908">void  notConnorBade()</text><!--class decorator.AbstractSubBoi--><rect fill="#7FFF00" filter="url(#f8uie3d19jtoz)" height="111.5313" id="decorator.AbstractSubBoi" style="stroke: #A80036; stroke-width: 1.5;" width="197" x="213.5" y="60"/><ellipse cx="263.25" cy="80.0938" fill="#A9DCDF" rx="11" ry="11" style="stroke: #A80036; stroke-width: 1.0;"/><path d="M265.4375,81.8594 L261.2969,81.8594 L260.875,82.8906 L261.2969,82.8906 Q261.9063,82.8906 262.1719,83.125 Q262.4375,83.3594 262.4375,83.75 Q262.4375,84.125 262.1719,84.3594 Q261.9063,84.5938 261.2969,84.5938 L259,84.5938 Q258.3906,84.5938 258.1328,84.3594 Q257.875,84.125 257.875,83.7344 Q257.875,83.3594 258.1484,83.1172 Q258.4219,82.875 259.0469,82.8906 L261.7188,76.2344 L260.6094,76.2344 Q260,76.2344 259.7344,76 Q259.4688,75.7656 259.4688,75.375 Q259.4688,75 259.7344,74.7656 Q260,74.5313 260.6094,74.5313 L264.2813,74.5313 L267.6719,82.8906 Q268.2656,82.8906 268.4531,83.0313 Q268.8438,83.2969 268.8438,83.75 Q268.8438,84.125 268.5859,84.3594 Q268.3281,84.5938 267.7188,84.5938 L265.4219,84.5938 Q264.8125,84.5938 264.5469,84.3594 Q264.2813,84.125 264.2813,83.7344 Q264.2813,83.3594 264.5469,83.125 Q264.8125,82.8906 265.4219,82.8906 L265.8438,82.8906 L265.4375,81.8594 Z M264.7188,80.1563 L263.3594,76.7813 L261.9844,80.1563 L264.7188,80.1563 Z "/><text fill="#000000" font-family="sans-serif" font-size="12" font-style="italic" lengthAdjust="spacingAndGlyphs" textLength="93" x="281.75" y="77.457">«Bad Decorator»</text><text fill="#000000" font-family="sans-serif" font-size="12" font-style="italic" lengthAdjust="spacingAndGlyphs" textLength="86" x="285.25" y="92.5508">AbstractSubBoi</text><line style="stroke: #A80036; stroke-width: 1.5;" x1="214.5" x2="409.5" y1="100.1875" y2="100.1875"/><polygon fill="none" points="224.5,107.6055,228.5,111.6055,224.5,115.6055,220.5,111.6055" style="stroke: #B38D22; stroke-width: 1.0;"/><text fill="#000000" font-family="sans-serif" font-size="11" lengthAdjust="spacingAndGlyphs" textLength="130" x="233.5" y="115.6064">decorator.AbstractBoi aboi</text><line style="stroke: #A80036; stroke-width: 1.5;" x1="214.5" x2="409.5" y1="122.0234" y2="122.0234"/><ellipse cx="224.5" cy="134.4414" fill="#84BE84" rx="3" ry="3" style="stroke: #038048; stroke-width: 1.0;"/><text fill="#000000" font-family="sans-serif" font-size="11" lengthAdjust="spacingAndGlyphs" textLength="59" x="233.5" y="137.4424">void  &lt;init&gt;()</text><ellipse cx="224.5" cy="148.2773" fill="#84BE84" rx="3" ry="3" style="stroke: #038048; stroke-width: 1.0;"/><text fill="#000000" font-family="sans-serif" font-size="11" font-style="italic" lengthAdjust="spacingAndGlyphs" textLength="93" x="233.5" y="151.2783">void  connorBade()</text><ellipse cx="224.5" cy="162.1133" fill="#84BE84" rx="3" ry="3" style="stroke: #038048; stroke-width: 1.0;"/><text fill="#000000" font-family="sans-serif" font-size="11" lengthAdjust="spacingAndGlyphs" textLength="171" x="233.5" y="165.1143">void  setBoi(decorator.AbstractBoi)</text><!--class decorator.ConcreteInheritanceBoi--><rect fill="#FEFECE" filter="url(#f8uie3d19jtoz)" height="75.6719" id="decorator.ConcreteInheritanceBoi" style="stroke: #A80036; stroke-width: 1.5;" width="161" x="38.5" y="778"/><ellipse cx="53.5" cy="794" fill="#ADD1B2" rx="11" ry="11" style="stroke: #A80036; stroke-width: 1.0;"/><path d="M56.2656,789.875 Q56.4219,789.6563 56.6094,789.5469 Q56.7969,789.4375 57.0156,789.4375 Q57.3906,789.4375 57.625,789.6953 Q57.8594,789.9531 57.8594,790.5625 L57.8594,792.0156 Q57.8594,792.625 57.625,792.8906 Q57.3906,793.1563 57.0156,793.1563 Q56.6719,793.1563 56.4688,792.9531 Q56.2656,792.7656 56.1563,792.25 Q56.1094,791.8906 55.9219,791.7031 Q55.5938,791.3281 54.9844,791.1094 Q54.375,790.8906 53.75,790.8906 Q52.9844,790.8906 52.3516,791.2188 Q51.7188,791.5469 51.2266,792.2969 Q50.7344,793.0469 50.7344,794.0781 L50.7344,795.1719 Q50.7344,796.4063 51.625,797.2266 Q52.5156,798.0469 54.1094,798.0469 Q55.0469,798.0469 55.7031,797.7969 Q56.0938,797.6406 56.5156,797.2031 Q56.7813,796.9375 56.9297,796.8594 Q57.0781,796.7813 57.2813,796.7813 Q57.6094,796.7813 57.8672,797.0391 Q58.125,797.2969 58.125,797.6406 Q58.125,797.9844 57.7813,798.3906 Q57.2813,798.9688 56.4844,799.2969 Q55.4063,799.75 54.1094,799.75 Q52.5938,799.75 51.3906,799.125 Q50.4063,798.625 49.7188,797.5547 Q49.0313,796.4844 49.0313,795.2031 L49.0313,794.0469 Q49.0313,792.7188 49.6484,791.5703 Q50.2656,790.4219 51.3594,789.8047 Q52.4531,789.1875 53.6875,789.1875 Q54.4219,789.1875 55.0703,789.3516 Q55.7188,789.5156 56.2656,789.875 Z "/><text fill="#000000" font-family="sans-serif" font-size="12" lengthAdjust="spacingAndGlyphs" textLength="129" x="67.5" y="798.9102">ConcreteInheritanceBoi</text><line style="stroke: #A80036; stroke-width: 1.5;" x1="39.5" x2="198.5" y1="810" y2="810"/><line style="stroke: #A80036; stroke-width: 1.5;" x1="39.5" x2="198.5" y1="818" y2="818"/><ellipse cx="49.5" cy="830.418" fill="#84BE84" rx="3" ry="3" style="stroke: #038048; stroke-width: 1.0;"/><text fill="#000000" font-family="sans-serif" font-size="11" lengthAdjust="spacingAndGlyphs" textLength="59" x="58.5" y="833.4189">void  &lt;init&gt;()</text><ellipse cx="49.5" cy="844.2539" fill="#84BE84" rx="3" ry="3" style="stroke: #038048; stroke-width: 1.0;"/><text fill="#000000" font-family="sans-serif" font-size="11" lengthAdjust="spacingAndGlyphs" textLength="93" x="58.5" y="847.2549">void  connorBade()</text><!--class decorator.ConcreteBoi--><rect fill="#FEFECE" filter="url(#f8uie3d19jtoz)" height="131.0156" id="decorator.ConcreteBoi" style="stroke: #A80036; stroke-width: 1.5;" width="162" x="38" y="526"/><ellipse cx="80.9" cy="542" fill="#ADD1B2" rx="11" ry="11" style="stroke: #A80036; stroke-width: 1.0;"/><path d="M83.6656,537.875 Q83.8219,537.6563 84.0094,537.5469 Q84.1969,537.4375 84.4156,537.4375 Q84.7906,537.4375 85.025,537.6953 Q85.2594,537.9531 85.2594,538.5625 L85.2594,540.0156 Q85.2594,540.625 85.025,540.8906 Q84.7906,541.1563 84.4156,541.1563 Q84.0719,541.1563 83.8688,540.9531 Q83.6656,540.7656 83.5563,540.25 Q83.5094,539.8906 83.3219,539.7031 Q82.9938,539.3281 82.3844,539.1094 Q81.775,538.8906 81.15,538.8906 Q80.3844,538.8906 79.7516,539.2188 Q79.1188,539.5469 78.6266,540.2969 Q78.1344,541.0469 78.1344,542.0781 L78.1344,543.1719 Q78.1344,544.4063 79.025,545.2266 Q79.9156,546.0469 81.5094,546.0469 Q82.4469,546.0469 83.1031,545.7969 Q83.4938,545.6406 83.9156,545.2031 Q84.1813,544.9375 84.3297,544.8594 Q84.4781,544.7813 84.6813,544.7813 Q85.0094,544.7813 85.2672,545.0391 Q85.525,545.2969 85.525,545.6406 Q85.525,545.9844 85.1813,546.3906 Q84.6813,546.9688 83.8844,547.2969 Q82.8063,547.75 81.5094,547.75 Q79.9938,547.75 78.7906,547.125 Q77.8063,546.625 77.1188,545.5547 Q76.4313,544.4844 76.4313,543.2031 L76.4313,542.0469 Q76.4313,540.7188 77.0484,539.5703 Q77.6656,538.4219 78.7594,537.8047 Q79.8531,537.1875 81.0875,537.1875 Q81.8219,537.1875 82.4703,537.3516 Q83.1188,537.5156 83.6656,537.875 Z "/><text fill="#000000" font-family="sans-serif" font-size="12" lengthAdjust="spacingAndGlyphs" textLength="68" x="101.1" y="546.9102">ConcreteBoi</text><line style="stroke: #A80036; stroke-width: 1.5;" x1="39" x2="199" y1="558" y2="558"/><polygon fill="none" points="49,566.418,45,572.418,53,572.418" style="stroke: #1963A0; stroke-width: 1.0;"/><text fill="#000000" font-family="sans-serif" font-size="11" lengthAdjust="spacingAndGlyphs" textLength="130" x="58" y="573.4189">decorator.AbstractBoi aboi</text><line style="stroke: #A80036; stroke-width: 1.5;" x1="39" x2="199" y1="579.8359" y2="579.8359"/><ellipse cx="49" cy="592.2539" fill="#84BE84" rx="3" ry="3" style="stroke: #038048; stroke-width: 1.0;"/><text fill="#000000" font-family="sans-serif" font-size="11" lengthAdjust="spacingAndGlyphs" textLength="59" x="58" y="595.2549">void  &lt;init&gt;()</text><ellipse cx="49" cy="606.0898" fill="#84BE84" rx="3" ry="3" style="stroke: #038048; stroke-width: 1.0;"/><text fill="#000000" font-family="sans-serif" font-size="11" lengthAdjust="spacingAndGlyphs" textLength="51" x="58" y="609.0908">void  doIt()</text><ellipse cx="49" cy="619.9258" fill="#84BE84" rx="3" ry="3" style="stroke: #038048; stroke-width: 1.0;"/><text fill="#000000" font-family="sans-serif" font-size="11" lengthAdjust="spacingAndGlyphs" textLength="109" x="58" y="622.9268">void  notConnorBade()</text><ellipse cx="49" cy="633.7617" fill="#84BE84" rx="3" ry="3" style="stroke: #038048; stroke-width: 1.0;"/><text fill="#000000" font-family="sans-serif" font-size="11" lengthAdjust="spacingAndGlyphs" textLength="70" x="58" y="636.7627">void  hehehe()</text><ellipse cx="49" cy="647.5977" fill="#84BE84" rx="3" ry="3" style="stroke: #038048; stroke-width: 1.0;"/><text fill="#000000" font-family="sans-serif" font-size="11" lengthAdjust="spacingAndGlyphs" text-decoration="underline" textLength="136" x="58" y="650.5986">void  main(java.lang.String[])</text><line style="stroke: #000000; stroke-width: 1.0;" x1="58" x2="194" y1="652.5986" y2="652.5986"/><!--class decorator.DecoratorBoi--><rect fill="#7FFF00" filter="url(#f8uie3d19jtoz)" height="97.6953" id="decorator.DecoratorBoi" style="stroke: #A80036; stroke-width: 1.5;" width="213" x="235.5" y="542.5"/><ellipse cx="293.25" cy="562.5938" fill="#ADD1B2" rx="11" ry="11" style="stroke: #A80036; stroke-width: 1.0;"/><path d="M296.0156,558.4688 Q296.1719,558.25 296.3594,558.1406 Q296.5469,558.0313 296.7656,558.0313 Q297.1406,558.0313 297.375,558.2891 Q297.6094,558.5469 297.6094,559.1563 L297.6094,560.6094 Q297.6094,561.2188 297.375,561.4844 Q297.1406,561.75 296.7656,561.75 Q296.4219,561.75 296.2188,561.5469 Q296.0156,561.3594 295.9063,560.8438 Q295.8594,560.4844 295.6719,560.2969 Q295.3438,559.9219 294.7344,559.7031 Q294.125,559.4844 293.5,559.4844 Q292.7344,559.4844 292.1016,559.8125 Q291.4688,560.1406 290.9766,560.8906 Q290.4844,561.6406 290.4844,562.6719 L290.4844,563.7656 Q290.4844,565 291.375,565.8203 Q292.2656,566.6406 293.8594,566.6406 Q294.7969,566.6406 295.4531,566.3906 Q295.8438,566.2344 296.2656,565.7969 Q296.5313,565.5313 296.6797,565.4531 Q296.8281,565.375 297.0313,565.375 Q297.3594,565.375 297.6172,565.6328 Q297.875,565.8906 297.875,566.2344 Q297.875,566.5781 297.5313,566.9844 Q297.0313,567.5625 296.2344,567.8906 Q295.1563,568.3438 293.8594,568.3438 Q292.3438,568.3438 291.1406,567.7188 Q290.1563,567.2188 289.4688,566.1484 Q288.7813,565.0781 288.7813,563.7969 L288.7813,562.6406 Q288.7813,561.3125 289.3984,560.1641 Q290.0156,559.0156 291.1094,558.3984 Q292.2031,557.7813 293.4375,557.7813 Q294.1719,557.7813 294.8203,557.9453 Q295.4688,558.1094 296.0156,558.4688 Z "/><text fill="#000000" font-family="sans-serif" font-size="12" font-style="italic" lengthAdjust="spacingAndGlyphs" textLength="93" x="311.75" y="559.957">«Bad Decorator»</text><text fill="#000000" font-family="sans-serif" font-size="12" lengthAdjust="spacingAndGlyphs" textLength="72" x="322.25" y="575.0508">DecoratorBoi</text><line style="stroke: #A80036; stroke-width: 1.5;" x1="236.5" x2="447.5" y1="582.6875" y2="582.6875"/><rect fill="none" height="6" style="stroke: #C82930; stroke-width: 1.0;" width="6" x="243.5" y="592.1055"/><text fill="#000000" font-family="sans-serif" font-size="11" lengthAdjust="spacingAndGlyphs" textLength="180" x="255.5" y="598.1064">decorator.ConcreteSubBoi decorated</text><line style="stroke: #A80036; stroke-width: 1.5;" x1="236.5" x2="447.5" y1="604.5234" y2="604.5234"/><ellipse cx="246.5" cy="616.9414" fill="#84BE84" rx="3" ry="3" style="stroke: #038048; stroke-width: 1.0;"/><text fill="#000000" font-family="sans-serif" font-size="11" lengthAdjust="spacingAndGlyphs" textLength="187" x="255.5" y="619.9424">void  &lt;init&gt;(decorator.ConcreteSubBoi)</text><ellipse cx="246.5" cy="630.7773" fill="#84BE84" rx="3" ry="3" style="stroke: #038048; stroke-width: 1.0;"/><text fill="#000000" font-family="sans-serif" font-size="11" lengthAdjust="spacingAndGlyphs" textLength="109" x="255.5" y="633.7783">void  notConnorBade()</text><!--class decorator.ConcreteSubBoi--><rect fill="#7FFF00" filter="url(#f8uie3d19jtoz)" height="111.5313" id="decorator.ConcreteSubBoi" style="stroke: #A80036; stroke-width: 1.5;" width="135" x="274.5" y="293"/><ellipse cx="295.35" cy="313.0938" fill="#ADD1B2" rx="11" ry="11" style="stroke: #A80036; stroke-width: 1.0;"/><path d="M298.1156,308.9688 Q298.2719,308.75 298.4594,308.6406 Q298.6469,308.5313 298.8656,308.5313 Q299.2406,308.5313 299.475,308.7891 Q299.7094,309.0469 299.7094,309.6563 L299.7094,311.1094 Q299.7094,311.7188 299.475,311.9844 Q299.2406,312.25 298.8656,312.25 Q298.5219,312.25 298.3188,312.0469 Q298.1156,311.8594 298.0063,311.3438 Q297.9594,310.9844 297.7719,310.7969 Q297.4438,310.4219 296.8344,310.2031 Q296.225,309.9844 295.6,309.9844 Q294.8344,309.9844 294.2016,310.3125 Q293.5688,310.6406 293.0766,311.3906 Q292.5844,312.1406 292.5844,313.1719 L292.5844,314.2656 Q292.5844,315.5 293.475,316.3203 Q294.3656,317.1406 295.9594,317.1406 Q296.8969,317.1406 297.5531,316.8906 Q297.9438,316.7344 298.3656,316.2969 Q298.6313,316.0313 298.7797,315.9531 Q298.9281,315.875 299.1313,315.875 Q299.4594,315.875 299.7172,316.1328 Q299.975,316.3906 299.975,316.7344 Q299.975,317.0781 299.6313,317.4844 Q299.1313,318.0625 298.3344,318.3906 Q297.2563,318.8438 295.9594,318.8438 Q294.4438,318.8438 293.2406,318.2188 Q292.2563,317.7188 291.5688,316.6484 Q290.8813,315.5781 290.8813,314.2969 L290.8813,313.1406 Q290.8813,311.8125 291.4984,310.6641 Q292.1156,309.5156 293.2094,308.8984 Q294.3031,308.2813 295.5375,308.2813 Q296.2719,308.2813 296.9203,308.4453 Q297.5688,308.6094 298.1156,308.9688 Z "/><text fill="#000000" font-family="sans-serif" font-size="12" font-style="italic" lengthAdjust="spacingAndGlyphs" textLength="79" x="316.15" y="310.457">«Component»</text><text fill="#000000" font-family="sans-serif" font-size="12" lengthAdjust="spacingAndGlyphs" textLength="90" x="310.65" y="325.5508">ConcreteSubBoi</text><line style="stroke: #A80036; stroke-width: 1.5;" x1="275.5" x2="408.5" y1="333.1875" y2="333.1875"/><line style="stroke: #A80036; stroke-width: 1.5;" x1="275.5" x2="408.5" y1="341.1875" y2="341.1875"/><ellipse cx="285.5" cy="353.6055" fill="#84BE84" rx="3" ry="3" style="stroke: #038048; stroke-width: 1.0;"/><text fill="#000000" font-family="sans-serif" font-size="11" lengthAdjust="spacingAndGlyphs" textLength="59" x="294.5" y="356.6064">void  &lt;init&gt;()</text><ellipse cx="285.5" cy="367.4414" fill="#84BE84" rx="3" ry="3" style="stroke: #038048; stroke-width: 1.0;"/><text fill="#000000" font-family="sans-serif" font-size="11" lengthAdjust="spacingAndGlyphs" textLength="51" x="294.5" y="370.4424">void  doIt()</text><ellipse cx="285.5" cy="381.2773" fill="#84BE84" rx="3" ry="3" style="stroke: #038048; stroke-width: 1.0;"/><text fill="#000000" font-family="sans-serif" font-size="11" lengthAdjust="spacingAndGlyphs" textLength="109" x="294.5" y="384.2783">void  notConnorBade()</text><ellipse cx="285.5" cy="395.1133" fill="#84BE84" rx="3" ry="3" style="stroke: #038048; stroke-width: 1.0;"/><text fill="#000000" font-family="sans-serif" font-size="11" lengthAdjust="spacingAndGlyphs" textLength="93" x="294.5" y="398.1143">void  connorBade()</text><!--link decorator.InterfaceBoi to decorator.AbstractBoi--><path d="M114.5,181.201 C114.5,181.201 114.5,292.804 114.5,292.804 " fill="none" id="decorator.InterfaceBoi-decorator.AbstractBoi" style="stroke: #A80036; stroke-width: 1.0; stroke-dasharray: 7.0,7.0;"/><polygon fill="none" points="107.5,181.201,114.5,161.201,121.5,181.201,107.5,181.201" style="stroke: #A80036; stroke-width: 1.0;"/><!--link decorator.AbstractBoi to decorator.AbstractSubBoi--><path d="M184,272.541 C184,272.541 184,169 184,169 C184,169 196.344,169 213.366,169 " fill="none" id="decorator.AbstractBoi-decorator.AbstractSubBoi" style="stroke: #A80036; stroke-width: 1.0;"/><polygon fill="none" points="191,272.541,184,292.541,177,272.541,191,272.541" style="stroke: #A80036; stroke-width: 1.0;"/><!--link decorator.AbstractSubBoi to decorator.AbstractBoi--><path d="M213.382,165 C194.77,165 181,165 181,165 C181,165 181,287.794 181,287.794 " fill="none" id="decorator.AbstractSubBoi-decorator.AbstractBoi" style="stroke: #A80036; stroke-width: 1.0;"/><polygon fill="#A80036" points="181,292.794,185,283.794,181,287.794,177,283.794,181,292.794" style="stroke: #A80036; stroke-width: 1.0;"/><!--link decorator.ConcreteBoi to decorator.ConcreteInheritanceBoi--><path d="M119,677.038 C119,677.038 119,777.765 119,777.765 " fill="none" id="decorator.ConcreteBoi-decorator.ConcreteInheritanceBoi" style="stroke: #A80036; stroke-width: 1.0;"/><polygon fill="none" points="112,677.038,119,657.038,126,677.038,112,677.038" style="stroke: #A80036; stroke-width: 1.0;"/><!--link decorator.AbstractBoi to decorator.ConcreteBoi--><path d="M96.3333,425.244 C96.3333,425.244 96.3333,525.676 96.3333,525.676 " fill="none" id="decorator.AbstractBoi-decorator.ConcreteBoi" style="stroke: #A80036; stroke-width: 1.0;"/><polygon fill="none" points="89.3334,425.244,96.3333,405.244,103.3334,425.244,89.3334,425.244" style="stroke: #A80036; stroke-width: 1.0;"/><!--link decorator.ConcreteBoi to decorator.AbstractBoi--><path d="M141.667,525.876 C141.667,525.876 141.667,410.209 141.667,410.209 " fill="none" id="decorator.ConcreteBoi-decorator.AbstractBoi" style="stroke: #A80036; stroke-width: 1.0;"/><polygon fill="#A80036" points="141.667,405.209,137.667,414.209,141.667,410.209,145.667,414.209,141.667,405.209" style="stroke: #A80036; stroke-width: 1.0;"/><!--link decorator.ConcreteSubBoi to decorator.DecoratorBoi--><path d="M319.5,425.244 C319.5,425.244 319.5,542.134 319.5,542.134 " fill="none" id="decorator.ConcreteSubBoi-decorator.DecoratorBoi" style="stroke: #A80036; stroke-width: 1.0;"/><polygon fill="none" points="312.5,425.244,319.5,405.244,326.5,425.244,312.5,425.244" style="stroke: #A80036; stroke-width: 1.0;"/><!--link decorator.DecoratorBoi to decorator.ConcreteSubBoi--><path d="M364.5,542.427 C364.5,542.427 364.5,410.22 364.5,410.22 " fill="none" id="decorator.DecoratorBoi-decorator.ConcreteSubBoi" style="stroke: #A80036; stroke-width: 1.0;"/><polygon fill="#A80036" points="364.5,405.22,360.5,414.22,364.5,410.22,368.5,414.22,364.5,405.22" style="stroke: #A80036; stroke-width: 1.0;"/><!--link decorator.AbstractSubBoi to decorator.ConcreteSubBoi--><path d="M342,192.106 C342,192.106 342,292.978 342,292.978 " fill="none" id="decorator.AbstractSubBoi-decorator.ConcreteSubBoi" style="stroke: #A80036; stroke-width: 1.0;"/><polygon fill="none" points="335,192.106,342,172.106,349,192.106,335,192.106" style="stroke: #A80036; stroke-width: 1.0;"/></g></svg>