<?xml version="1.0" encoding="UTF-8" standalone="no"?><svg xmlns="http://www.w3.org/2000/svg" xmlns:xlink="http://www.w3.org/1999/xlink" contentScriptType="application/ecmascript" contentStyleType="text/css" height="1777px" preserveAspectRatio="none" style="width:2637px;height:1777px;" version="1.1" viewBox="0 0 2637 1777" width="2637px" zoomAndPan="magnify"><defs><filter height="300%" id="farci5iqel3iw" width="300%" x="-1" y="-1"><feGaussianBlur result="blurOut" stdDeviation="2.0"/><feColorMatrix in="blurOut" result="blurOut2" type="matrix" values="0 0 0 0 0 0 0 0 0 0 0 0 0 0 0 0 0 0 .4 0"/><feOffset dx="4.0" dy="4.0" in="blurOut2" result="blurOut3"/><feBlend in="SourceGraphic" in2="blurOut3" mode="normal"/></filter></defs><g><rect fill="#FFFFFF" filter="url(#farci5iqel3iw)" height="153.4063" style="stroke: #A80036; stroke-width: 1.0;" width="10" x="586.5" y="101.9609"/><rect fill="#FFFFFF" filter="url(#farci5iqel3iw)" height="30" style="stroke: #A80036; stroke-width: 1.0;" width="10" x="586.5" y="483.4766"/><rect fill="#FFFFFF" filter="url(#farci5iqel3iw)" height="30" style="stroke: #A80036; stroke-width: 1.0;" width="10" x="586.5" y="734.5859"/><rect fill="#FFFFFF" filter="url(#farci5iqel3iw)" height="30" style="stroke: #A80036; stroke-width: 1.0;" width="10" x="586.5" y="985.6953"/><rect fill="#FFFFFF" filter="url(#farci5iqel3iw)" height="196.7578" style="stroke: #A80036; stroke-width: 1.0;" width="10" x="586.5" y="1046.0469"/><rect fill="#FFFFFF" filter="url(#farci5iqel3iw)" height="196.7578" style="stroke: #A80036; stroke-width: 1.0;" width="10" x="586.5" y="1280.1563"/><rect fill="#FFFFFF" filter="url(#farci5iqel3iw)" height="196.7578" style="stroke: #A80036; stroke-width: 1.0;" width="10" x="586.5" y="1514.2656"/><rect fill="#FFFFFF" filter="url(#farci5iqel3iw)" height="123.0547" style="stroke: #A80036; stroke-width: 1.0;" width="10" x="869.5" y="132.3125"/><rect fill="#FFFFFF" filter="url(#farci5iqel3iw)" height="123.0547" style="stroke: #A80036; stroke-width: 1.0;" width="10" x="869.5" y="323.0703"/><rect fill="#FFFFFF" filter="url(#farci5iqel3iw)" height="123.0547" style="stroke: #A80036; stroke-width: 1.0;" width="10" x="869.5" y="574.1797"/><rect fill="#FFFFFF" filter="url(#farci5iqel3iw)" height="123.0547" style="stroke: #A80036; stroke-width: 1.0;" width="10" x="869.5" y="825.2891"/><rect fill="#FFFFFF" filter="url(#farci5iqel3iw)" height="220.7578" style="stroke: #A80036; stroke-width: 1.0;" width="10" x="1191" y="292.7188"/><rect fill="#FFFFFF" filter="url(#farci5iqel3iw)" height="220.7578" style="stroke: #A80036; stroke-width: 1.0;" width="10" x="1621.5" y="543.8281"/><rect fill="#FFFFFF" filter="url(#farci5iqel3iw)" height="220.7578" style="stroke: #A80036; stroke-width: 1.0;" width="10" x="2022.5" y="794.9375"/><rect fill="#FFFFFF" filter="url(#farci5iqel3iw)" height="79.7031" style="stroke: #A80036; stroke-width: 1.0;" width="10" x="2426.5" y="1163.1016"/><rect fill="#FFFFFF" filter="url(#farci5iqel3iw)" height="79.7031" style="stroke: #A80036; stroke-width: 1.0;" width="10" x="2426.5" y="1397.2109"/><rect fill="#FFFFFF" filter="url(#farci5iqel3iw)" height="79.7031" style="stroke: #A80036; stroke-width: 1.0;" width="10" x="2426.5" y="1631.3203"/><line style="stroke: #A80036; stroke-width: 1.0; stroke-dasharray: 5.0,5.0;" x1="201" x2="201" y1="39.6094" y2="1736.375"/><line style="stroke: #A80036; stroke-width: 1.0; stroke-dasharray: 5.0,5.0;" x1="591" x2="591" y1="39.6094" y2="1736.375"/><line style="stroke: #A80036; stroke-width: 1.0; stroke-dasharray: 5.0,5.0;" x1="874" x2="874" y1="39.6094" y2="1736.375"/><line style="stroke: #A80036; stroke-width: 1.0; stroke-dasharray: 5.0,5.0;" x1="1196" x2="1196" y1="39.6094" y2="1736.375"/><line style="stroke: #A80036; stroke-width: 1.0; stroke-dasharray: 5.0,5.0;" x1="1626" x2="1626" y1="39.6094" y2="1736.375"/><line style="stroke: #A80036; stroke-width: 1.0; stroke-dasharray: 5.0,5.0;" x1="2027" x2="2027" y1="39.6094" y2="1736.375"/><line style="stroke: #A80036; stroke-width: 1.0; stroke-dasharray: 5.0,5.0;" x1="2431" x2="2431" y1="39.6094" y2="1736.375"/><rect fill="#FEFECE" filter="url(#farci5iqel3iw)" height="31.6094" style="stroke: #A80036; stroke-width: 1.5;" width="383" x="8" y="3"/><text fill="#000000" font-family="sans-serif" font-size="14" lengthAdjust="spacingAndGlyphs" textLength="369" x="15" y="24.5332">headfirst.designpatterns.observer.weather.WeatherStation</text><rect fill="#FEFECE" filter="url(#farci5iqel3iw)" height="31.6094" style="stroke: #A80036; stroke-width: 1.5;" width="383" x="8" y="1735.375"/><text fill="#000000" font-family="sans-serif" font-size="14" lengthAdjust="spacingAndGlyphs" textLength="369" x="15" y="1756.9082">headfirst.designpatterns.observer.weather.WeatherStation</text><rect fill="#FEFECE" filter="url(#farci5iqel3iw)" height="31.6094" style="stroke: #A80036; stroke-width: 1.5;" width="369" x="405" y="3"/><text fill="#000000" font-family="sans-serif" font-size="14" lengthAdjust="spacingAndGlyphs" textLength="355" x="412" y="24.5332">headfirst.designpatterns.observer.weather.WeatherData</text><rect fill="#FEFECE" filter="url(#farci5iqel3iw)" height="31.6094" style="stroke: #A80036; stroke-width: 1.5;" width="369" x="405" y="1735.375"/><text fill="#000000" font-family="sans-serif" font-size="14" lengthAdjust="spacingAndGlyphs" textLength="355" x="412" y="1756.9082">headfirst.designpatterns.observer.weather.WeatherData</text><rect fill="#FEFECE" filter="url(#farci5iqel3iw)" height="31.6094" style="stroke: #A80036; stroke-width: 1.5;" width="169" x="788" y="3"/><text fill="#000000" font-family="sans-serif" font-size="14" lengthAdjust="spacingAndGlyphs" textLength="155" x="795" y="24.5332">problem.DataFileRunner</text><rect fill="#FEFECE" filter="url(#farci5iqel3iw)" height="31.6094" style="stroke: #A80036; stroke-width: 1.5;" width="169" x="788" y="1735.375"/><text fill="#000000" font-family="sans-serif" font-size="14" lengthAdjust="spacingAndGlyphs" textLength="155" x="795" y="1756.9082">problem.DataFileRunner</text><rect fill="#FEFECE" filter="url(#farci5iqel3iw)" height="31.6094" style="stroke: #A80036; stroke-width: 1.5;" width="446" x="971" y="3"/><text fill="#000000" font-family="sans-serif" font-size="14" lengthAdjust="spacingAndGlyphs" textLength="432" x="978" y="24.5332">headfirst.designpatterns.observer.weather.CurrentConditionsDisplay</text><rect fill="#FEFECE" filter="url(#farci5iqel3iw)" height="31.6094" style="stroke: #A80036; stroke-width: 1.5;" width="446" x="971" y="1735.375"/><text fill="#000000" font-family="sans-serif" font-size="14" lengthAdjust="spacingAndGlyphs" textLength="432" x="978" y="1756.9082">headfirst.designpatterns.observer.weather.CurrentConditionsDisplay</text><rect fill="#FEFECE" filter="url(#farci5iqel3iw)" height="31.6094" style="stroke: #A80036; stroke-width: 1.5;" width="387" x="1431" y="3"/><text fill="#000000" font-family="sans-serif" font-size="14" lengthAdjust="spacingAndGlyphs" textLength="373" x="1438" y="24.5332">headfirst.designpatterns.observer.weather.StatisticsDisplay</text><rect fill="#FEFECE" filter="url(#farci5iqel3iw)" height="31.6094" style="stroke: #A80036; stroke-width: 1.5;" width="387" x="1431" y="1735.375"/><text fill="#000000" font-family="sans-serif" font-size="14" lengthAdjust="spacingAndGlyphs" textLength="373" x="1438" y="1756.9082">headfirst.designpatterns.observer.weather.StatisticsDisplay</text><rect fill="#FEFECE" filter="url(#farci5iqel3iw)" height="31.6094" style="stroke: #A80036; stroke-width: 1.5;" width="387" x="1832" y="3"/><text fill="#000000" font-family="sans-serif" font-size="14" lengthAdjust="spacingAndGlyphs" textLength="373" x="1839" y="24.5332">headfirst.designpatterns.observer.weather.ForecastDisplay</text><rect fill="#FEFECE" filter="url(#farci5iqel3iw)" height="31.6094" style="stroke: #A80036; stroke-width: 1.5;" width="387" x="1832" y="1735.375"/><text fill="#000000" font-family="sans-serif" font-size="14" lengthAdjust="spacingAndGlyphs" textLength="373" x="1839" y="1756.9082">headfirst.designpatterns.observer.weather.ForecastDisplay</text><rect fill="#FEFECE" filter="url(#farci5iqel3iw)" height="31.6094" style="stroke: #A80036; stroke-width: 1.5;" width="393" x="2233" y="3"/><text fill="#000000" font-family="sans-serif" font-size="14" lengthAdjust="spacingAndGlyphs" textLength="379" x="2240" y="24.5332">headfirst.designpatterns.observer.weather.HeatIndexDisplay</text><rect fill="#FEFECE" filter="url(#farci5iqel3iw)" height="31.6094" style="stroke: #A80036; stroke-width: 1.5;" width="393" x="2233" y="1735.375"/><text fill="#000000" font-family="sans-serif" font-size="14" lengthAdjust="spacingAndGlyphs" textLength="379" x="2240" y="1756.9082">headfirst.designpatterns.observer.weather.HeatIndexDisplay</text><rect fill="#FFFFFF" filter="url(#farci5iqel3iw)" height="153.4063" style="stroke: #A80036; stroke-width: 1.0;" width="10" x="586.5" y="101.9609"/><rect fill="#FFFFFF" filter="url(#farci5iqel3iw)" height="30" style="stroke: #A80036; stroke-width: 1.0;" width="10" x="586.5" y="483.4766"/><rect fill="#FFFFFF" filter="url(#farci5iqel3iw)" height="30" style="stroke: #A80036; stroke-width: 1.0;" width="10" x="586.5" y="734.5859"/><rect fill="#FFFFFF" filter="url(#farci5iqel3iw)" height="30" style="stroke: #A80036; stroke-width: 1.0;" width="10" x="586.5" y="985.6953"/><rect fill="#FFFFFF" filter="url(#farci5iqel3iw)" height="196.7578" style="stroke: #A80036; stroke-width: 1.0;" width="10" x="586.5" y="1046.0469"/><rect fill="#FFFFFF" filter="url(#farci5iqel3iw)" height="196.7578" style="stroke: #A80036; stroke-width: 1.0;" width="10" x="586.5" y="1280.1563"/><rect fill="#FFFFFF" filter="url(#farci5iqel3iw)" height="196.7578" style="stroke: #A80036; stroke-width: 1.0;" width="10" x="586.5" y="1514.2656"/><rect fill="#FFFFFF" filter="url(#farci5iqel3iw)" height="123.0547" style="stroke: #A80036; stroke-width: 1.0;" width="10" x="869.5" y="132.3125"/><rect fill="#FFFFFF" filter="url(#farci5iqel3iw)" height="123.0547" style="stroke: #A80036; stroke-width: 1.0;" width="10" x="869.5" y="323.0703"/><rect fill="#FFFFFF" filter="url(#farci5iqel3iw)" height="123.0547" style="stroke: #A80036; stroke-width: 1.0;" width="10" x="869.5" y="574.1797"/><rect fill="#FFFFFF" filter="url(#farci5iqel3iw)" height="123.0547" style="stroke: #A80036; stroke-width: 1.0;" width="10" x="869.5" y="825.2891"/><rect fill="#FFFFFF" filter="url(#farci5iqel3iw)" height="220.7578" style="stroke: #A80036; stroke-width: 1.0;" width="10" x="1191" y="292.7188"/><rect fill="#FFFFFF" filter="url(#farci5iqel3iw)" height="220.7578" style="stroke: #A80036; stroke-width: 1.0;" width="10" x="1621.5" y="543.8281"/><rect fill="#FFFFFF" filter="url(#farci5iqel3iw)" height="220.7578" style="stroke: #A80036; stroke-width: 1.0;" width="10" x="2022.5" y="794.9375"/><rect fill="#FFFFFF" filter="url(#farci5iqel3iw)" height="79.7031" style="stroke: #A80036; stroke-width: 1.0;" width="10" x="2426.5" y="1163.1016"/><rect fill="#FFFFFF" filter="url(#farci5iqel3iw)" height="79.7031" style="stroke: #A80036; stroke-width: 1.0;" width="10" x="2426.5" y="1397.2109"/><rect fill="#FFFFFF" filter="url(#farci5iqel3iw)" height="79.7031" style="stroke: #A80036; stroke-width: 1.0;" width="10" x="2426.5" y="1631.3203"/><polygon fill="#A80036" points="189.5,67.6094,199.5,71.6094,189.5,75.6094,193.5,71.6094" style="stroke: #A80036; stroke-width: 1.0;"/><line style="stroke: #A80036; stroke-width: 1.0;" x1="3" x2="195.5" y1="71.6094" y2="71.6094"/><text fill="#000000" font-family="sans-serif" font-size="13" lengthAdjust="spacingAndGlyphs" textLength="132" x="10" y="67.1045">main(java.lang.String[])</text><polygon fill="#A80036" points="574.5,97.9609,584.5,101.9609,574.5,105.9609,578.5,101.9609" style="stroke: #A80036; stroke-width: 1.0;"/><line style="stroke: #A80036; stroke-width: 1.0;" x1="201.5" x2="580.5" y1="101.9609" y2="101.9609"/><text fill="#000000" font-family="sans-serif" font-size="13" lengthAdjust="spacingAndGlyphs" textLength="41" x="208.5" y="97.4561">&lt;init&gt;()</text><polygon fill="#A80036" points="857.5,128.3125,867.5,132.3125,857.5,136.3125,861.5,132.3125" style="stroke: #A80036; stroke-width: 1.0;"/><line style="stroke: #A80036; stroke-width: 1.0;" x1="596.5" x2="863.5" y1="132.3125" y2="132.3125"/><text fill="#000000" font-family="sans-serif" font-size="13" lengthAdjust="spacingAndGlyphs" textLength="41" x="603.5" y="127.8076">&lt;init&gt;()</text><line style="stroke: #A80036; stroke-width: 1.0;" x1="879.5" x2="921.5" y1="163.0156" y2="163.0156"/><line style="stroke: #A80036; stroke-width: 1.0;" x1="921.5" x2="921.5" y1="163.0156" y2="176.0156"/><line style="stroke: #A80036; stroke-width: 1.0;" x1="880.5" x2="921.5" y1="176.0156" y2="176.0156"/><polygon fill="#A80036" points="890.5,172.0156,880.5,176.0156,890.5,180.0156,886.5,176.0156" style="stroke: #A80036; stroke-width: 1.0;"/><text fill="#000000" font-family="sans-serif" font-size="13" lengthAdjust="spacingAndGlyphs" textLength="41" x="886.5" y="158.1592">&lt;init&gt;()</text><line style="stroke: #A80036; stroke-width: 1.0;" x1="879.5" x2="921.5" y1="206.3672" y2="206.3672"/><line style="stroke: #A80036; stroke-width: 1.0;" x1="921.5" x2="921.5" y1="206.3672" y2="219.3672"/><line style="stroke: #A80036; stroke-width: 1.0;" x1="880.5" x2="921.5" y1="219.3672" y2="219.3672"/><polygon fill="#A80036" points="890.5,215.3672,880.5,219.3672,890.5,223.3672,886.5,219.3672" style="stroke: #A80036; stroke-width: 1.0;"/><text fill="#000000" font-family="sans-serif" font-size="13" lengthAdjust="spacingAndGlyphs" textLength="41" x="886.5" y="201.5107">&lt;init&gt;()</text><line style="stroke: #A80036; stroke-width: 1.0;" x1="879.5" x2="921.5" y1="254.7188" y2="254.7188"/><line style="stroke: #A80036; stroke-width: 1.0;" x1="921.5" x2="921.5" y1="254.7188" y2="267.7188"/><line style="stroke: #A80036; stroke-width: 1.0;" x1="874.5" x2="921.5" y1="267.7188" y2="267.7188"/><polygon fill="#A80036" points="884.5,263.7188,874.5,267.7188,884.5,271.7188,880.5,267.7188" style="stroke: #A80036; stroke-width: 1.0;"/><text fill="#000000" font-family="sans-serif" font-size="13" lengthAdjust="spacingAndGlyphs" textLength="41" x="886.5" y="249.8623">&lt;init&gt;()</text><polygon fill="#A80036" points="1179,288.7188,1189,292.7188,1179,296.7188,1183,292.7188" style="stroke: #A80036; stroke-width: 1.0;"/><line style="stroke: #A80036; stroke-width: 1.0;" x1="201.5" x2="1185" y1="292.7188" y2="292.7188"/><text fill="#000000" font-family="sans-serif" font-size="13" lengthAdjust="spacingAndGlyphs" textLength="328" x="208.5" y="288.2139">&lt;init&gt;(headfirst.designpatterns.observer.weather.Subject)</text><polygon fill="#A80036" points="890.5,319.0703,880.5,323.0703,890.5,327.0703,886.5,323.0703" style="stroke: #A80036; stroke-width: 1.0;"/><line style="stroke: #A80036; stroke-width: 1.0;" x1="884.5" x2="1190" y1="323.0703" y2="323.0703"/><text fill="#000000" font-family="sans-serif" font-size="13" lengthAdjust="spacingAndGlyphs" textLength="41" x="896.5" y="318.5654">&lt;init&gt;()</text><line style="stroke: #A80036; stroke-width: 1.0;" x1="879.5" x2="921.5" y1="353.7734" y2="353.7734"/><line style="stroke: #A80036; stroke-width: 1.0;" x1="921.5" x2="921.5" y1="353.7734" y2="366.7734"/><line style="stroke: #A80036; stroke-width: 1.0;" x1="880.5" x2="921.5" y1="366.7734" y2="366.7734"/><polygon fill="#A80036" points="890.5,362.7734,880.5,366.7734,890.5,370.7734,886.5,366.7734" style="stroke: #A80036; stroke-width: 1.0;"/><text fill="#000000" font-family="sans-serif" font-size="13" lengthAdjust="spacingAndGlyphs" textLength="41" x="886.5" y="348.917">&lt;init&gt;()</text><line style="stroke: #A80036; stroke-width: 1.0;" x1="879.5" x2="921.5" y1="397.125" y2="397.125"/><line style="stroke: #A80036; stroke-width: 1.0;" x1="921.5" x2="921.5" y1="397.125" y2="410.125"/><line style="stroke: #A80036; stroke-width: 1.0;" x1="880.5" x2="921.5" y1="410.125" y2="410.125"/><polygon fill="#A80036" points="890.5,406.125,880.5,410.125,890.5,414.125,886.5,410.125" style="stroke: #A80036; stroke-width: 1.0;"/><text fill="#000000" font-family="sans-serif" font-size="13" lengthAdjust="spacingAndGlyphs" textLength="41" x="886.5" y="392.2686">&lt;init&gt;()</text><line style="stroke: #A80036; stroke-width: 1.0;" x1="879.5" x2="921.5" y1="445.4766" y2="445.4766"/><line style="stroke: #A80036; stroke-width: 1.0;" x1="921.5" x2="921.5" y1="445.4766" y2="458.4766"/><line style="stroke: #A80036; stroke-width: 1.0;" x1="874.5" x2="921.5" y1="458.4766" y2="458.4766"/><polygon fill="#A80036" points="884.5,454.4766,874.5,458.4766,884.5,462.4766,880.5,458.4766" style="stroke: #A80036; stroke-width: 1.0;"/><text fill="#000000" font-family="sans-serif" font-size="13" lengthAdjust="spacingAndGlyphs" textLength="41" x="886.5" y="440.6201">&lt;init&gt;()</text><polygon fill="#A80036" points="607.5,479.4766,597.5,483.4766,607.5,487.4766,603.5,483.4766" style="stroke: #A80036; stroke-width: 1.0;"/><line style="stroke: #A80036; stroke-width: 1.0;" x1="601.5" x2="1190" y1="483.4766" y2="483.4766"/><text fill="#000000" font-family="sans-serif" font-size="13" lengthAdjust="spacingAndGlyphs" textLength="396" x="613.5" y="478.9717">registerObserver(headfirst.designpatterns.observer.weather.Observer)</text><polygon fill="#A80036" points="1609.5,539.8281,1619.5,543.8281,1609.5,547.8281,1613.5,543.8281" style="stroke: #A80036; stroke-width: 1.0;"/><line style="stroke: #A80036; stroke-width: 1.0;" x1="201.5" x2="1615.5" y1="543.8281" y2="543.8281"/><text fill="#000000" font-family="sans-serif" font-size="13" lengthAdjust="spacingAndGlyphs" textLength="360" x="208.5" y="539.3232">&lt;init&gt;(headfirst.designpatterns.observer.weather.WeatherData)</text><polygon fill="#A80036" points="890.5,570.1797,880.5,574.1797,890.5,578.1797,886.5,574.1797" style="stroke: #A80036; stroke-width: 1.0;"/><line style="stroke: #A80036; stroke-width: 1.0;" x1="884.5" x2="1620.5" y1="574.1797" y2="574.1797"/><text fill="#000000" font-family="sans-serif" font-size="13" lengthAdjust="spacingAndGlyphs" textLength="41" x="896.5" y="569.6748">&lt;init&gt;()</text><line style="stroke: #A80036; stroke-width: 1.0;" x1="879.5" x2="921.5" y1="604.8828" y2="604.8828"/><line style="stroke: #A80036; stroke-width: 1.0;" x1="921.5" x2="921.5" y1="604.8828" y2="617.8828"/><line style="stroke: #A80036; stroke-width: 1.0;" x1="880.5" x2="921.5" y1="617.8828" y2="617.8828"/><polygon fill="#A80036" points="890.5,613.8828,880.5,617.8828,890.5,621.8828,886.5,617.8828" style="stroke: #A80036; stroke-width: 1.0;"/><text fill="#000000" font-family="sans-serif" font-size="13" lengthAdjust="spacingAndGlyphs" textLength="41" x="886.5" y="600.0264">&lt;init&gt;()</text><line style="stroke: #A80036; stroke-width: 1.0;" x1="879.5" x2="921.5" y1="648.2344" y2="648.2344"/><line style="stroke: #A80036; stroke-width: 1.0;" x1="921.5" x2="921.5" y1="648.2344" y2="661.2344"/><line style="stroke: #A80036; stroke-width: 1.0;" x1="880.5" x2="921.5" y1="661.2344" y2="661.2344"/><polygon fill="#A80036" points="890.5,657.2344,880.5,661.2344,890.5,665.2344,886.5,661.2344" style="stroke: #A80036; stroke-width: 1.0;"/><text fill="#000000" font-family="sans-serif" font-size="13" lengthAdjust="spacingAndGlyphs" textLength="41" x="886.5" y="643.3779">&lt;init&gt;()</text><line style="stroke: #A80036; stroke-width: 1.0;" x1="879.5" x2="921.5" y1="696.5859" y2="696.5859"/><line style="stroke: #A80036; stroke-width: 1.0;" x1="921.5" x2="921.5" y1="696.5859" y2="709.5859"/><line style="stroke: #A80036; stroke-width: 1.0;" x1="874.5" x2="921.5" y1="709.5859" y2="709.5859"/><polygon fill="#A80036" points="884.5,705.5859,874.5,709.5859,884.5,713.5859,880.5,709.5859" style="stroke: #A80036; stroke-width: 1.0;"/><text fill="#000000" font-family="sans-serif" font-size="13" lengthAdjust="spacingAndGlyphs" textLength="41" x="886.5" y="691.7295">&lt;init&gt;()</text><polygon fill="#A80036" points="607.5,730.5859,597.5,734.5859,607.5,738.5859,603.5,734.5859" style="stroke: #A80036; stroke-width: 1.0;"/><line style="stroke: #A80036; stroke-width: 1.0;" x1="601.5" x2="1620.5" y1="734.5859" y2="734.5859"/><text fill="#000000" font-family="sans-serif" font-size="13" lengthAdjust="spacingAndGlyphs" textLength="396" x="613.5" y="730.0811">registerObserver(headfirst.designpatterns.observer.weather.Observer)</text><polygon fill="#A80036" points="2010.5,790.9375,2020.5,794.9375,2010.5,798.9375,2014.5,794.9375" style="stroke: #A80036; stroke-width: 1.0;"/><line style="stroke: #A80036; stroke-width: 1.0;" x1="201.5" x2="2016.5" y1="794.9375" y2="794.9375"/><text fill="#000000" font-family="sans-serif" font-size="13" lengthAdjust="spacingAndGlyphs" textLength="360" x="208.5" y="790.4326">&lt;init&gt;(headfirst.designpatterns.observer.weather.WeatherData)</text><polygon fill="#A80036" points="890.5,821.2891,880.5,825.2891,890.5,829.2891,886.5,825.2891" style="stroke: #A80036; stroke-width: 1.0;"/><line style="stroke: #A80036; stroke-width: 1.0;" x1="884.5" x2="2021.5" y1="825.2891" y2="825.2891"/><text fill="#000000" font-family="sans-serif" font-size="13" lengthAdjust="spacingAndGlyphs" textLength="41" x="896.5" y="820.7842">&lt;init&gt;()</text><line style="stroke: #A80036; stroke-width: 1.0;" x1="879.5" x2="921.5" y1="855.9922" y2="855.9922"/><line style="stroke: #A80036; stroke-width: 1.0;" x1="921.5" x2="921.5" y1="855.9922" y2="868.9922"/><line style="stroke: #A80036; stroke-width: 1.0;" x1="880.5" x2="921.5" y1="868.9922" y2="868.9922"/><polygon fill="#A80036" points="890.5,864.9922,880.5,868.9922,890.5,872.9922,886.5,868.9922" style="stroke: #A80036; stroke-width: 1.0;"/><text fill="#000000" font-family="sans-serif" font-size="13" lengthAdjust="spacingAndGlyphs" textLength="41" x="886.5" y="851.1357">&lt;init&gt;()</text><line style="stroke: #A80036; stroke-width: 1.0;" x1="879.5" x2="921.5" y1="899.3438" y2="899.3438"/><line style="stroke: #A80036; stroke-width: 1.0;" x1="921.5" x2="921.5" y1="899.3438" y2="912.3438"/><line style="stroke: #A80036; stroke-width: 1.0;" x1="880.5" x2="921.5" y1="912.3438" y2="912.3438"/><polygon fill="#A80036" points="890.5,908.3438,880.5,912.3438,890.5,916.3438,886.5,912.3438" style="stroke: #A80036; stroke-width: 1.0;"/><text fill="#000000" font-family="sans-serif" font-size="13" lengthAdjust="spacingAndGlyphs" textLength="41" x="886.5" y="894.4873">&lt;init&gt;()</text><line style="stroke: #A80036; stroke-width: 1.0;" x1="879.5" x2="921.5" y1="947.6953" y2="947.6953"/><line style="stroke: #A80036; stroke-width: 1.0;" x1="921.5" x2="921.5" y1="947.6953" y2="960.6953"/><line style="stroke: #A80036; stroke-width: 1.0;" x1="874.5" x2="921.5" y1="960.6953" y2="960.6953"/><polygon fill="#A80036" points="884.5,956.6953,874.5,960.6953,884.5,964.6953,880.5,960.6953" style="stroke: #A80036; stroke-width: 1.0;"/><text fill="#000000" font-family="sans-serif" font-size="13" lengthAdjust="spacingAndGlyphs" textLength="41" x="886.5" y="942.8389">&lt;init&gt;()</text><polygon fill="#A80036" points="607.5,981.6953,597.5,985.6953,607.5,989.6953,603.5,985.6953" style="stroke: #A80036; stroke-width: 1.0;"/><line style="stroke: #A80036; stroke-width: 1.0;" x1="601.5" x2="2021.5" y1="985.6953" y2="985.6953"/><text fill="#000000" font-family="sans-serif" font-size="13" lengthAdjust="spacingAndGlyphs" textLength="396" x="613.5" y="981.1904">registerObserver(headfirst.designpatterns.observer.weather.Observer)</text><polygon fill="#A80036" points="574.5,1042.0469,584.5,1046.0469,574.5,1050.0469,578.5,1046.0469" style="stroke: #A80036; stroke-width: 1.0;"/><line style="stroke: #A80036; stroke-width: 1.0;" x1="201.5" x2="580.5" y1="1046.0469" y2="1046.0469"/><text fill="#000000" font-family="sans-serif" font-size="13" lengthAdjust="spacingAndGlyphs" textLength="192" x="208.5" y="1041.542">setMeasurements(float,float,float)</text><line style="stroke: #A80036; stroke-width: 1.0;" x1="596.5" x2="638.5" y1="1076.75" y2="1076.75"/><line style="stroke: #A80036; stroke-width: 1.0;" x1="638.5" x2="638.5" y1="1076.75" y2="1089.75"/><line style="stroke: #A80036; stroke-width: 1.0;" x1="597.5" x2="638.5" y1="1089.75" y2="1089.75"/><polygon fill="#A80036" points="607.5,1085.75,597.5,1089.75,607.5,1093.75,603.5,1089.75" style="stroke: #A80036; stroke-width: 1.0;"/><text fill="#000000" font-family="sans-serif" font-size="13" lengthAdjust="spacingAndGlyphs" textLength="145" x="603.5" y="1071.8936">measurementsChanged()</text><line style="stroke: #A80036; stroke-width: 1.0;" x1="596.5" x2="638.5" y1="1120.1016" y2="1120.1016"/><line style="stroke: #A80036; stroke-width: 1.0;" x1="638.5" x2="638.5" y1="1120.1016" y2="1133.1016"/><line style="stroke: #A80036; stroke-width: 1.0;" x1="597.5" x2="638.5" y1="1133.1016" y2="1133.1016"/><polygon fill="#A80036" points="607.5,1129.1016,597.5,1133.1016,607.5,1137.1016,603.5,1133.1016" style="stroke: #A80036; stroke-width: 1.0;"/><text fill="#000000" font-family="sans-serif" font-size="13" lengthAdjust="spacingAndGlyphs" textLength="97" x="603.5" y="1115.2451">notifyObservers()</text><polygon fill="#A80036" points="2414.5,1159.1016,2424.5,1163.1016,2414.5,1167.1016,2418.5,1163.1016" style="stroke: #A80036; stroke-width: 1.0;"/><line style="stroke: #A80036; stroke-width: 1.0;" x1="596.5" x2="2420.5" y1="1163.1016" y2="1163.1016"/><text fill="#000000" font-family="sans-serif" font-size="13" lengthAdjust="spacingAndGlyphs" textLength="127" x="603.5" y="1158.5967">update(float,float,float)</text><line style="stroke: #A80036; stroke-width: 1.0;" x1="2436.5" x2="2478.5" y1="1193.8047" y2="1193.8047"/><line style="stroke: #A80036; stroke-width: 1.0;" x1="2478.5" x2="2478.5" y1="1193.8047" y2="1206.8047"/><line style="stroke: #A80036; stroke-width: 1.0;" x1="2437.5" x2="2478.5" y1="1206.8047" y2="1206.8047"/><polygon fill="#A80036" points="2447.5,1202.8047,2437.5,1206.8047,2447.5,1210.8047,2443.5,1206.8047" style="stroke: #A80036; stroke-width: 1.0;"/><text fill="#000000" font-family="sans-serif" font-size="13" lengthAdjust="spacingAndGlyphs" textLength="168" x="2443.5" y="1188.9482">computeHeatIndex(float,float)</text><line style="stroke: #A80036; stroke-width: 1.0;" x1="2436.5" x2="2478.5" y1="1242.1563" y2="1242.1563"/><line style="stroke: #A80036; stroke-width: 1.0;" x1="2478.5" x2="2478.5" y1="1242.1563" y2="1255.1563"/><line style="stroke: #A80036; stroke-width: 1.0;" x1="2431.5" x2="2478.5" y1="1255.1563" y2="1255.1563"/><polygon fill="#A80036" points="2441.5,1251.1563,2431.5,1255.1563,2441.5,1259.1563,2437.5,1255.1563" style="stroke: #A80036; stroke-width: 1.0;"/><text fill="#000000" font-family="sans-serif" font-size="13" lengthAdjust="spacingAndGlyphs" textLength="49" x="2443.5" y="1237.2998">display()</text><polygon fill="#A80036" points="574.5,1276.1563,584.5,1280.1563,574.5,1284.1563,578.5,1280.1563" style="stroke: #A80036; stroke-width: 1.0;"/><line style="stroke: #A80036; stroke-width: 1.0;" x1="201.5" x2="580.5" y1="1280.1563" y2="1280.1563"/><text fill="#000000" font-family="sans-serif" font-size="13" lengthAdjust="spacingAndGlyphs" textLength="192" x="208.5" y="1275.6514">setMeasurements(float,float,float)</text><line style="stroke: #A80036; stroke-width: 1.0;" x1="596.5" x2="638.5" y1="1310.8594" y2="1310.8594"/><line style="stroke: #A80036; stroke-width: 1.0;" x1="638.5" x2="638.5" y1="1310.8594" y2="1323.8594"/><line style="stroke: #A80036; stroke-width: 1.0;" x1="597.5" x2="638.5" y1="1323.8594" y2="1323.8594"/><polygon fill="#A80036" points="607.5,1319.8594,597.5,1323.8594,607.5,1327.8594,603.5,1323.8594" style="stroke: #A80036; stroke-width: 1.0;"/><text fill="#000000" font-family="sans-serif" font-size="13" lengthAdjust="spacingAndGlyphs" textLength="145" x="603.5" y="1306.0029">measurementsChanged()</text><line style="stroke: #A80036; stroke-width: 1.0;" x1="596.5" x2="638.5" y1="1354.2109" y2="1354.2109"/><line style="stroke: #A80036; stroke-width: 1.0;" x1="638.5" x2="638.5" y1="1354.2109" y2="1367.2109"/><line style="stroke: #A80036; stroke-width: 1.0;" x1="597.5" x2="638.5" y1="1367.2109" y2="1367.2109"/><polygon fill="#A80036" points="607.5,1363.2109,597.5,1367.2109,607.5,1371.2109,603.5,1367.2109" style="stroke: #A80036; stroke-width: 1.0;"/><text fill="#000000" font-family="sans-serif" font-size="13" lengthAdjust="spacingAndGlyphs" textLength="97" x="603.5" y="1349.3545">notifyObservers()</text><polygon fill="#A80036" points="2414.5,1393.2109,2424.5,1397.2109,2414.5,1401.2109,2418.5,1397.2109" style="stroke: #A80036; stroke-width: 1.0;"/><line style="stroke: #A80036; stroke-width: 1.0;" x1="596.5" x2="2420.5" y1="1397.2109" y2="1397.2109"/><text fill="#000000" font-family="sans-serif" font-size="13" lengthAdjust="spacingAndGlyphs" textLength="127" x="603.5" y="1392.7061">update(float,float,float)</text><line style="stroke: #A80036; stroke-width: 1.0;" x1="2436.5" x2="2478.5" y1="1427.9141" y2="1427.9141"/><line style="stroke: #A80036; stroke-width: 1.0;" x1="2478.5" x2="2478.5" y1="1427.9141" y2="1440.9141"/><line style="stroke: #A80036; stroke-width: 1.0;" x1="2437.5" x2="2478.5" y1="1440.9141" y2="1440.9141"/><polygon fill="#A80036" points="2447.5,1436.9141,2437.5,1440.9141,2447.5,1444.9141,2443.5,1440.9141" style="stroke: #A80036; stroke-width: 1.0;"/><text fill="#000000" font-family="sans-serif" font-size="13" lengthAdjust="spacingAndGlyphs" textLength="168" x="2443.5" y="1423.0576">computeHeatIndex(float,float)</text><line style="stroke: #A80036; stroke-width: 1.0;" x1="2436.5" x2="2478.5" y1="1476.2656" y2="1476.2656"/><line style="stroke: #A80036; stroke-width: 1.0;" x1="2478.5" x2="2478.5" y1="1476.2656" y2="1489.2656"/><line style="stroke: #A80036; stroke-width: 1.0;" x1="2431.5" x2="2478.5" y1="1489.2656" y2="1489.2656"/><polygon fill="#A80036" points="2441.5,1485.2656,2431.5,1489.2656,2441.5,1493.2656,2437.5,1489.2656" style="stroke: #A80036; stroke-width: 1.0;"/><text fill="#000000" font-family="sans-serif" font-size="13" lengthAdjust="spacingAndGlyphs" textLength="49" x="2443.5" y="1471.4092">display()</text><polygon fill="#A80036" points="574.5,1510.2656,584.5,1514.2656,574.5,1518.2656,578.5,1514.2656" style="stroke: #A80036; stroke-width: 1.0;"/><line style="stroke: #A80036; stroke-width: 1.0;" x1="201.5" x2="580.5" y1="1514.2656" y2="1514.2656"/><text fill="#000000" font-family="sans-serif" font-size="13" lengthAdjust="spacingAndGlyphs" textLength="192" x="208.5" y="1509.7607">setMeasurements(float,float,float)</text><line style="stroke: #A80036; stroke-width: 1.0;" x1="596.5" x2="638.5" y1="1544.9688" y2="1544.9688"/><line style="stroke: #A80036; stroke-width: 1.0;" x1="638.5" x2="638.5" y1="1544.9688" y2="1557.9688"/><line style="stroke: #A80036; stroke-width: 1.0;" x1="597.5" x2="638.5" y1="1557.9688" y2="1557.9688"/><polygon fill="#A80036" points="607.5,1553.9688,597.5,1557.9688,607.5,1561.9688,603.5,1557.9688" style="stroke: #A80036; stroke-width: 1.0;"/><text fill="#000000" font-family="sans-serif" font-size="13" lengthAdjust="spacingAndGlyphs" textLength="145" x="603.5" y="1540.1123">measurementsChanged()</text><line style="stroke: #A80036; stroke-width: 1.0;" x1="596.5" x2="638.5" y1="1588.3203" y2="1588.3203"/><line style="stroke: #A80036; stroke-width: 1.0;" x1="638.5" x2="638.5" y1="1588.3203" y2="1601.3203"/><line style="stroke: #A80036; stroke-width: 1.0;" x1="597.5" x2="638.5" y1="1601.3203" y2="1601.3203"/><polygon fill="#A80036" points="607.5,1597.3203,597.5,1601.3203,607.5,1605.3203,603.5,1601.3203" style="stroke: #A80036; stroke-width: 1.0;"/><text fill="#000000" font-family="sans-serif" font-size="13" lengthAdjust="spacingAndGlyphs" textLength="97" x="603.5" y="1583.4639">notifyObservers()</text><polygon fill="#A80036" points="2414.5,1627.3203,2424.5,1631.3203,2414.5,1635.3203,2418.5,1631.3203" style="stroke: #A80036; stroke-width: 1.0;"/><line style="stroke: #A80036; stroke-width: 1.0;" x1="596.5" x2="2420.5" y1="1631.3203" y2="1631.3203"/><text fill="#000000" font-family="sans-serif" font-size="13" lengthAdjust="spacingAndGlyphs" textLength="127" x="603.5" y="1626.8154">update(float,float,float)</text><line style="stroke: #A80036; stroke-width: 1.0;" x1="2436.5" x2="2478.5" y1="1662.0234" y2="1662.0234"/><line style="stroke: #A80036; stroke-width: 1.0;" x1="2478.5" x2="2478.5" y1="1662.0234" y2="1675.0234"/><line style="stroke: #A80036; stroke-width: 1.0;" x1="2437.5" x2="2478.5" y1="1675.0234" y2="1675.0234"/><polygon fill="#A80036" points="2447.5,1671.0234,2437.5,1675.0234,2447.5,1679.0234,2443.5,1675.0234" style="stroke: #A80036; stroke-width: 1.0;"/><text fill="#000000" font-family="sans-serif" font-size="13" lengthAdjust="spacingAndGlyphs" textLength="168" x="2443.5" y="1657.167">computeHeatIndex(float,float)</text><line style="stroke: #A80036; stroke-width: 1.0;" x1="2436.5" x2="2478.5" y1="1710.375" y2="1710.375"/><line style="stroke: #A80036; stroke-width: 1.0;" x1="2478.5" x2="2478.5" y1="1710.375" y2="1723.375"/><line style="stroke: #A80036; stroke-width: 1.0;" x1="2431.5" x2="2478.5" y1="1723.375" y2="1723.375"/><polygon fill="#A80036" points="2441.5,1719.375,2431.5,1723.375,2441.5,1727.375,2437.5,1723.375" style="stroke: #A80036; stroke-width: 1.0;"/><text fill="#000000" font-family="sans-serif" font-size="13" lengthAdjust="spacingAndGlyphs" textLength="49" x="2443.5" y="1705.5186">display()</text></g></svg>