<?xml version="1.0" encoding="UTF-8" standalone="no"?><svg xmlns="http://www.w3.org/2000/svg" xmlns:xlink="http://www.w3.org/1999/xlink" contentScriptType="application/ecmascript" contentStyleType="text/css" height="681px" preserveAspectRatio="none" style="width:952px;height:681px;" version="1.1" viewBox="0 0 952 681" width="952px" zoomAndPan="magnify"><defs><filter height="300%" id="f1813y2ope6q0v" width="300%" x="-1" y="-1"><feGaussianBlur result="blurOut" stdDeviation="2.0"/><feColorMatrix in="blurOut" result="blurOut2" type="matrix" values="0 0 0 0 0 0 0 0 0 0 0 0 0 0 0 0 0 0 .4 0"/><feOffset dx="4.0" dy="4.0" in="blurOut2" result="blurOut3"/><feBlend in="SourceGraphic" in2="blurOut3" mode="normal"/></filter></defs><g><!--cluster problem.blueberrymuffin--><polygon fill="#FFFFFF" filter="url(#f1813y2ope6q0v)" points="22,259,202,259,209,282.6094,558,282.6094,558,669,22,669,22,259" style="stroke: #000000; stroke-width: 1.5;"/><line style="stroke: #000000; stroke-width: 1.5;" x1="22" x2="209" y1="282.6094" y2="282.6094"/><text fill="#000000" font-family="sans-serif" font-size="14" font-weight="bold" lengthAdjust="spacingAndGlyphs" textLength="174" x="26" y="275.5332">problem.blueberrymuffin</text><!--cluster problem.blueberrymuffinclient--><polygon fill="#FFFFFF" filter="url(#f1813y2ope6q0v)" points="595,24,814,24,821,47.6094,930,47.6094,930,235,595,235,595,24" style="stroke: #000000; stroke-width: 1.5;"/><line style="stroke: #000000; stroke-width: 1.5;" x1="595" x2="821" y1="47.6094" y2="47.6094"/><text fill="#000000" font-family="sans-serif" font-size="14" font-weight="bold" lengthAdjust="spacingAndGlyphs" textLength="213" x="599" y="40.5332">problem.blueberrymuffinclient</text><!--cluster problem.blueberrymuffinApi--><polygon fill="#FFFFFF" filter="url(#f1813y2ope6q0v)" points="129,52,331,52,338,75.6094,571,75.6094,571,207,129,207,129,52" style="stroke: #000000; stroke-width: 1.5;"/><line style="stroke: #000000; stroke-width: 1.5;" x1="129" x2="338" y1="75.6094" y2="75.6094"/><text fill="#000000" font-family="sans-serif" font-size="14" font-weight="bold" lengthAdjust="spacingAndGlyphs" textLength="196" x="133" y="68.5332">problem.blueberrymuffinApi</text><!--class problem.blueberrymuffin.MuffinThreadExecutor--><rect fill="#FEFECE" filter="url(#f1813y2ope6q0v)" height="180.7109" id="problem.blueberrymuffin.MuffinThreadExecutor" style="stroke: #0000FF; stroke-width: 1.5;" width="347" x="176.5" y="295"/><ellipse cx="286.75" cy="315.0938" fill="#ADD1B2" rx="11" ry="11" style="stroke: #0000FF; stroke-width: 1.0;"/><path d="M289.5156,310.9688 Q289.6719,310.75 289.8594,310.6406 Q290.0469,310.5313 290.2656,310.5313 Q290.6406,310.5313 290.875,310.7891 Q291.1094,311.0469 291.1094,311.6563 L291.1094,313.1094 Q291.1094,313.7188 290.875,313.9844 Q290.6406,314.25 290.2656,314.25 Q289.9219,314.25 289.7188,314.0469 Q289.5156,313.8594 289.4063,313.3438 Q289.3594,312.9844 289.1719,312.7969 Q288.8438,312.4219 288.2344,312.2031 Q287.625,311.9844 287,311.9844 Q286.2344,311.9844 285.6016,312.3125 Q284.9688,312.6406 284.4766,313.3906 Q283.9844,314.1406 283.9844,315.1719 L283.9844,316.2656 Q283.9844,317.5 284.875,318.3203 Q285.7656,319.1406 287.3594,319.1406 Q288.2969,319.1406 288.9531,318.8906 Q289.3438,318.7344 289.7656,318.2969 Q290.0313,318.0313 290.1797,317.9531 Q290.3281,317.875 290.5313,317.875 Q290.8594,317.875 291.1172,318.1328 Q291.375,318.3906 291.375,318.7344 Q291.375,319.0781 291.0313,319.4844 Q290.5313,320.0625 289.7344,320.3906 Q288.6563,320.8438 287.3594,320.8438 Q285.8438,320.8438 284.6406,320.2188 Q283.6563,319.7188 282.9688,318.6484 Q282.2813,317.5781 282.2813,316.2969 L282.2813,315.1406 Q282.2813,313.8125 282.8984,312.6641 Q283.5156,311.5156 284.6094,310.8984 Q285.7031,310.2813 286.9375,310.2813 Q287.6719,310.2813 288.3203,310.4453 Q288.9688,310.6094 289.5156,310.9688 Z "/><text fill="#000000" font-family="sans-serif" font-size="12" font-style="italic" lengthAdjust="spacingAndGlyphs" textLength="66" x="333.25" y="312.457">«Singleton»</text><text fill="#000000" font-family="sans-serif" font-size="12" lengthAdjust="spacingAndGlyphs" textLength="118" x="307.25" y="327.5508">MuffinThreadExecutor</text><line style="stroke: #0000FF; stroke-width: 1.5;" x1="177.5" x2="522.5" y1="335.1875" y2="335.1875"/><ellipse cx="187.5" cy="347.6055" fill="none" rx="3" ry="3" style="stroke: #038048; stroke-width: 1.0;"/><text fill="#000000" font-family="sans-serif" font-size="11" lengthAdjust="spacingAndGlyphs" textLength="210" x="196.5" y="350.6064">java.util.Queue&lt;java.lang.Runnable&gt; allJobs</text><ellipse cx="187.5" cy="361.4414" fill="none" rx="3" ry="3" style="stroke: #038048; stroke-width: 1.0;"/><text fill="#000000" font-family="sans-serif" font-size="11" lengthAdjust="spacingAndGlyphs" textLength="321" x="196.5" y="364.4424">java.util.List&lt;problem.blueberrymuffin.RealThread&gt; workerThreads</text><ellipse cx="187.5" cy="375.2773" fill="none" rx="3" ry="3" style="stroke: #038048; stroke-width: 1.0;"/><text fill="#000000" font-family="sans-serif" font-size="11" lengthAdjust="spacingAndGlyphs" textLength="31" x="196.5" y="378.2783">int limit</text><ellipse cx="187.5" cy="389.1133" fill="none" rx="3" ry="3" style="stroke: #038048; stroke-width: 1.0;"/><text fill="#000000" font-family="sans-serif" font-size="11" lengthAdjust="spacingAndGlyphs" text-decoration="underline" textLength="271" x="196.5" y="392.1143">problem.blueberrymuffin.MuffinThreadExecutor instance</text><line style="stroke: #000000; stroke-width: 1.0;" x1="196.5" x2="467.5" y1="394.1143" y2="394.1143"/><line style="stroke: #0000FF; stroke-width: 1.5;" x1="177.5" x2="522.5" y1="398.5313" y2="398.5313"/><ellipse cx="187.5" cy="410.9492" fill="#84BE84" rx="3" ry="3" style="stroke: #038048; stroke-width: 1.0;"/><text fill="#000000" font-family="sans-serif" font-size="11" lengthAdjust="spacingAndGlyphs" text-decoration="underline" textLength="67" x="196.5" y="413.9502">void  &lt;clinit&gt;()</text><line style="stroke: #000000; stroke-width: 1.0;" x1="196.5" x2="263.5" y1="415.9502" y2="415.9502"/><ellipse cx="187.5" cy="424.7852" fill="#84BE84" rx="3" ry="3" style="stroke: #038048; stroke-width: 1.0;"/><text fill="#000000" font-family="sans-serif" font-size="11" lengthAdjust="spacingAndGlyphs" textLength="70" x="196.5" y="427.7861">void  &lt;init&gt;(int)</text><ellipse cx="187.5" cy="438.6211" fill="#84BE84" rx="3" ry="3" style="stroke: #038048; stroke-width: 1.0;"/><text fill="#000000" font-family="sans-serif" font-size="11" lengthAdjust="spacingAndGlyphs" text-decoration="underline" textLength="297" x="196.5" y="441.6221">problem.blueberrymuffin.MuffinThreadExecutor  getInstance()</text><line style="stroke: #000000; stroke-width: 1.0;" x1="196.5" x2="493.5" y1="443.6221" y2="443.6221"/><ellipse cx="187.5" cy="452.457" fill="#84BE84" rx="3" ry="3" style="stroke: #038048; stroke-width: 1.0;"/><text fill="#000000" font-family="sans-serif" font-size="11" lengthAdjust="spacingAndGlyphs" textLength="164" x="196.5" y="455.458">void  execute(java.lang.Runnable)</text><ellipse cx="187.5" cy="466.293" fill="#84BE84" rx="3" ry="3" style="stroke: #038048; stroke-width: 1.0;"/><text fill="#000000" font-family="sans-serif" font-size="11" lengthAdjust="spacingAndGlyphs" textLength="159" x="196.5" y="469.2939">java.lang.Runnable  getNextJob()</text><!--class problem.blueberrymuffin.RealThread--><rect fill="#FEFECE" filter="url(#f1813y2ope6q0v)" height="117.1797" id="problem.blueberrymuffin.RealThread" style="stroke: #A80036; stroke-width: 1.5;" width="176" x="262" y="536"/><ellipse cx="313.25" cy="552" fill="#ADD1B2" rx="11" ry="11" style="stroke: #A80036; stroke-width: 1.0;"/><path d="M316.0156,547.875 Q316.1719,547.6563 316.3594,547.5469 Q316.5469,547.4375 316.7656,547.4375 Q317.1406,547.4375 317.375,547.6953 Q317.6094,547.9531 317.6094,548.5625 L317.6094,550.0156 Q317.6094,550.625 317.375,550.8906 Q317.1406,551.1563 316.7656,551.1563 Q316.4219,551.1563 316.2188,550.9531 Q316.0156,550.7656 315.9063,550.25 Q315.8594,549.8906 315.6719,549.7031 Q315.3438,549.3281 314.7344,549.1094 Q314.125,548.8906 313.5,548.8906 Q312.7344,548.8906 312.1016,549.2188 Q311.4688,549.5469 310.9766,550.2969 Q310.4844,551.0469 310.4844,552.0781 L310.4844,553.1719 Q310.4844,554.4063 311.375,555.2266 Q312.2656,556.0469 313.8594,556.0469 Q314.7969,556.0469 315.4531,555.7969 Q315.8438,555.6406 316.2656,555.2031 Q316.5313,554.9375 316.6797,554.8594 Q316.8281,554.7813 317.0313,554.7813 Q317.3594,554.7813 317.6172,555.0391 Q317.875,555.2969 317.875,555.6406 Q317.875,555.9844 317.5313,556.3906 Q317.0313,556.9688 316.2344,557.2969 Q315.1563,557.75 313.8594,557.75 Q312.3438,557.75 311.1406,557.125 Q310.1563,556.625 309.4688,555.5547 Q308.7813,554.4844 308.7813,553.2031 L308.7813,552.0469 Q308.7813,550.7188 309.3984,549.5703 Q310.0156,548.4219 311.1094,547.8047 Q312.2031,547.1875 313.4375,547.1875 Q314.1719,547.1875 314.8203,547.3516 Q315.4688,547.5156 316.0156,547.875 Z "/><text fill="#000000" font-family="sans-serif" font-size="12" lengthAdjust="spacingAndGlyphs" textLength="65" x="333.75" y="556.9102">RealThread</text><line style="stroke: #A80036; stroke-width: 1.5;" x1="263" x2="437" y1="568" y2="568"/><rect fill="none" height="6" style="stroke: #C82930; stroke-width: 1.0;" width="6" x="270" y="577.418"/><text fill="#000000" font-family="sans-serif" font-size="11" lengthAdjust="spacingAndGlyphs" textLength="133" x="282" y="583.4189">java.lang.Thread underlying</text><line style="stroke: #A80036; stroke-width: 1.5;" x1="263" x2="437" y1="589.8359" y2="589.8359"/><ellipse cx="273" cy="602.2539" fill="#84BE84" rx="3" ry="3" style="stroke: #038048; stroke-width: 1.0;"/><text fill="#000000" font-family="sans-serif" font-size="11" lengthAdjust="spacingAndGlyphs" textLength="150" x="282" y="605.2549">void  &lt;init&gt;(java.lang.Runnable)</text><ellipse cx="273" cy="616.0898" fill="#84BE84" rx="3" ry="3" style="stroke: #038048; stroke-width: 1.0;"/><text fill="#000000" font-family="sans-serif" font-size="11" lengthAdjust="spacingAndGlyphs" textLength="56" x="282" y="619.0908">void  start()</text><ellipse cx="273" cy="629.9258" fill="#84BE84" rx="3" ry="3" style="stroke: #038048; stroke-width: 1.0;"/><text fill="#000000" font-family="sans-serif" font-size="11" lengthAdjust="spacingAndGlyphs" text-decoration="underline" textLength="103" x="282" y="632.9268">int  getTotalThreads()</text><line style="stroke: #000000; stroke-width: 1.0;" x1="282" x2="385" y1="634.9268" y2="634.9268"/><ellipse cx="273" cy="643.7617" fill="#84BE84" rx="3" ry="3" style="stroke: #038048; stroke-width: 1.0;"/><text fill="#000000" font-family="sans-serif" font-size="11" lengthAdjust="spacingAndGlyphs" text-decoration="underline" textLength="118" x="282" y="646.7627">void  printTotalThreads()</text><line style="stroke: #000000; stroke-width: 1.0;" x1="282" x2="400" y1="648.7627" y2="648.7627"/><!--class problem.blueberrymuffin.QueuePoller--><rect fill="#FEFECE" filter="url(#f1813y2ope6q0v)" height="89.5078" id="problem.blueberrymuffin.QueuePoller" style="stroke: #A80036; stroke-width: 1.5;" width="103" x="38.5" y="340.5"/><ellipse cx="54.4" cy="356.5" fill="#ADD1B2" rx="11" ry="11" style="stroke: #A80036; stroke-width: 1.0;"/><path d="M57.1656,352.375 Q57.3219,352.1563 57.5094,352.0469 Q57.6969,351.9375 57.9156,351.9375 Q58.2906,351.9375 58.525,352.1953 Q58.7594,352.4531 58.7594,353.0625 L58.7594,354.5156 Q58.7594,355.125 58.525,355.3906 Q58.2906,355.6563 57.9156,355.6563 Q57.5719,355.6563 57.3688,355.4531 Q57.1656,355.2656 57.0563,354.75 Q57.0094,354.3906 56.8219,354.2031 Q56.4938,353.8281 55.8844,353.6094 Q55.275,353.3906 54.65,353.3906 Q53.8844,353.3906 53.2516,353.7188 Q52.6188,354.0469 52.1266,354.7969 Q51.6344,355.5469 51.6344,356.5781 L51.6344,357.6719 Q51.6344,358.9063 52.525,359.7266 Q53.4156,360.5469 55.0094,360.5469 Q55.9469,360.5469 56.6031,360.2969 Q56.9938,360.1406 57.4156,359.7031 Q57.6813,359.4375 57.8297,359.3594 Q57.9781,359.2813 58.1813,359.2813 Q58.5094,359.2813 58.7672,359.5391 Q59.025,359.7969 59.025,360.1406 Q59.025,360.4844 58.6813,360.8906 Q58.1813,361.4688 57.3844,361.7969 Q56.3063,362.25 55.0094,362.25 Q53.4938,362.25 52.2906,361.625 Q51.3063,361.125 50.6188,360.0547 Q49.9313,358.9844 49.9313,357.7031 L49.9313,356.5469 Q49.9313,355.2188 50.5484,354.0703 Q51.1656,352.9219 52.2594,352.3047 Q53.3531,351.6875 54.5875,351.6875 Q55.3219,351.6875 55.9703,351.8516 Q56.6188,352.0156 57.1656,352.375 Z "/><text fill="#000000" font-family="sans-serif" font-size="12" lengthAdjust="spacingAndGlyphs" textLength="69" x="68.6" y="361.4102">QueuePoller</text><line style="stroke: #A80036; stroke-width: 1.5;" x1="39.5" x2="140.5" y1="372.5" y2="372.5"/><ellipse cx="49.5" cy="384.918" fill="none" rx="3" ry="3" style="stroke: #038048; stroke-width: 1.0;"/><text fill="#000000" font-family="sans-serif" font-size="11" lengthAdjust="spacingAndGlyphs" textLength="77" x="58.5" y="387.9189">boolean firstJob</text><line style="stroke: #A80036; stroke-width: 1.5;" x1="39.5" x2="140.5" y1="394.3359" y2="394.3359"/><ellipse cx="49.5" cy="406.7539" fill="#84BE84" rx="3" ry="3" style="stroke: #038048; stroke-width: 1.0;"/><text fill="#000000" font-family="sans-serif" font-size="11" lengthAdjust="spacingAndGlyphs" textLength="59" x="58.5" y="409.7549">void  &lt;init&gt;()</text><ellipse cx="49.5" cy="420.5898" fill="#84BE84" rx="3" ry="3" style="stroke: #038048; stroke-width: 1.0;"/><text fill="#000000" font-family="sans-serif" font-size="11" lengthAdjust="spacingAndGlyphs" textLength="50" x="58.5" y="423.5908">void  run()</text><!--class problem.blueberrymuffinclient.FIXME--><rect fill="#FEFECE" filter="url(#f1813y2ope6q0v)" height="158.6875" id="problem.blueberrymuffinclient.FIXME" style="stroke: #A80036; stroke-width: 1.5;" width="172" x="742" y="60"/><ellipse cx="806.75" cy="76" fill="#ADD1B2" rx="11" ry="11" style="stroke: #A80036; stroke-width: 1.0;"/><path d="M809.5156,71.875 Q809.6719,71.6563 809.8594,71.5469 Q810.0469,71.4375 810.2656,71.4375 Q810.6406,71.4375 810.875,71.6953 Q811.1094,71.9531 811.1094,72.5625 L811.1094,74.0156 Q811.1094,74.625 810.875,74.8906 Q810.6406,75.1563 810.2656,75.1563 Q809.9219,75.1563 809.7188,74.9531 Q809.5156,74.7656 809.4063,74.25 Q809.3594,73.8906 809.1719,73.7031 Q808.8438,73.3281 808.2344,73.1094 Q807.625,72.8906 807,72.8906 Q806.2344,72.8906 805.6016,73.2188 Q804.9688,73.5469 804.4766,74.2969 Q803.9844,75.0469 803.9844,76.0781 L803.9844,77.1719 Q803.9844,78.4063 804.875,79.2266 Q805.7656,80.0469 807.3594,80.0469 Q808.2969,80.0469 808.9531,79.7969 Q809.3438,79.6406 809.7656,79.2031 Q810.0313,78.9375 810.1797,78.8594 Q810.3281,78.7813 810.5313,78.7813 Q810.8594,78.7813 811.1172,79.0391 Q811.375,79.2969 811.375,79.6406 Q811.375,79.9844 811.0313,80.3906 Q810.5313,80.9688 809.7344,81.2969 Q808.6563,81.75 807.3594,81.75 Q805.8438,81.75 804.6406,81.125 Q803.6563,80.625 802.9688,79.5547 Q802.2813,78.4844 802.2813,77.2031 L802.2813,76.0469 Q802.2813,74.7188 802.8984,73.5703 Q803.5156,72.4219 804.6094,71.8047 Q805.7031,71.1875 806.9375,71.1875 Q807.6719,71.1875 808.3203,71.3516 Q808.9688,71.5156 809.5156,71.875 Z "/><text fill="#000000" font-family="sans-serif" font-size="12" lengthAdjust="spacingAndGlyphs" textLength="34" x="827.25" y="80.9102">FIXME</text><line style="stroke: #A80036; stroke-width: 1.5;" x1="743" x2="913" y1="92" y2="92"/><line style="stroke: #A80036; stroke-width: 1.5;" x1="743" x2="913" y1="100" y2="100"/><ellipse cx="753" cy="112.418" fill="#84BE84" rx="3" ry="3" style="stroke: #038048; stroke-width: 1.0;"/><text fill="#000000" font-family="sans-serif" font-size="11" lengthAdjust="spacingAndGlyphs" textLength="59" x="762" y="115.4189">void  &lt;init&gt;()</text><ellipse cx="753" cy="126.2539" fill="#84BE84" rx="3" ry="3" style="stroke: #038048; stroke-width: 1.0;"/><text fill="#000000" font-family="sans-serif" font-size="11" lengthAdjust="spacingAndGlyphs" text-decoration="underline" textLength="136" x="762" y="129.2549">void  main(java.lang.String[])</text><line style="stroke: #000000; stroke-width: 1.0;" x1="762" x2="898" y1="131.2549" y2="131.2549"/><ellipse cx="753" cy="140.0898" fill="#84BE84" rx="3" ry="3" style="stroke: #038048; stroke-width: 1.0;"/><text fill="#000000" font-family="sans-serif" font-size="11" lengthAdjust="spacingAndGlyphs" text-decoration="underline" textLength="146" x="762" y="143.0908">void  launchPrintingThread(int)</text><line style="stroke: #000000; stroke-width: 1.0;" x1="762" x2="908" y1="145.0908" y2="145.0908"/><rect fill="#F24D5C" height="6" style="stroke: #C82930; stroke-width: 1.0;" width="6" x="750" y="150.9258"/><text fill="#000000" font-family="sans-serif" font-size="11" lengthAdjust="spacingAndGlyphs" text-decoration="underline" textLength="80" x="762" y="156.9268">void  lambda$0()</text><line style="stroke: #000000; stroke-width: 1.0;" x1="762" x2="842" y1="158.9268" y2="158.9268"/><rect fill="#F24D5C" height="6" style="stroke: #C82930; stroke-width: 1.0;" width="6" x="750" y="164.7617"/><text fill="#000000" font-family="sans-serif" font-size="11" lengthAdjust="spacingAndGlyphs" text-decoration="underline" textLength="80" x="762" y="170.7627">void  lambda$1()</text><line style="stroke: #000000; stroke-width: 1.0;" x1="762" x2="842" y1="172.7627" y2="172.7627"/><rect fill="#F24D5C" height="6" style="stroke: #C82930; stroke-width: 1.0;" width="6" x="750" y="178.5977"/><text fill="#000000" font-family="sans-serif" font-size="11" lengthAdjust="spacingAndGlyphs" text-decoration="underline" textLength="80" x="762" y="184.5986">void  lambda$2()</text><line style="stroke: #000000; stroke-width: 1.0;" x1="762" x2="842" y1="186.5986" y2="186.5986"/><rect fill="#F24D5C" height="6" style="stroke: #C82930; stroke-width: 1.0;" width="6" x="750" y="192.4336"/><text fill="#000000" font-family="sans-serif" font-size="11" lengthAdjust="spacingAndGlyphs" text-decoration="underline" textLength="80" x="762" y="198.4346">void  lambda$3()</text><line style="stroke: #000000; stroke-width: 1.0;" x1="762" x2="842" y1="200.4346" y2="200.4346"/><rect fill="#F24D5C" height="6" style="stroke: #C82930; stroke-width: 1.0;" width="6" x="750" y="206.2695"/><text fill="#000000" font-family="sans-serif" font-size="11" lengthAdjust="spacingAndGlyphs" text-decoration="underline" textLength="80" x="762" y="212.2705">void  lambda$4()</text><line style="stroke: #000000; stroke-width: 1.0;" x1="762" x2="842" y1="214.2705" y2="214.2705"/><!--class problem.blueberrymuffinclient.FIXME$1--><rect fill="#FEFECE" filter="url(#f1813y2ope6q0v)" height="89.5078" id="problem.blueberrymuffinclient.FIXME$1" style="stroke: #A80036; stroke-width: 1.5;" width="96" x="611" y="94.5"/><ellipse cx="633.2" cy="110.5" fill="#ADD1B2" rx="11" ry="11" style="stroke: #A80036; stroke-width: 1.0;"/><path d="M635.9656,106.375 Q636.1219,106.1563 636.3094,106.0469 Q636.4969,105.9375 636.7156,105.9375 Q637.0906,105.9375 637.325,106.1953 Q637.5594,106.4531 637.5594,107.0625 L637.5594,108.5156 Q637.5594,109.125 637.325,109.3906 Q637.0906,109.6563 636.7156,109.6563 Q636.3719,109.6563 636.1688,109.4531 Q635.9656,109.2656 635.8563,108.75 Q635.8094,108.3906 635.6219,108.2031 Q635.2938,107.8281 634.6844,107.6094 Q634.075,107.3906 633.45,107.3906 Q632.6844,107.3906 632.0516,107.7188 Q631.4188,108.0469 630.9266,108.7969 Q630.4344,109.5469 630.4344,110.5781 L630.4344,111.6719 Q630.4344,112.9063 631.325,113.7266 Q632.2156,114.5469 633.8094,114.5469 Q634.7469,114.5469 635.4031,114.2969 Q635.7938,114.1406 636.2156,113.7031 Q636.4813,113.4375 636.6297,113.3594 Q636.7781,113.2813 636.9813,113.2813 Q637.3094,113.2813 637.5672,113.5391 Q637.825,113.7969 637.825,114.1406 Q637.825,114.4844 637.4813,114.8906 Q636.9813,115.4688 636.1844,115.7969 Q635.1063,116.25 633.8094,116.25 Q632.2938,116.25 631.0906,115.625 Q630.1063,115.125 629.4188,114.0547 Q628.7313,112.9844 628.7313,111.7031 L628.7313,110.5469 Q628.7313,109.2188 629.3484,108.0703 Q629.9656,106.9219 631.0594,106.3047 Q632.1531,105.6875 633.3875,105.6875 Q634.1219,105.6875 634.7703,105.8516 Q635.4188,106.0156 635.9656,106.375 Z "/><text fill="#000000" font-family="sans-serif" font-size="12" lengthAdjust="spacingAndGlyphs" textLength="48" x="648.8" y="115.4102">FIXME$1</text><line style="stroke: #A80036; stroke-width: 1.5;" x1="612" x2="706" y1="126.5" y2="126.5"/><rect fill="none" height="6" style="stroke: #C82930; stroke-width: 1.0;" width="6" x="619" y="135.918"/><text fill="#000000" font-family="sans-serif" font-size="11" lengthAdjust="spacingAndGlyphs" textLength="59" x="631" y="141.9189">final int val$i</text><line style="stroke: #A80036; stroke-width: 1.5;" x1="612" x2="706" y1="148.3359" y2="148.3359"/><ellipse cx="622" cy="160.7539" fill="#84BE84" rx="3" ry="3" style="stroke: #038048; stroke-width: 1.0;"/><text fill="#000000" font-family="sans-serif" font-size="11" lengthAdjust="spacingAndGlyphs" textLength="70" x="631" y="163.7549">void  &lt;init&gt;(int)</text><ellipse cx="622" cy="174.5898" fill="#84BE84" rx="3" ry="3" style="stroke: #038048; stroke-width: 1.0;"/><text fill="#000000" font-family="sans-serif" font-size="11" lengthAdjust="spacingAndGlyphs" textLength="50" x="631" y="177.5908">void  run()</text><!--class problem.blueberrymuffinApi.VirtualThread--><rect fill="#FEFECE" filter="url(#f1813y2ope6q0v)" height="103.3438" id="problem.blueberrymuffinApi.VirtualThread" style="stroke: #A80036; stroke-width: 1.5;" width="409" x="145.5" y="88"/><ellipse cx="309.25" cy="104" fill="#ADD1B2" rx="11" ry="11" style="stroke: #A80036; stroke-width: 1.0;"/><path d="M312.0156,99.875 Q312.1719,99.6563 312.3594,99.5469 Q312.5469,99.4375 312.7656,99.4375 Q313.1406,99.4375 313.375,99.6953 Q313.6094,99.9531 313.6094,100.5625 L313.6094,102.0156 Q313.6094,102.625 313.375,102.8906 Q313.1406,103.1563 312.7656,103.1563 Q312.4219,103.1563 312.2188,102.9531 Q312.0156,102.7656 311.9063,102.25 Q311.8594,101.8906 311.6719,101.7031 Q311.3438,101.3281 310.7344,101.1094 Q310.125,100.8906 309.5,100.8906 Q308.7344,100.8906 308.1016,101.2188 Q307.4688,101.5469 306.9766,102.2969 Q306.4844,103.0469 306.4844,104.0781 L306.4844,105.1719 Q306.4844,106.4063 307.375,107.2266 Q308.2656,108.0469 309.8594,108.0469 Q310.7969,108.0469 311.4531,107.7969 Q311.8438,107.6406 312.2656,107.2031 Q312.5313,106.9375 312.6797,106.8594 Q312.8281,106.7813 313.0313,106.7813 Q313.3594,106.7813 313.6172,107.0391 Q313.875,107.2969 313.875,107.6406 Q313.875,107.9844 313.5313,108.3906 Q313.0313,108.9688 312.2344,109.2969 Q311.1563,109.75 309.8594,109.75 Q308.3438,109.75 307.1406,109.125 Q306.1563,108.625 305.4688,107.5547 Q304.7813,106.4844 304.7813,105.2031 L304.7813,104.0469 Q304.7813,102.7188 305.3984,101.5703 Q306.0156,100.4219 307.1094,99.8047 Q308.2031,99.1875 309.4375,99.1875 Q310.1719,99.1875 310.8203,99.3516 Q311.4688,99.5156 312.0156,99.875 Z "/><text fill="#000000" font-family="sans-serif" font-size="12" lengthAdjust="spacingAndGlyphs" textLength="73" x="329.75" y="108.9102">VirtualThread</text><line style="stroke: #A80036; stroke-width: 1.5;" x1="146.5" x2="553.5" y1="120" y2="120"/><ellipse cx="156.5" cy="132.418" fill="none" rx="3" ry="3" style="stroke: #038048; stroke-width: 1.0;"/><text fill="#000000" font-family="sans-serif" font-size="11" lengthAdjust="spacingAndGlyphs" textLength="273" x="165.5" y="135.4189">problem.blueberrymuffin.MuffinThreadExecutor executor</text><ellipse cx="156.5" cy="146.2539" fill="none" rx="3" ry="3" style="stroke: #038048; stroke-width: 1.0;"/><text fill="#000000" font-family="sans-serif" font-size="11" lengthAdjust="spacingAndGlyphs" textLength="136" x="165.5" y="149.2549">java.lang.Runnable runnable</text><line style="stroke: #A80036; stroke-width: 1.5;" x1="146.5" x2="553.5" y1="155.6719" y2="155.6719"/><ellipse cx="156.5" cy="168.0898" fill="#84BE84" rx="3" ry="3" style="stroke: #038048; stroke-width: 1.0;"/><text fill="#000000" font-family="sans-serif" font-size="11" lengthAdjust="spacingAndGlyphs" textLength="383" x="165.5" y="171.0908">void  &lt;init&gt;(java.lang.Runnable, problem.blueberrymuffin.MuffinThreadExecutor)</text><ellipse cx="156.5" cy="181.9258" fill="#84BE84" rx="3" ry="3" style="stroke: #038048; stroke-width: 1.0;"/><text fill="#000000" font-family="sans-serif" font-size="11" lengthAdjust="spacingAndGlyphs" textLength="56" x="165.5" y="184.9268">void  start()</text><!--link problem.blueberrymuffin.MuffinThreadExecutor to problem.blueberrymuffin.RealThread--><path d="M350,476.259 C350,476.259 350,530.749 350,530.749 " fill="none" id="problem.blueberrymuffin.MuffinThreadExecutor-problem.blueberrymuffin.RealThread" style="stroke: #A80036; stroke-width: 1.0;"/><polygon fill="#A80036" points="350,535.749,354,526.749,350,530.749,346,526.749,350,535.749" style="stroke: #A80036; stroke-width: 1.0;"/><text fill="#000000" font-family="sans-serif" font-size="13" lengthAdjust="spacingAndGlyphs" textLength="5" x="344.6953" y="525.1193">*</text><!--link problem.blueberrymuffin.MuffinThreadExecutor to problem.blueberrymuffin.MuffinThreadExecutor--><path d="M292.167,294.859 C292.167,273.596 292.167,257 292.167,257 C292.167,257 161,257 161,257 C161,257 161,506 161,506 C161,506 219.25,506 219.25,506 C219.25,506 219.25,481.213 219.25,481.213 " fill="none" id="problem.blueberrymuffin.MuffinThreadExecutor-problem.blueberrymuffin.MuffinThreadExecutor" style="stroke: #A80036; stroke-width: 1.0;"/><polygon fill="#A80036" points="219.25,476.213,215.25,485.213,219.25,481.213,223.25,485.213,219.25,476.213" style="stroke: #A80036; stroke-width: 1.0;"/><!--link problem.blueberrymuffinApi.VirtualThread to problem.blueberrymuffin.MuffinThreadExecutor--><path d="M407.833,191.07 C407.833,191.07 407.833,289.724 407.833,289.724 " fill="none" id="problem.blueberrymuffinApi.VirtualThread-problem.blueberrymuffin.MuffinThreadExecutor" style="stroke: #A80036; stroke-width: 1.0;"/><polygon fill="#A80036" points="407.833,294.724,411.833,285.724,407.833,289.724,403.833,285.724,407.833,294.724" style="stroke: #A80036; stroke-width: 1.0;"/></g></svg>